<svg id="svg" version="1.1" xmlns="http://www.w3.org/2000/svg" xmlns:xlink="http://www.w3.org/1999/xlink" width="400" height="400" viewBox="0, 0, 400,400"><g id="svgg"><path id="path0" d="M188.500 16.550 C 187.767 16.608,185.067 16.815,182.500 17.010 C 88.128 24.197,13.868 105.285,13.850 201.167 C 13.827 322.541,126.494 410.445,244.333 380.992 C 367.282 350.262,423.343 205.784,353.494 99.667 C 317.488 44.964,251.285 11.614,188.500 16.550 M207.057 70.680 C 218.716 71.470,233.766 74.473,240.667 77.387 C 241.125 77.580,242.325 78.006,243.333 78.332 C 275.745 88.833,308.675 121.564,321.642 156.167 C 322.055 157.267,322.543 158.542,322.728 159.000 C 324.796 164.137,327.626 175.999,328.842 184.626 C 333.145 215.176,324.329 252.066,307.243 275.000 C 302.534 281.321,300.407 284.034,297.964 286.833 C 271.473 317.187,237.414 332.967,198.333 332.994 C 159.685 333.020,125.956 317.409,99.313 287.163 C 87.975 274.293,80.824 262.154,74.181 244.506 C 63.990 217.432,64.897 181.294,76.476 153.023 C 88.372 123.977,112.400 98.116,140.562 84.046 C 147.169 80.744,150.387 79.401,157.833 76.832 C 172.098 71.913,190.784 69.577,207.057 70.680 " stroke="none" fill="#fbfbfb" fill-rule="evenodd"></path><path id="path1" d="M9.624 11.218 C 8.938 12.044,8.938 388.622,9.624 389.449 C 10.311 390.277,387.315 390.304,388.143 389.476 C 388.946 388.673,388.946 11.994,388.143 11.190 C 387.315 10.363,10.311 10.390,9.624 11.218 M213.167 16.836 C 323.043 26.512,399.519 124.906,381.308 233.167 C 367.880 312.996,301.104 376.304,220.667 385.465 C 97.523 399.490,-4.248 292.525,16.184 170.547 C 30.021 87.938,100.051 23.289,182.500 17.010 C 185.067 16.815,187.767 16.608,188.500 16.550 C 192.766 16.215,208.137 16.393,213.167 16.836 M192.833 70.697 C 135.553 73.810,87.818 111.909,71.861 167.251 C 65.096 190.713,66.039 222.208,74.151 243.759 C 82.435 265.769,91.868 280.403,107.716 295.833 C 164.202 350.830,254.997 343.773,302.856 280.667 C 349.041 219.768,334.307 135.286,269.968 92.082 C 252.239 80.178,229.603 72.418,208.500 71.011 C 200.185 70.457,198.045 70.414,192.833 70.697 " stroke="none" fill="#040404" fill-rule="evenodd"></path><path id="path2" d="M209.083 332.563 C 209.404 332.647,209.929 332.647,210.250 332.563 C 210.571 332.479,210.308 332.411,209.667 332.411 C 209.025 332.411,208.762 332.479,209.083 332.563 M194.921 332.902 C 195.335 332.982,195.935 332.979,196.254 332.896 C 196.573 332.812,196.233 332.747,195.500 332.751 C 194.767 332.754,194.506 332.823,194.921 332.902 M200.587 332.902 C 201.002 332.982,201.602 332.979,201.921 332.896 C 202.239 332.812,201.900 332.747,201.167 332.751 C 200.433 332.754,200.173 332.823,200.587 332.902 " stroke="none" fill="#4d4d4d" fill-rule="evenodd"></path><path id="path3" d="M67.077 206.000 C 67.077 206.642,67.146 206.904,67.230 206.583 C 67.314 206.262,67.314 205.737,67.230 205.417 C 67.146 205.096,67.077 205.358,67.077 206.000 M191.417 332.896 C 191.737 332.980,192.262 332.980,192.583 332.896 C 192.904 332.813,192.642 332.744,192.000 332.744 C 191.358 332.744,191.096 332.813,191.417 332.896 M204.083 332.896 C 204.404 332.980,204.929 332.980,205.250 332.896 C 205.571 332.813,205.308 332.744,204.667 332.744 C 204.025 332.744,203.762 332.813,204.083 332.896 " stroke="none" fill="#8c8c8c" fill-rule="evenodd"></path><path id="path4" d="" stroke="none" fill="#7c7c7c" fill-rule="evenodd"></path></g></svg>