<svg id="svg" version="1.1" xmlns="http://www.w3.org/2000/svg" xmlns:xlink="http://www.w3.org/1999/xlink" width="400" height="400" viewBox="0, 0, 400,400"><g id="svgg"><path id="path0" d="M221.250 17.897 C 221.662 17.978,222.000 18.184,222.000 18.355 C 222.000 18.527,222.300 18.667,222.667 18.667 C 223.033 18.667,223.333 18.817,223.333 19.000 C 223.333 19.183,223.633 19.333,224.000 19.333 C 224.367 19.333,224.667 19.483,224.667 19.667 C 224.667 19.850,224.892 20.000,225.167 20.000 C 225.442 20.000,225.667 20.143,225.667 20.318 C 225.667 20.493,226.192 20.735,226.833 20.855 C 227.475 20.976,228.000 21.208,228.000 21.370 C 228.000 21.533,228.225 21.667,228.500 21.667 C 228.775 21.667,229.000 21.817,229.000 22.000 C 229.000 22.183,229.225 22.333,229.500 22.333 C 229.775 22.333,230.000 22.483,230.000 22.667 C 230.000 22.850,230.192 23.000,230.426 23.000 C 230.661 23.000,231.065 23.294,231.324 23.654 C 231.584 24.014,232.217 24.401,232.731 24.514 C 233.246 24.627,233.667 24.858,233.667 25.026 C 233.667 25.195,233.859 25.333,234.093 25.333 C 234.328 25.333,234.736 25.633,235.000 26.000 C 235.264 26.367,235.612 26.667,235.773 26.667 C 235.934 26.667,236.486 27.117,237.000 27.667 C 237.514 28.217,238.092 28.667,238.285 28.667 C 238.478 28.667,239.011 29.042,239.470 29.500 C 239.928 29.958,240.389 30.333,240.494 30.333 C 240.738 30.333,242.256 31.750,245.922 35.396 C 249.404 38.860,253.655 43.529,254.667 45.001 C 254.942 45.401,255.392 46.007,255.667 46.348 C 256.197 47.004,257.174 48.241,258.000 49.303 C 258.275 49.657,258.791 50.343,259.146 50.827 C 259.501 51.312,260.047 52.003,260.359 52.363 C 260.671 52.722,261.111 53.463,261.337 54.008 C 261.563 54.554,261.875 55.000,262.032 55.000 C 262.188 55.000,262.566 55.487,262.871 56.083 C 263.177 56.679,263.539 57.242,263.676 57.333 C 263.813 57.425,264.498 58.550,265.197 59.833 C 265.897 61.117,266.640 62.317,266.848 62.500 C 267.308 62.905,272.667 72.823,272.667 73.269 C 272.667 73.443,273.342 74.806,274.167 76.297 C 274.992 77.789,275.667 79.172,275.667 79.372 C 275.667 79.572,276.031 80.432,276.476 81.284 C 276.921 82.136,277.840 84.183,278.519 85.833 C 279.197 87.483,279.948 89.283,280.186 89.833 C 280.425 90.383,280.930 91.696,281.310 92.750 C 281.962 94.560,282.477 95.981,283.970 100.083 C 284.321 101.046,285.235 103.858,286.002 106.333 C 286.769 108.808,287.598 111.433,287.844 112.167 C 288.700 114.720,290.645 122.206,291.957 128.000 C 303.671 179.731,302.521 237.614,288.792 287.333 C 287.573 291.745,286.945 293.878,286.681 294.500 C 286.525 294.867,285.927 296.667,285.352 298.500 C 284.777 300.333,284.177 302.133,284.020 302.500 C 283.863 302.867,283.554 303.692,283.333 304.333 C 283.113 304.975,282.813 305.800,282.667 306.167 C 282.520 306.533,282.220 307.358,282.000 308.000 C 281.564 309.271,281.561 309.277,280.009 313.167 C 278.794 316.212,278.747 316.321,276.172 322.167 C 274.442 326.094,265.897 342.266,265.340 342.667 C 265.213 342.758,264.679 343.583,264.154 344.500 C 263.628 345.417,263.109 346.242,262.998 346.333 C 262.888 346.425,262.437 347.100,261.995 347.833 C 261.553 348.567,260.999 349.365,260.762 349.607 C 260.526 349.849,260.333 350.179,260.333 350.340 C 260.333 350.501,259.961 351.053,259.505 351.566 C 258.250 352.982,258.121 353.151,257.699 353.939 C 257.485 354.340,256.902 355.096,256.404 355.619 C 255.907 356.141,255.275 356.910,255.000 357.327 C 254.725 357.745,254.050 358.589,253.500 359.204 C 252.950 359.819,252.125 360.784,251.667 361.348 C 251.208 361.913,250.639 362.553,250.401 362.771 C 250.163 362.988,249.788 363.363,249.567 363.602 C 248.894 364.335,242.779 370.394,240.877 372.214 C 239.891 373.157,238.766 374.029,238.376 374.153 C 237.986 374.277,237.667 374.518,237.667 374.689 C 237.667 374.860,237.475 375.000,237.240 375.000 C 237.006 375.000,236.598 375.300,236.333 375.667 C 236.069 376.033,235.694 376.333,235.500 376.333 C 235.306 376.333,234.931 376.633,234.667 377.000 C 234.402 377.367,233.994 377.667,233.760 377.667 C 233.525 377.667,233.333 377.805,233.333 377.974 C 233.333 378.142,232.883 378.379,232.333 378.500 C 231.783 378.621,231.333 378.858,231.333 379.026 C 231.333 379.195,231.108 379.333,230.833 379.333 C 230.558 379.333,230.333 379.483,230.333 379.667 C 230.333 379.850,230.108 380.000,229.833 380.000 C 229.558 380.000,229.333 380.150,229.333 380.333 C 229.333 380.517,229.108 380.667,228.833 380.667 C 228.558 380.667,228.333 380.817,228.333 381.000 C 228.333 381.183,228.108 381.333,227.833 381.333 C 227.558 381.333,227.333 381.477,227.333 381.652 C 227.333 381.827,226.808 382.068,226.167 382.189 C 225.525 382.309,225.000 382.541,225.000 382.704 C 225.000 382.867,224.700 383.000,224.333 383.000 C 223.967 383.000,223.667 383.150,223.667 383.333 C 223.667 383.517,223.442 383.667,223.167 383.667 C 222.892 383.667,222.667 383.817,222.667 384.000 C 222.667 384.183,222.367 384.333,222.000 384.333 C 221.633 384.333,221.333 384.483,221.333 384.667 C 221.333 384.850,220.958 385.000,220.500 385.000 C 220.042 385.000,219.667 385.153,219.667 385.340 C 219.667 385.527,220.004 385.609,220.417 385.524 C 220.829 385.438,222.067 385.274,223.167 385.158 C 224.267 385.042,227.942 384.442,231.333 383.824 C 349.144 362.357,415.876 238.228,368.808 128.104 C 344.498 71.228,291.081 29.060,230.659 19.048 C 225.688 18.224,218.337 17.325,221.250 17.897 M170.500 18.375 C 130.135 25.663,99.479 40.701,71.610 66.885 C 24.605 111.049,3.877 178.154,17.828 241.000 C 32.565 307.388,81.633 360.130,146.333 379.125 C 158.051 382.565,174.333 385.788,174.333 384.667 C 174.333 384.483,173.958 384.333,173.500 384.333 C 173.042 384.333,172.667 384.183,172.667 384.000 C 172.667 383.817,172.367 383.667,172.000 383.667 C 171.633 383.667,171.333 383.517,171.333 383.333 C 171.333 383.150,171.108 383.000,170.833 383.000 C 170.558 383.000,170.333 382.867,170.333 382.704 C 170.333 382.541,169.808 382.309,169.167 382.189 C 168.525 382.068,168.000 381.827,168.000 381.652 C 168.000 381.477,167.775 381.333,167.500 381.333 C 167.225 381.333,167.000 381.183,167.000 381.000 C 167.000 380.817,166.775 380.667,166.500 380.667 C 166.225 380.667,166.000 380.517,166.000 380.333 C 166.000 380.150,165.775 380.000,165.500 380.000 C 165.225 380.000,165.000 379.850,165.000 379.667 C 165.000 379.483,164.775 379.333,164.500 379.333 C 164.225 379.333,164.000 379.200,164.000 379.036 C 164.000 378.873,163.625 378.645,163.167 378.530 C 162.708 378.415,162.333 378.173,162.333 377.994 C 162.333 377.814,162.108 377.667,161.833 377.667 C 161.558 377.667,161.333 377.517,161.333 377.333 C 161.333 377.150,161.141 377.000,160.907 377.000 C 160.672 377.000,160.264 376.700,160.000 376.333 C 159.736 375.967,159.396 375.667,159.245 375.667 C 159.093 375.667,158.595 375.292,158.136 374.833 C 157.678 374.375,157.148 374.000,156.959 374.000 C 156.769 374.000,156.038 373.400,155.333 372.667 C 154.629 371.933,153.959 371.333,153.845 371.333 C 153.521 371.333,152.835 370.710,149.729 367.596 C 145.299 363.153,141.679 359.084,140.000 356.662 C 139.725 356.265,139.012 355.418,138.417 354.780 C 137.821 354.141,137.333 353.503,137.333 353.361 C 137.333 353.218,137.071 352.792,136.750 352.412 C 135.178 350.554,134.936 350.224,134.594 349.474 C 134.392 349.030,134.128 348.667,134.008 348.667 C 133.888 348.667,133.435 348.029,133.003 347.250 C 132.570 346.471,132.117 345.758,131.996 345.667 C 131.875 345.575,131.346 344.750,130.820 343.833 C 130.295 342.917,129.762 342.092,129.635 342.000 C 129.310 341.764,122.000 328.278,122.000 327.913 C 122.000 327.747,121.408 326.462,120.683 325.056 C 119.420 322.604,118.028 319.622,117.156 317.500 C 116.930 316.950,116.364 315.600,115.898 314.500 C 115.432 313.400,114.725 311.600,114.327 310.500 C 111.595 302.963,110.915 301.033,110.627 300.000 C 110.448 299.358,110.170 298.533,110.009 298.167 C 109.848 297.800,109.317 296.150,108.829 294.500 C 108.341 292.850,107.592 290.375,107.164 289.000 C 104.761 281.274,101.159 264.961,99.658 255.000 C 94.616 221.553,94.123 192.879,98.010 159.167 C 100.092 141.114,106.613 112.405,111.335 100.500 C 111.480 100.133,111.780 99.308,112.000 98.667 C 112.220 98.025,112.520 97.200,112.667 96.833 C 112.813 96.467,113.113 95.642,113.333 95.000 C 113.770 93.729,113.772 93.723,115.324 89.833 C 116.502 86.883,116.521 86.838,118.999 81.167 C 120.773 77.107,129.751 60.209,130.573 59.382 C 130.820 59.134,131.334 58.318,131.716 57.569 C 132.098 56.821,132.622 55.997,132.880 55.739 C 133.138 55.481,133.586 54.811,133.877 54.250 C 134.452 53.136,134.576 52.964,135.824 51.535 C 136.287 51.004,136.667 50.464,136.667 50.336 C 136.667 50.207,136.929 49.778,137.250 49.381 C 137.571 48.985,138.133 48.279,138.500 47.813 C 138.867 47.348,139.392 46.688,139.667 46.348 C 139.942 46.007,140.392 45.395,140.667 44.986 C 140.942 44.578,141.359 44.077,141.595 43.872 C 142.556 43.037,142.856 42.714,143.333 42.002 C 143.740 41.394,146.938 37.892,148.358 36.500 C 152.371 32.564,153.324 31.667,153.488 31.667 C 153.596 31.667,154.359 30.992,155.184 30.167 C 156.009 29.342,156.845 28.667,157.042 28.667 C 157.238 28.667,157.820 28.217,158.333 27.667 C 158.847 27.117,159.432 26.667,159.634 26.667 C 159.835 26.667,160.000 26.517,160.000 26.333 C 160.000 26.150,160.192 26.000,160.426 26.000 C 160.661 26.000,161.065 25.706,161.324 25.346 C 161.584 24.986,162.217 24.599,162.731 24.486 C 163.246 24.373,163.667 24.142,163.667 23.974 C 163.667 23.805,163.892 23.667,164.167 23.667 C 164.442 23.667,164.667 23.517,164.667 23.333 C 164.667 23.150,164.892 23.000,165.167 23.000 C 165.442 23.000,165.667 22.850,165.667 22.667 C 165.667 22.483,165.892 22.333,166.167 22.333 C 166.442 22.333,166.667 22.183,166.667 22.000 C 166.667 21.817,166.892 21.667,167.167 21.667 C 167.442 21.667,167.667 21.523,167.667 21.348 C 167.667 21.173,168.192 20.932,168.833 20.811 C 169.475 20.691,170.000 20.459,170.000 20.296 C 170.000 20.133,170.225 20.000,170.500 20.000 C 170.775 20.000,171.000 19.850,171.000 19.667 C 171.000 19.483,171.300 19.333,171.667 19.333 C 172.033 19.333,172.333 19.183,172.333 19.000 C 172.333 18.817,172.633 18.667,173.000 18.667 C 173.367 18.667,173.667 18.517,173.667 18.333 C 173.667 17.945,172.820 17.957,170.500 18.375 " stroke="none" fill="#fbfbfb" fill-rule="evenodd"></path><path id="path1" d="M9.624 11.218 C 8.938 12.044,8.938 388.622,9.624 389.449 C 10.311 390.277,387.315 390.304,388.143 389.476 C 388.946 388.673,388.946 11.994,388.143 11.190 C 387.315 10.363,10.311 10.390,9.624 11.218 M175.000 18.000 C 175.000 18.183,174.700 18.333,174.333 18.333 C 173.967 18.333,173.667 18.483,173.667 18.667 C 173.667 18.850,173.367 19.000,173.000 19.000 C 172.633 19.000,172.333 19.150,172.333 19.333 C 172.333 19.517,172.033 19.667,171.667 19.667 C 171.300 19.667,171.000 19.817,171.000 20.000 C 171.000 20.183,170.775 20.333,170.500 20.333 C 170.225 20.333,170.000 20.467,170.000 20.630 C 170.000 20.792,169.475 21.024,168.833 21.145 C 168.192 21.265,167.667 21.507,167.667 21.682 C 167.667 21.857,167.442 22.000,167.167 22.000 C 166.892 22.000,166.667 22.150,166.667 22.333 C 166.667 22.517,166.442 22.667,166.167 22.667 C 165.892 22.667,165.667 22.817,165.667 23.000 C 165.667 23.183,165.442 23.333,165.167 23.333 C 164.892 23.333,164.667 23.483,164.667 23.667 C 164.667 23.850,164.442 24.000,164.167 24.000 C 163.892 24.000,163.667 24.138,163.667 24.307 C 163.667 24.476,163.246 24.706,162.731 24.819 C 162.217 24.932,161.584 25.319,161.324 25.679 C 161.065 26.039,160.661 26.333,160.426 26.333 C 160.192 26.333,160.000 26.483,160.000 26.667 C 160.000 26.850,159.843 27.000,159.652 27.000 C 159.460 27.000,158.928 27.375,158.470 27.833 C 158.011 28.292,157.483 28.667,157.297 28.667 C 157.110 28.667,156.245 29.398,155.375 30.291 C 154.505 31.184,153.464 32.019,153.063 32.147 C 152.662 32.274,152.333 32.515,152.333 32.682 C 152.333 32.849,151.514 33.776,150.513 34.743 C 148.072 37.099,148.291 36.878,145.926 39.377 C 144.775 40.593,143.608 41.926,143.333 42.339 C 143.058 42.752,142.641 43.257,142.405 43.461 C 141.439 44.301,141.143 44.620,140.667 45.341 C 140.392 45.758,139.760 46.525,139.262 47.048 C 138.765 47.570,138.182 48.326,137.967 48.728 C 137.525 49.554,137.357 49.779,136.176 51.132 C 135.713 51.663,135.333 52.215,135.333 52.358 C 135.333 52.502,135.128 52.825,134.877 53.076 C 134.625 53.327,134.179 53.999,133.884 54.568 C 133.590 55.138,133.138 55.815,132.880 56.073 C 132.622 56.331,132.098 57.154,131.716 57.903 C 131.334 58.651,130.816 59.470,130.564 59.721 C 129.595 60.690,120.623 77.753,118.499 82.667 C 115.657 89.241,115.534 89.533,114.835 91.333 C 114.515 92.158,114.137 93.133,113.994 93.500 C 113.851 93.867,113.554 94.692,113.333 95.333 C 113.113 95.975,112.813 96.800,112.667 97.167 C 112.520 97.533,112.220 98.358,112.000 99.000 C 111.780 99.642,111.480 100.467,111.335 100.833 C 109.919 104.403,105.346 120.043,104.172 125.333 C 100.841 140.342,99.118 149.893,98.010 159.500 C 94.137 193.085,94.626 221.285,99.658 254.667 C 100.882 262.784,104.336 278.981,106.180 285.250 C 106.652 286.854,107.413 289.517,107.871 291.167 C 108.328 292.817,108.832 294.467,108.991 294.833 C 109.149 295.200,109.660 296.700,110.124 298.167 C 110.589 299.633,111.560 302.483,112.283 304.500 C 113.005 306.517,114.000 309.292,114.493 310.667 C 114.986 312.042,115.699 313.842,116.076 314.667 C 116.454 315.492,116.939 316.617,117.154 317.167 C 117.810 318.846,119.298 322.033,120.683 324.723 C 121.408 326.129,122.000 327.422,122.000 327.597 C 122.000 327.979,129.291 341.425,129.629 341.665 C 129.759 341.758,130.295 342.583,130.820 343.500 C 131.346 344.417,131.875 345.242,131.996 345.333 C 132.117 345.425,132.570 346.137,133.003 346.917 C 133.435 347.696,133.888 348.333,134.008 348.333 C 134.128 348.333,134.400 348.714,134.612 349.179 C 134.996 350.023,135.335 350.497,136.391 351.665 C 136.698 352.005,137.131 352.622,137.353 353.037 C 137.782 353.839,137.934 354.034,139.500 355.791 C 140.050 356.409,140.725 357.247,141.000 357.653 C 142.592 360.009,153.049 371.000,153.697 371.000 C 153.893 371.000,154.629 371.600,155.333 372.333 C 156.038 373.067,156.707 373.667,156.821 373.667 C 157.019 373.667,157.476 374.009,158.488 374.917 C 158.743 375.146,159.080 375.333,159.236 375.333 C 159.392 375.333,159.736 375.633,160.000 376.000 C 160.264 376.367,160.672 376.667,160.907 376.667 C 161.141 376.667,161.333 376.817,161.333 377.000 C 161.333 377.183,161.558 377.333,161.833 377.333 C 162.108 377.333,162.333 377.480,162.333 377.660 C 162.333 377.840,162.708 378.081,163.167 378.196 C 163.625 378.311,164.000 378.539,164.000 378.703 C 164.000 378.866,164.225 379.000,164.500 379.000 C 164.775 379.000,165.000 379.150,165.000 379.333 C 165.000 379.517,165.225 379.667,165.500 379.667 C 165.775 379.667,166.000 379.817,166.000 380.000 C 166.000 380.183,166.225 380.333,166.500 380.333 C 166.775 380.333,167.000 380.483,167.000 380.667 C 167.000 380.850,167.225 381.000,167.500 381.000 C 167.775 381.000,168.000 381.143,168.000 381.318 C 168.000 381.493,168.525 381.735,169.167 381.855 C 169.808 381.976,170.333 382.208,170.333 382.370 C 170.333 382.533,170.558 382.667,170.833 382.667 C 171.108 382.667,171.333 382.817,171.333 383.000 C 171.333 383.183,171.633 383.333,172.000 383.333 C 172.367 383.333,172.667 383.483,172.667 383.667 C 172.667 383.850,173.042 384.000,173.500 384.000 C 173.958 384.000,174.333 384.150,174.333 384.333 C 174.333 384.517,174.633 384.667,175.000 384.667 C 175.367 384.667,175.667 384.807,175.667 384.979 C 175.667 385.151,175.104 385.215,174.417 385.122 C 70.247 370.980,-1.168 274.137,16.184 170.547 C 29.244 92.578,89.904 32.288,169.000 18.663 C 175.584 17.529,175.000 17.593,175.000 18.000 M230.659 19.048 C 298.170 30.235,356.211 81.483,375.953 147.338 C 407.998 254.230,340.974 363.828,231.333 383.825 C 224.587 385.055,218.717 385.828,218.415 385.526 C 218.309 385.420,218.547 385.333,218.944 385.333 C 219.342 385.333,219.667 385.183,219.667 385.000 C 219.667 384.817,220.042 384.667,220.500 384.667 C 220.958 384.667,221.333 384.517,221.333 384.333 C 221.333 384.150,221.633 384.000,222.000 384.000 C 222.367 384.000,222.667 383.850,222.667 383.667 C 222.667 383.483,222.892 383.333,223.167 383.333 C 223.442 383.333,223.667 383.183,223.667 383.000 C 223.667 382.817,223.967 382.667,224.333 382.667 C 224.700 382.667,225.000 382.533,225.000 382.370 C 225.000 382.208,225.525 381.976,226.167 381.855 C 226.808 381.735,227.333 381.493,227.333 381.318 C 227.333 381.143,227.558 381.000,227.833 381.000 C 228.108 381.000,228.333 380.850,228.333 380.667 C 228.333 380.483,228.558 380.333,228.833 380.333 C 229.108 380.333,229.333 380.183,229.333 380.000 C 229.333 379.817,229.558 379.667,229.833 379.667 C 230.108 379.667,230.333 379.517,230.333 379.333 C 230.333 379.150,230.558 379.000,230.833 379.000 C 231.108 379.000,231.333 378.862,231.333 378.693 C 231.333 378.524,231.783 378.287,232.333 378.167 C 232.883 378.046,233.333 377.809,233.333 377.640 C 233.333 377.471,233.525 377.333,233.760 377.333 C 233.994 377.333,234.402 377.033,234.667 376.667 C 234.931 376.300,235.284 376.000,235.451 376.000 C 235.618 376.000,235.998 375.721,236.294 375.381 C 236.591 375.041,237.171 374.655,237.583 374.525 C 237.996 374.395,238.333 374.149,238.333 373.978 C 238.333 373.807,238.487 373.667,238.674 373.667 C 238.862 373.667,239.688 373.029,240.510 372.250 C 242.055 370.786,248.858 364.040,249.567 363.269 C 249.788 363.029,250.163 362.655,250.401 362.437 C 250.639 362.220,251.208 361.579,251.667 361.015 C 252.125 360.450,252.950 359.485,253.500 358.871 C 254.050 358.256,254.725 357.420,255.000 357.013 C 255.275 356.606,255.987 355.751,256.583 355.113 C 257.179 354.475,257.667 353.818,257.667 353.654 C 257.667 353.490,258.114 352.899,258.661 352.339 C 259.208 351.780,259.904 350.837,260.208 350.244 C 260.511 349.652,260.859 349.092,260.981 349.000 C 261.102 348.908,261.561 348.233,262.000 347.500 C 262.439 346.767,262.888 346.092,262.998 346.000 C 263.109 345.908,263.628 345.083,264.154 344.167 C 264.679 343.250,265.216 342.425,265.346 342.333 C 266.005 341.870,274.588 325.449,276.672 320.667 C 279.589 313.969,279.767 313.552,280.498 311.667 C 280.818 310.842,281.197 309.867,281.340 309.500 C 281.482 309.133,281.780 308.308,282.000 307.667 C 282.220 307.025,282.520 306.200,282.667 305.833 C 282.813 305.467,283.113 304.642,283.333 304.000 C 283.554 303.358,283.863 302.533,284.020 302.167 C 284.442 301.182,287.155 292.671,288.270 288.833 C 290.267 281.962,291.812 275.455,293.811 265.500 C 302.826 220.610,301.921 170.440,291.283 125.333 C 290.413 121.644,288.415 114.200,287.839 112.500 C 287.591 111.767,286.989 109.817,286.502 108.167 C 286.015 106.517,285.488 104.867,285.329 104.500 C 285.171 104.133,284.947 103.458,284.832 103.000 C 284.716 102.542,284.331 101.379,283.977 100.417 C 283.623 99.454,283.033 97.842,282.667 96.833 C 282.300 95.825,281.685 94.137,281.301 93.083 C 279.782 88.918,277.889 84.439,276.454 81.618 C 276.021 80.766,275.667 79.905,275.667 79.705 C 275.667 79.506,274.992 78.122,274.167 76.631 C 273.342 75.139,272.667 73.766,272.667 73.578 C 272.667 73.110,267.331 63.247,266.854 62.833 C 266.643 62.650,265.897 61.450,265.197 60.167 C 264.498 58.883,263.813 57.758,263.676 57.667 C 263.539 57.575,263.177 57.012,262.871 56.417 C 262.566 55.821,262.188 55.333,262.032 55.333 C 261.875 55.333,261.563 54.887,261.337 54.342 C 261.111 53.796,260.680 53.045,260.380 52.672 C 260.079 52.299,259.533 51.613,259.167 51.147 C 258.800 50.681,258.237 49.984,257.917 49.599 C 257.596 49.213,257.333 48.792,257.333 48.662 C 257.333 48.533,256.846 47.900,256.250 47.256 C 255.654 46.613,254.942 45.753,254.667 45.347 C 253.657 43.853,249.447 39.237,245.592 35.396 C 241.821 31.638,240.770 30.667,240.479 30.667 C 240.363 30.667,239.847 30.217,239.333 29.667 C 238.820 29.117,238.241 28.667,238.048 28.667 C 237.855 28.667,237.322 28.292,236.864 27.833 C 236.405 27.375,235.907 27.000,235.755 27.000 C 235.604 27.000,235.264 26.700,235.000 26.333 C 234.736 25.967,234.328 25.667,234.093 25.667 C 233.859 25.667,233.667 25.529,233.667 25.360 C 233.667 25.191,233.246 24.961,232.731 24.848 C 232.217 24.735,231.584 24.348,231.324 23.988 C 231.065 23.628,230.661 23.333,230.426 23.333 C 230.192 23.333,230.000 23.183,230.000 23.000 C 230.000 22.817,229.775 22.667,229.500 22.667 C 229.225 22.667,229.000 22.517,229.000 22.333 C 229.000 22.150,228.775 22.000,228.500 22.000 C 228.225 22.000,228.000 21.867,228.000 21.704 C 228.000 21.541,227.475 21.309,226.833 21.189 C 226.192 21.068,225.667 20.827,225.667 20.652 C 225.667 20.477,225.442 20.333,225.167 20.333 C 224.892 20.333,224.667 20.183,224.667 20.000 C 224.667 19.817,224.367 19.667,224.000 19.667 C 223.633 19.667,223.333 19.517,223.333 19.333 C 223.333 19.150,223.033 19.000,222.667 19.000 C 222.300 19.000,222.000 18.850,222.000 18.667 C 222.000 18.483,221.625 18.333,221.167 18.333 C 220.708 18.333,220.333 18.164,220.333 17.957 C 220.333 17.473,222.607 17.714,230.659 19.048 " stroke="none" fill="#040404" fill-rule="evenodd"></path><path id="path2" d="" stroke="none" fill="#848484" fill-rule="evenodd"></path><path id="path3" d="" stroke="none" fill="#7c7c7c" fill-rule="evenodd"></path><path id="path4" d="" stroke="none" fill="#747474" fill-rule="evenodd"></path></g></svg>