<svg id="svg" version="1.1" xmlns="http://www.w3.org/2000/svg" xmlns:xlink="http://www.w3.org/1999/xlink" width="400" height="400" viewBox="0, 0, 400,400"><g id="svgg"><path id="path0" d="M187.333 16.651 C 185.014 16.833,184.924 16.868,186.083 17.128 C 186.771 17.282,187.333 17.566,187.333 17.759 C 187.333 17.953,187.432 18.012,187.553 17.892 C 187.673 17.771,187.936 17.802,188.136 17.961 C 188.336 18.119,189.475 18.589,190.667 19.005 C 191.858 19.420,192.925 19.902,193.037 20.075 C 193.149 20.248,193.335 20.382,193.450 20.372 C 193.564 20.362,194.298 20.626,195.079 20.960 C 195.861 21.294,197.063 21.770,197.750 22.017 C 198.438 22.265,199.000 22.596,199.000 22.753 C 199.000 22.911,199.140 22.953,199.310 22.848 C 199.481 22.742,199.712 22.804,199.824 22.986 C 199.937 23.167,200.584 23.575,201.264 23.893 C 201.944 24.210,203.280 24.964,204.234 25.568 C 205.188 26.172,206.074 26.667,206.203 26.667 C 206.332 26.667,206.901 27.008,207.469 27.425 C 208.036 27.843,209.073 28.480,209.772 28.842 C 210.472 29.204,211.297 29.727,211.606 30.005 C 211.914 30.283,212.992 31.031,214.000 31.666 C 215.008 32.302,216.207 33.162,216.663 33.578 C 217.120 33.993,217.597 34.333,217.723 34.333 C 217.849 34.333,218.151 34.526,218.393 34.762 C 218.635 34.998,219.433 35.630,220.167 36.166 C 220.900 36.703,221.742 37.372,222.039 37.654 C 222.335 37.936,222.917 38.392,223.332 38.667 C 223.747 38.942,224.581 39.617,225.187 40.167 C 226.483 41.344,231.906 46.339,232.454 46.860 C 233.263 47.628,240.654 55.569,241.714 56.808 C 242.330 57.528,243.296 58.653,243.861 59.308 C 245.989 61.776,254.541 73.571,256.166 76.279 C 256.349 76.584,256.836 77.311,257.249 77.894 C 257.662 78.478,258.000 79.038,258.000 79.138 C 258.000 79.238,258.559 80.186,259.242 81.244 C 259.925 82.301,260.491 83.242,260.500 83.333 C 260.510 83.425,260.754 83.875,261.044 84.333 C 262.857 87.201,267.187 95.661,269.490 100.833 C 269.980 101.933,270.649 103.433,270.977 104.167 C 271.305 104.900,271.919 106.400,272.341 107.500 C 272.764 108.600,273.218 109.650,273.352 109.833 C 273.486 110.017,273.972 111.217,274.433 112.500 C 274.893 113.783,275.745 116.108,276.326 117.667 C 278.797 124.299,283.480 140.133,283.819 143.000 C 283.851 143.275,284.341 145.525,284.908 148.000 C 286.982 157.061,288.288 165.780,289.653 179.667 C 290.883 192.190,290.170 220.795,288.334 232.500 C 288.162 233.600,287.934 235.475,287.828 236.667 C 287.722 237.858,287.499 239.358,287.332 240.000 C 287.166 240.642,286.713 243.042,286.326 245.333 C 285.939 247.625,285.240 251.075,284.772 253.000 C 284.305 254.925,283.925 256.725,283.928 257.000 C 283.942 258.089,280.524 270.440,279.085 274.500 C 278.631 275.783,278.230 277.075,278.195 277.371 C 278.127 277.939,276.568 282.202,274.958 286.227 C 274.431 287.543,274.000 288.787,274.000 288.991 C 274.000 289.194,273.550 290.324,273.000 291.500 C 272.450 292.676,272.000 293.774,272.000 293.940 C 272.000 294.428,266.902 305.523,265.999 307.000 C 265.831 307.275,265.280 308.325,264.775 309.333 C 263.872 311.133,262.067 314.355,261.039 316.000 C 260.753 316.458,260.547 316.931,260.582 317.051 C 260.617 317.171,260.425 317.452,260.156 317.676 C 259.887 317.899,259.667 318.219,259.667 318.388 C 259.667 318.556,259.390 319.100,259.052 319.597 C 258.714 320.094,258.061 321.100,257.602 321.833 C 257.142 322.567,255.881 324.517,254.800 326.167 C 253.718 327.817,252.772 329.313,252.697 329.492 C 252.486 329.997,247.969 336.125,247.532 336.500 C 247.318 336.683,246.399 337.808,245.488 339.000 C 244.578 340.191,243.608 341.404,243.333 341.695 C 243.058 341.985,242.267 342.902,241.576 343.732 C 238.044 347.969,231.580 354.609,227.521 358.167 C 224.441 360.866,224.174 361.090,223.335 361.667 C 222.935 361.942,222.227 362.515,221.762 362.940 C 221.296 363.365,220.335 364.098,219.624 364.568 C 218.914 365.037,218.333 365.542,218.333 365.688 C 218.333 365.835,218.071 366.039,217.750 366.142 C 217.429 366.245,216.717 366.723,216.167 367.204 C 215.617 367.684,214.567 368.458,213.833 368.922 C 213.100 369.386,212.425 369.858,212.333 369.970 C 211.995 370.382,209.467 371.913,208.746 372.142 C 208.336 372.272,208.000 372.493,208.000 372.634 C 208.000 372.774,207.137 373.327,206.083 373.861 C 205.029 374.396,204.087 374.939,203.990 375.068 C 203.892 375.198,202.958 375.695,201.913 376.173 C 200.868 376.652,199.925 377.186,199.817 377.360 C 199.709 377.535,199.481 377.591,199.310 377.486 C 199.140 377.380,199.000 377.453,199.000 377.647 C 199.000 377.841,198.864 378.000,198.698 378.000 C 198.531 378.000,197.444 378.427,196.281 378.949 C 195.118 379.470,194.033 379.908,193.871 379.920 C 193.708 379.933,193.483 380.080,193.371 380.247 C 193.258 380.414,192.117 380.912,190.833 381.352 C 189.550 381.793,188.390 382.307,188.255 382.494 C 188.120 382.680,188.008 382.702,188.005 382.543 C 188.002 382.383,187.812 382.406,187.583 382.594 C 187.057 383.026,182.051 384.667,181.259 384.667 C 180.933 384.667,180.667 384.834,180.667 385.039 C 180.667 385.247,180.373 385.334,180.000 385.237 C 179.633 385.141,179.333 385.185,179.333 385.335 C 179.333 386.027,188.421 386.668,198.132 386.662 C 331.900 386.572,421.358 251.052,368.808 128.104 C 338.404 56.969,263.037 10.683,187.333 16.651 " stroke="none" fill="#fbfbfb" fill-rule="evenodd"></path><path id="path1" d="M9.624 11.218 C 8.938 12.044,8.938 388.622,9.624 389.449 C 10.311 390.277,387.315 390.304,388.143 389.476 C 388.946 388.673,388.946 11.994,388.143 11.190 C 387.315 10.363,10.311 10.390,9.624 11.218 M213.167 16.836 C 309.644 25.332,381.875 102.116,383.902 198.333 C 385.975 296.718,309.468 379.824,210.833 386.327 C 201.274 386.957,186.336 386.663,179.833 385.716 L 178.167 385.474 180.494 384.881 C 181.773 384.554,183.004 384.135,183.229 383.948 C 183.454 383.762,183.781 383.698,183.957 383.807 C 184.133 383.915,184.327 383.888,184.388 383.747 C 184.450 383.605,185.775 383.053,187.333 382.520 C 188.892 381.987,190.242 381.448,190.333 381.324 C 190.425 381.199,191.100 380.909,191.833 380.680 C 193.234 380.242,205.698 374.120,205.995 373.724 C 206.089 373.598,206.992 373.058,208.000 372.524 C 209.008 371.990,209.908 371.451,210.000 371.326 C 210.092 371.202,210.833 370.682,211.648 370.172 C 214.086 368.644,220.106 364.124,223.438 361.320 C 223.656 361.137,224.208 360.688,224.667 360.322 C 229.219 356.689,236.950 348.964,241.833 343.171 C 242.567 342.301,243.405 341.344,243.696 341.045 C 243.987 340.745,244.887 339.600,245.696 338.501 C 246.505 337.402,247.411 336.277,247.710 336.001 C 248.468 335.302,251.458 331.125,254.034 327.167 C 256.702 323.067,257.436 321.880,259.635 318.112 C 260.259 317.042,260.995 315.904,261.270 315.583 C 261.545 315.262,261.653 315.000,261.511 315.000 C 261.368 315.000,261.452 314.759,261.696 314.464 C 262.267 313.777,262.879 312.721,263.319 311.667 C 263.510 311.208,263.811 310.608,263.989 310.333 C 264.399 309.699,269.363 299.663,270.255 297.667 C 271.864 294.063,274.993 286.209,275.167 285.333 C 275.222 285.058,275.650 283.858,276.119 282.667 C 277.653 278.768,281.000 268.621,281.000 267.869 C 281.000 267.626,281.368 266.267,281.817 264.851 C 282.267 263.434,282.719 261.744,282.822 261.095 C 282.925 260.446,283.395 258.397,283.866 256.541 C 284.337 254.685,284.792 252.567,284.878 251.833 C 284.964 251.100,285.317 249.300,285.663 247.833 C 286.314 245.070,286.579 243.659,286.821 241.667 C 286.898 241.025,287.341 238.175,287.805 235.333 C 288.268 232.492,288.720 228.892,288.808 227.333 C 288.896 225.775,289.227 221.800,289.543 218.500 C 290.368 209.871,290.372 190.036,289.550 182.000 C 289.221 178.792,288.882 174.892,288.795 173.333 C 288.708 171.775,288.258 168.100,287.794 165.167 C 287.329 162.233,286.818 158.858,286.658 157.667 C 286.360 155.456,285.520 151.235,285.199 150.333 C 285.101 150.058,284.951 149.207,284.865 148.441 C 284.343 143.765,278.310 122.671,275.830 116.852 C 275.522 116.128,275.224 115.303,275.168 115.018 C 274.959 113.959,272.002 106.739,270.297 103.126 C 269.767 102.003,269.333 100.982,269.333 100.857 C 269.333 100.732,267.894 97.751,266.135 94.232 C 263.018 87.994,262.516 87.033,261.838 86.000 C 261.658 85.725,261.498 85.425,261.483 85.333 C 261.446 85.102,260.413 83.359,258.833 80.859 C 258.100 79.699,257.125 78.123,256.667 77.358 C 256.208 76.592,255.346 75.308,254.750 74.503 C 254.154 73.698,253.667 72.939,253.667 72.816 C 253.667 72.551,244.871 60.670,243.469 59.041 C 238.518 53.289,233.156 47.716,228.298 43.275 C 226.759 41.868,225.125 40.410,224.667 40.035 C 224.208 39.660,223.608 39.150,223.333 38.902 C 223.058 38.654,222.241 38.012,221.517 37.475 C 220.794 36.939,219.839 36.167,219.397 35.761 C 218.954 35.354,218.309 34.931,217.963 34.822 C 217.617 34.712,217.333 34.495,217.333 34.339 C 217.333 34.184,216.546 33.575,215.583 32.985 C 214.621 32.395,213.758 31.815,213.667 31.695 C 213.575 31.576,212.675 30.963,211.667 30.333 C 210.658 29.704,209.758 29.097,209.667 28.985 C 209.575 28.873,208.675 28.343,207.667 27.807 C 206.658 27.272,205.646 26.657,205.417 26.441 C 205.189 26.226,204.185 25.663,203.187 25.191 C 202.189 24.718,201.290 24.200,201.191 24.039 C 201.091 23.878,199.995 23.320,198.755 22.801 C 197.515 22.281,196.408 21.725,196.296 21.566 C 196.184 21.407,195.998 21.285,195.884 21.295 C 195.769 21.305,195.036 21.040,194.254 20.706 C 193.473 20.373,192.233 19.890,191.500 19.635 C 190.767 19.379,190.092 19.075,190.000 18.959 C 189.908 18.843,188.558 18.317,187.000 17.790 L 184.167 16.833 187.000 16.645 C 193.146 16.238,207.568 16.343,213.167 16.836 " stroke="none" fill="#040404" fill-rule="evenodd"></path><path id="path2" d="M288.672 173.694 C 288.675 174.321,288.814 175.051,288.982 175.316 C 289.180 175.628,289.221 175.275,289.098 174.316 C 288.862 172.475,288.665 172.187,288.672 173.694 M288.751 227.167 C 288.754 227.900,288.823 228.161,288.902 227.746 C 288.982 227.331,288.979 226.731,288.896 226.413 C 288.812 226.094,288.747 226.433,288.751 227.167 " stroke="none" fill="#575757" fill-rule="evenodd"></path><path id="path3" d="M287.744 164.333 C 287.744 164.975,287.813 165.237,287.896 164.917 C 287.980 164.596,287.980 164.071,287.896 163.750 C 287.813 163.429,287.744 163.692,287.744 164.333 M289.433 179.667 C 289.433 180.675,289.496 181.088,289.572 180.583 C 289.648 180.079,289.648 179.254,289.572 178.750 C 289.496 178.246,289.433 178.658,289.433 179.667 M289.770 183.500 C 289.772 184.600,289.834 185.010,289.908 184.411 C 289.982 183.812,289.981 182.912,289.905 182.411 C 289.829 181.910,289.768 182.400,289.770 183.500 M289.770 216.833 C 289.772 217.933,289.834 218.343,289.908 217.744 C 289.982 217.145,289.981 216.245,289.905 215.744 C 289.829 215.243,289.768 215.733,289.770 216.833 M289.437 220.833 C 289.438 221.933,289.501 222.343,289.575 221.744 C 289.649 221.145,289.648 220.245,289.572 219.744 C 289.495 219.243,289.435 219.733,289.437 220.833 " stroke="none" fill="#8c8c8c" fill-rule="evenodd"></path><path id="path4" d="M289.084 176.833 C 289.088 177.567,289.156 177.827,289.236 177.413 C 289.315 176.998,289.312 176.398,289.229 176.079 C 289.146 175.761,289.080 176.100,289.084 176.833 M289.084 224.167 C 289.088 224.900,289.156 225.161,289.236 224.746 C 289.315 224.331,289.312 223.731,289.229 223.413 C 289.146 223.094,289.080 223.433,289.084 224.167 " stroke="none" fill="#747474" fill-rule="evenodd"></path></g></svg>