<svg id="svg" version="1.1" xmlns="http://www.w3.org/2000/svg" xmlns:xlink="http://www.w3.org/1999/xlink" width="400" height="400" viewBox="0, 0, 400,400"><g id="svgg"><path id="path0" d="M186.000 16.703 C 122.105 21.272,64.562 58.622,35.284 114.528 C 32.992 118.906,32.103 121.408,34.041 118.029 C 34.610 117.036,35.215 116.061,35.384 115.862 C 35.553 115.663,36.481 114.291,37.446 112.814 C 39.115 110.257,41.278 107.251,44.625 102.833 C 45.459 101.733,46.225 100.758,46.329 100.667 C 46.433 100.575,47.030 99.825,47.657 99.000 C 48.284 98.175,49.030 97.258,49.315 96.961 C 49.600 96.665,50.733 95.390,51.833 94.128 C 54.325 91.269,66.421 79.248,68.000 78.061 C 68.642 77.579,70.582 75.980,72.313 74.509 C 74.043 73.037,75.707 71.683,76.010 71.500 C 76.962 70.925,79.261 69.239,81.806 67.250 C 83.155 66.196,84.368 65.333,84.501 65.333 C 84.635 65.333,85.459 64.808,86.333 64.167 C 87.207 63.525,88.029 63.000,88.159 63.000 C 88.290 63.000,89.643 62.100,91.167 61.000 C 92.690 59.900,94.066 59.000,94.223 59.000 C 94.380 59.000,95.288 58.475,96.241 57.833 C 97.194 57.192,98.116 56.667,98.289 56.667 C 98.463 56.667,100.120 55.767,101.973 54.667 C 103.825 53.567,105.495 52.667,105.682 52.667 C 105.869 52.667,107.030 52.156,108.261 51.532 C 113.211 49.022,124.472 43.991,125.126 43.997 C 125.287 43.999,127.562 43.175,130.181 42.167 C 132.801 41.158,135.227 40.333,135.573 40.333 C 135.919 40.333,137.769 39.799,139.685 39.146 C 141.600 38.494,143.842 37.835,144.667 37.683 C 145.492 37.530,149.167 36.651,152.833 35.728 C 156.500 34.804,160.625 33.897,162.000 33.712 C 163.375 33.526,167.575 32.916,171.333 32.355 C 175.092 31.794,179.367 31.324,180.833 31.310 C 182.300 31.296,184.150 31.183,184.944 31.059 L 186.389 30.833 187.528 27.884 C 188.995 24.085,190.981 20.292,192.660 18.083 L 193.990 16.333 191.912 16.381 C 190.769 16.407,188.108 16.552,186.000 16.703 M207.121 16.588 C 207.206 16.723,208.088 18.053,209.081 19.543 C 210.173 21.180,211.592 24.030,212.668 26.745 L 214.449 31.238 218.641 31.438 C 220.947 31.547,225.533 32.106,228.833 32.679 C 232.133 33.251,235.905 33.860,237.215 34.032 C 238.525 34.203,242.275 35.033,245.549 35.876 C 248.822 36.719,252.209 37.532,253.075 37.683 C 253.941 37.834,256.214 38.492,258.126 39.145 C 260.039 39.799,261.844 40.333,262.138 40.333 C 262.432 40.333,264.729 41.158,267.241 42.167 C 269.754 43.175,271.995 44.000,272.222 44.000 C 272.449 44.000,273.828 44.525,275.288 45.167 C 276.747 45.808,278.105 46.333,278.306 46.333 C 278.671 46.333,284.109 48.859,290.667 52.074 C 292.592 53.018,295.213 54.437,296.491 55.228 C 297.770 56.019,298.940 56.667,299.091 56.667 C 299.242 56.667,300.186 57.192,301.189 57.833 C 302.192 58.475,303.134 59.000,303.283 59.000 C 303.431 59.000,304.842 59.900,306.419 61.000 C 307.995 62.100,309.389 63.000,309.515 63.000 C 309.641 63.000,310.459 63.525,311.333 64.167 C 312.207 64.808,313.041 65.333,313.186 65.333 C 313.331 65.333,314.546 66.233,315.886 67.333 C 317.226 68.433,318.392 69.333,318.477 69.333 C 318.769 69.333,323.169 72.735,324.500 73.990 C 325.233 74.682,326.083 75.379,326.387 75.541 C 329.601 77.239,344.470 92.293,351.167 100.628 C 352.083 101.769,353.133 103.052,353.500 103.479 C 355.536 105.849,362.159 115.570,364.094 119.029 C 365.394 121.353,364.947 119.548,363.518 116.703 C 335.364 60.644,274.121 20.154,212.460 16.831 C 210.465 16.724,208.413 16.570,207.900 16.490 C 207.387 16.409,207.036 16.454,207.121 16.588 M188.390 35.917 C 188.019 37.154,187.174 40.192,186.512 42.667 C 185.850 45.142,185.241 47.392,185.159 47.667 C 185.027 48.106,186.866 48.169,200.273 48.185 L 215.538 48.203 214.312 43.518 C 213.638 40.942,212.793 37.783,212.433 36.500 L 211.780 34.167 209.473 33.958 C 208.205 33.843,203.094 33.731,198.116 33.708 L 189.065 33.667 188.390 35.917 M177.167 52.019 C 175.150 52.159,172.000 52.522,170.167 52.825 C 168.333 53.128,165.618 53.505,164.133 53.663 C 162.647 53.820,159.347 54.418,156.799 54.992 C 146.124 57.397,140.016 58.985,135.333 60.573 C 133.958 61.039,132.083 61.626,131.167 61.876 C 130.250 62.126,128.300 62.803,126.833 63.381 C 125.367 63.959,123.342 64.724,122.333 65.083 C 121.325 65.441,119.410 66.244,118.078 66.867 C 116.746 67.490,115.519 68.000,115.353 68.000 C 114.765 68.000,103.531 73.454,98.833 76.019 C 97.733 76.620,96.383 77.352,95.833 77.646 C 95.283 77.940,94.131 78.665,93.273 79.257 C 92.415 79.849,91.615 80.333,91.494 80.333 C 91.374 80.333,90.651 80.759,89.888 81.280 C 88.085 82.509,85.744 84.051,85.018 84.488 C 83.280 85.534,80.746 87.335,80.361 87.800 C 80.118 88.093,79.795 88.333,79.643 88.333 C 79.318 88.333,74.738 91.733,71.559 94.333 C 65.434 99.344,55.837 108.509,51.490 113.500 C 50.212 114.967,49.086 116.242,48.987 116.333 C 48.888 116.425,48.063 117.469,47.154 118.653 C 45.165 121.242,44.606 121.954,44.167 122.454 C 43.109 123.658,37.333 131.761,37.333 132.040 C 37.333 132.175,37.142 132.484,36.909 132.726 C 35.130 134.572,24.333 154.958,24.333 156.472 C 24.333 156.568,23.960 157.464,23.503 158.462 C 20.019 166.080,14.912 186.213,14.912 192.333 C 14.912 198.453,20.019 218.587,23.503 226.205 C 23.960 227.203,24.333 228.099,24.333 228.195 C 24.333 229.709,35.130 250.095,36.909 251.940 C 37.142 252.183,37.333 252.491,37.333 252.626 C 37.333 252.997,43.576 261.629,45.167 263.458 C 45.350 263.668,46.244 264.814,47.154 266.004 C 48.063 267.193,48.888 268.242,48.987 268.333 C 49.086 268.425,50.212 269.700,51.490 271.167 C 55.837 276.158,65.434 285.323,71.559 290.333 C 74.738 292.934,79.318 296.333,79.643 296.333 C 79.795 296.333,80.118 296.574,80.361 296.867 C 80.746 297.331,83.280 299.133,85.018 300.179 C 85.744 300.616,88.085 302.158,89.888 303.387 C 90.651 303.908,91.374 304.333,91.494 304.333 C 91.615 304.333,92.415 304.818,93.273 305.409 C 94.131 306.001,95.283 306.726,95.833 307.020 C 96.383 307.315,97.733 308.047,98.833 308.648 C 103.531 311.213,114.765 316.667,115.353 316.667 C 115.519 316.667,116.746 317.176,118.078 317.799 C 119.410 318.422,121.325 319.225,122.333 319.584 C 123.342 319.942,125.367 320.708,126.833 321.286 C 128.300 321.863,130.250 322.541,131.167 322.791 C 132.083 323.041,133.958 323.627,135.333 324.094 C 139.996 325.675,146.203 327.289,156.814 329.678 C 159.369 330.254,162.594 330.847,163.980 330.996 C 165.366 331.146,168.791 331.604,171.591 332.015 C 174.391 332.426,176.770 332.674,176.878 332.567 C 176.985 332.459,176.531 328.500,175.868 323.769 C 165.847 252.190,166.432 141.702,177.201 72.000 C 178.383 64.344,180.279 53.681,180.653 52.583 C 180.825 52.079,180.936 51.689,180.899 51.716 C 180.863 51.743,179.183 51.879,177.167 52.019 M220.008 52.583 C 220.013 52.904,220.159 53.787,220.334 54.545 C 220.950 57.208,222.987 69.923,224.147 78.333 C 233.658 147.319,233.298 254.703,223.325 323.483 C 222.608 328.424,222.079 332.523,222.148 332.592 C 222.217 332.661,224.574 332.331,227.387 331.858 C 230.199 331.386,232.935 330.999,233.466 330.999 C 234.303 331.000,237.122 330.422,247.333 328.159 C 252.333 327.051,258.504 325.395,261.833 324.269 C 262.933 323.897,264.583 323.362,265.500 323.081 C 266.417 322.799,268.442 322.087,270.000 321.498 C 272.724 320.468,273.725 320.105,276.083 319.294 C 276.679 319.089,278.257 318.414,279.589 317.794 C 280.921 317.174,282.147 316.667,282.314 316.667 C 282.606 316.667,290.479 313.023,291.833 312.261 C 292.200 312.054,293.550 311.332,294.833 310.655 C 296.117 309.979,298.067 308.936,299.167 308.338 C 300.267 307.740,301.692 306.980,302.333 306.650 C 302.975 306.319,304.017 305.662,304.648 305.191 C 305.280 304.719,305.930 304.333,306.094 304.333 C 306.257 304.333,307.016 303.908,307.779 303.387 C 309.740 302.050,311.972 300.585,312.665 300.179 C 312.989 299.989,314.190 299.158,315.333 298.333 C 316.477 297.508,317.704 296.665,318.061 296.459 C 318.417 296.253,319.120 295.690,319.623 295.209 C 320.125 294.727,320.660 294.333,320.811 294.333 C 321.113 294.333,320.950 294.466,329.500 287.252 C 335.324 282.339,340.579 277.289,344.560 272.781 C 345.627 271.573,346.735 270.340,347.023 270.042 C 347.852 269.183,351.417 264.913,352.333 263.681 C 352.792 263.065,353.317 262.397,353.500 262.197 C 353.942 261.715,355.660 259.422,356.520 258.168 C 356.897 257.617,357.726 256.417,358.363 255.500 C 360.643 252.216,364.710 245.588,366.704 241.906 C 374.416 227.666,380.005 211.308,382.305 196.250 C 384.020 185.023,375.393 157.097,364.649 139.094 C 363.050 136.415,359.467 130.757,358.363 129.167 C 357.726 128.250,356.897 127.049,356.520 126.499 C 355.660 125.245,353.942 122.952,353.500 122.469 C 353.317 122.269,352.792 121.601,352.333 120.985 C 351.417 119.753,347.852 115.483,347.023 114.625 C 346.735 114.327,345.627 113.094,344.560 111.886 C 340.579 107.377,335.324 102.328,329.500 97.414 C 320.950 90.201,321.113 90.333,320.811 90.333 C 320.660 90.333,320.125 89.939,319.623 89.458 C 319.120 88.977,318.417 88.414,318.061 88.208 C 317.704 88.002,316.477 87.158,315.333 86.333 C 314.190 85.508,312.989 84.678,312.665 84.488 C 311.972 84.082,309.740 82.616,307.779 81.280 C 307.016 80.759,306.257 80.333,306.094 80.333 C 305.930 80.333,305.280 79.947,304.648 79.476 C 304.017 79.004,302.975 78.348,302.333 78.017 C 301.692 77.686,300.267 76.927,299.167 76.329 C 298.067 75.731,296.117 74.688,294.833 74.011 C 293.550 73.335,292.200 72.612,291.833 72.406 C 290.479 71.644,282.606 68.000,282.314 68.000 C 282.147 68.000,280.921 67.493,279.589 66.873 C 278.257 66.253,276.642 65.563,276.000 65.341 C 273.245 64.387,272.692 64.187,270.000 63.169 C 268.442 62.580,266.417 61.868,265.500 61.586 C 264.583 61.305,262.933 60.770,261.833 60.398 C 258.504 59.271,252.333 57.616,247.333 56.508 C 237.103 54.240,234.299 53.667,233.442 53.667 C 232.897 53.667,230.238 53.292,227.533 52.833 C 221.532 51.817,219.997 51.766,220.008 52.583 M20.670 240.363 C 20.666 240.945,22.808 247.571,24.110 251.008 C 27.171 259.085,33.093 271.559,36.846 277.833 C 40.081 283.241,47.278 294.087,48.128 294.833 C 48.337 295.017,49.526 296.544,50.771 298.228 C 52.016 299.912,53.139 301.337,53.267 301.395 C 53.395 301.453,54.564 302.775,55.863 304.333 C 60.809 310.263,77.054 325.846,79.971 327.460 C 80.342 327.665,82.209 329.071,84.121 330.585 C 86.032 332.098,87.952 333.523,88.389 333.751 C 88.825 333.980,90.904 335.389,93.008 336.884 C 95.112 338.378,97.658 340.042,98.667 340.581 C 99.675 341.119,102.150 342.530,104.167 343.716 C 108.236 346.110,122.138 352.931,125.000 353.940 C 126.008 354.295,129.635 355.652,133.059 356.955 C 136.484 358.257,140.009 359.496,140.893 359.708 C 141.777 359.920,144.525 360.666,147.000 361.366 C 158.425 364.596,166.742 366.183,177.500 367.183 C 180.617 367.473,183.575 367.786,184.075 367.879 L 184.983 368.049 184.480 366.441 C 184.203 365.557,183.323 362.283,182.525 359.167 L 181.074 353.500 178.349 353.249 C 176.850 353.111,173.120 352.612,170.062 352.140 C 167.003 351.668,163.375 351.132,162.000 350.950 C 160.625 350.767,156.500 349.862,152.833 348.939 C 149.167 348.016,145.492 347.136,144.667 346.984 C 143.842 346.832,141.600 346.173,139.685 345.520 C 137.769 344.867,135.919 344.333,135.573 344.333 C 135.227 344.333,132.801 343.508,130.181 342.500 C 127.562 341.492,125.287 340.668,125.126 340.669 C 124.472 340.675,113.211 335.644,108.261 333.135 C 107.030 332.511,105.869 332.000,105.682 332.000 C 105.495 332.000,103.825 331.100,101.973 330.000 C 100.120 328.900,98.463 328.000,98.289 328.000 C 98.116 328.000,97.194 327.475,96.241 326.833 C 95.288 326.192,94.380 325.667,94.223 325.667 C 94.066 325.667,92.690 324.767,91.167 323.667 C 89.643 322.567,88.290 321.667,88.159 321.667 C 88.029 321.667,87.207 321.142,86.333 320.500 C 85.459 319.858,84.635 319.333,84.501 319.333 C 84.368 319.333,83.155 318.471,81.806 317.417 C 79.261 315.428,76.962 313.742,76.010 313.167 C 75.707 312.983,74.043 311.629,72.313 310.158 C 70.582 308.686,68.642 307.088,68.000 306.606 C 66.421 305.419,54.325 293.398,51.833 290.539 C 50.733 289.277,49.600 288.002,49.315 287.705 C 49.030 287.409,48.284 286.492,47.657 285.667 C 47.030 284.842,46.433 284.092,46.329 284.000 C 46.225 283.908,45.459 282.933,44.625 281.833 C 41.325 277.478,39.121 274.419,37.434 271.853 C 36.463 270.375,35.481 268.899,35.251 268.573 C 32.116 264.114,26.518 253.377,22.622 244.349 C 21.550 241.866,20.672 240.072,20.670 240.363 M375.191 243.893 C 372.153 251.256,367.125 260.912,362.639 268.000 C 361.537 269.742,360.230 271.814,359.734 272.604 C 357.388 276.349,352.281 282.887,346.333 289.760 C 341.160 295.739,328.547 307.985,326.387 309.126 C 326.083 309.287,325.233 309.985,324.500 310.676 C 323.169 311.931,318.769 315.333,318.477 315.333 C 318.392 315.333,317.226 316.233,315.886 317.333 C 314.546 318.433,313.331 319.333,313.186 319.333 C 313.041 319.333,312.207 319.858,311.333 320.500 C 310.459 321.142,309.641 321.667,309.515 321.667 C 309.389 321.667,307.995 322.567,306.419 323.667 C 304.842 324.767,303.431 325.667,303.283 325.667 C 303.134 325.667,302.192 326.192,301.189 326.833 C 300.186 327.475,299.242 328.000,299.091 328.000 C 298.940 328.000,297.770 328.647,296.491 329.438 C 295.213 330.230,292.592 331.649,290.667 332.593 C 284.109 335.808,278.671 338.333,278.306 338.333 C 278.105 338.333,276.747 338.858,275.288 339.500 C 273.828 340.142,272.449 340.667,272.222 340.667 C 271.995 340.667,269.754 341.492,267.241 342.500 C 264.729 343.508,262.432 344.333,262.138 344.333 C 261.844 344.333,260.039 344.868,258.126 345.521 C 256.214 346.175,253.941 346.833,253.075 346.984 C 252.209 347.134,248.822 347.947,245.549 348.790 C 242.275 349.634,238.525 350.463,237.215 350.633 C 235.905 350.803,232.581 351.334,229.828 351.813 C 227.076 352.293,223.264 352.868,221.357 353.092 L 217.891 353.500 216.653 358.333 C 215.973 360.992,215.112 364.179,214.740 365.417 L 214.065 367.667 214.782 367.673 C 215.177 367.676,217.975 367.440,221.000 367.148 C 230.674 366.214,235.363 365.266,254.000 360.477 C 257.382 359.608,262.721 357.754,267.989 355.620 C 270.642 354.546,273.009 353.667,273.250 353.667 C 274.170 353.667,290.038 345.763,294.333 343.166 C 296.808 341.669,299.113 340.343,299.456 340.218 C 299.798 340.093,301.973 338.682,304.289 337.082 C 306.605 335.482,308.909 333.946,309.409 333.670 C 310.646 332.985,317.430 327.692,320.735 324.833 C 322.219 323.550,324.198 321.880,325.133 321.123 C 328.005 318.797,338.372 308.348,341.129 305.000 C 342.563 303.258,343.915 301.683,344.133 301.500 C 344.351 301.317,345.489 299.892,346.662 298.333 C 347.834 296.775,349.071 295.200,349.409 294.833 C 351.164 292.934,357.857 282.838,361.011 277.333 C 362.698 274.388,366.333 267.647,366.333 267.462 C 366.333 267.392,367.019 265.946,367.858 264.250 C 370.674 258.554,377.231 241.193,376.919 240.258 C 376.863 240.090,376.086 241.725,375.191 243.893 M211.000 336.401 C 207.425 336.566,199.287 336.621,192.917 336.524 C 181.729 336.354,181.333 336.370,181.333 336.976 C 181.333 337.776,183.214 347.772,183.665 349.366 L 184.003 350.566 187.554 350.783 C 195.922 351.295,214.306 350.827,215.050 350.083 C 215.218 349.915,215.872 347.090,216.503 343.805 C 218.063 335.683,218.013 335.994,217.742 336.051 C 217.609 336.079,214.575 336.237,211.000 336.401 M199.083 371.583 C 194.088 371.635,190.000 371.757,190.000 371.855 C 190.000 371.952,190.752 373.626,191.672 375.575 C 196.939 386.742,201.476 386.949,206.818 376.264 C 209.113 371.674,209.254 371.286,208.583 371.411 C 208.354 371.454,204.079 371.531,199.083 371.583 " stroke="none" fill="#fbfbfb" fill-rule="evenodd"></path><path id="path1" d="M9.624 11.218 C 8.938 12.044,8.938 388.622,9.624 389.449 C 10.311 390.277,387.315 390.304,388.143 389.476 C 388.946 388.673,388.946 11.994,388.143 11.190 C 387.315 10.363,10.311 10.390,9.624 11.218 M192.783 17.917 C 191.399 19.725,188.467 25.533,187.311 28.757 L 186.529 30.935 184.015 31.149 C 179.939 31.497,170.794 32.664,166.717 33.357 C 164.636 33.711,162.467 34.000,161.897 34.000 C 161.327 34.000,158.529 34.534,155.680 35.186 C 152.831 35.838,149.825 36.516,149.000 36.692 C 147.433 37.026,140.558 39.066,133.167 41.389 C 126.086 43.615,113.596 48.897,105.167 53.230 C 100.260 55.753,97.805 57.102,96.538 57.974 C 95.718 58.538,94.910 59.000,94.744 59.000 C 94.578 59.000,93.604 59.600,92.580 60.333 C 91.556 61.067,90.606 61.667,90.469 61.667 C 90.333 61.667,89.212 62.403,87.978 63.304 C 86.744 64.204,85.381 65.124,84.950 65.348 C 84.519 65.572,83.541 66.260,82.777 66.877 C 82.013 67.495,81.284 68.000,81.156 68.000 C 81.029 68.000,79.779 68.892,78.379 69.982 C 76.979 71.073,75.184 72.460,74.389 73.066 C 73.595 73.671,72.082 74.954,71.026 75.917 C 69.970 76.879,68.956 77.667,68.773 77.667 C 68.589 77.667,65.207 80.854,61.257 84.750 C 53.663 92.238,49.454 96.833,45.605 101.833 C 45.182 102.383,44.653 103.058,44.431 103.333 C 44.209 103.608,43.265 104.883,42.333 106.167 C 41.402 107.450,40.424 108.761,40.160 109.079 C 39.896 109.398,39.279 110.294,38.788 111.072 C 38.297 111.849,37.732 112.657,37.531 112.866 C 37.331 113.076,36.192 114.836,35.000 116.777 C 32.203 121.332,31.844 121.298,34.151 116.697 C 61.948 61.273,120.828 21.707,182.500 17.010 C 185.067 16.815,187.767 16.608,188.500 16.550 C 189.233 16.493,190.770 16.420,191.914 16.389 L 193.996 16.333 192.783 17.917 M216.833 17.199 C 279.565 23.328,335.967 61.769,363.874 117.415 C 365.819 121.292,365.566 121.763,363.448 118.208 C 362.122 115.983,358.085 109.803,357.433 109.000 C 357.210 108.725,356.308 107.520,355.430 106.321 C 353.783 104.074,351.936 101.724,350.176 99.636 C 349.621 98.978,348.492 97.635,347.667 96.652 C 341.663 89.499,331.114 79.335,323.667 73.527 C 322.108 72.312,319.907 70.571,318.774 69.659 C 317.642 68.747,316.617 68.000,316.497 68.000 C 316.377 68.000,315.654 67.495,314.889 66.877 C 314.125 66.260,313.147 65.572,312.716 65.348 C 312.285 65.124,310.923 64.204,309.689 63.304 C 308.455 62.403,307.337 61.667,307.205 61.667 C 307.072 61.667,306.080 61.067,305.000 60.333 C 303.920 59.600,302.928 59.000,302.796 59.000 C 302.664 59.000,301.493 58.341,300.195 57.536 C 298.207 56.304,294.189 54.080,292.058 53.033 C 291.751 52.882,290.450 52.222,289.167 51.566 C 284.659 49.261,280.815 47.516,278.167 46.573 C 277.617 46.377,275.420 45.488,273.286 44.599 C 271.152 43.709,268.677 42.777,267.786 42.528 C 266.895 42.279,264.892 41.621,263.333 41.066 C 260.154 39.933,250.963 37.202,248.667 36.707 C 236.817 34.151,227.723 32.602,219.245 31.694 L 214.324 31.167 212.531 26.747 C 210.950 22.847,209.202 19.522,207.439 17.057 L 206.884 16.282 209.359 16.496 C 210.720 16.614,214.083 16.930,216.833 17.199 M212.072 34.833 C 212.983 38.016,215.630 48.481,215.545 48.566 C 215.489 48.622,213.057 48.500,210.139 48.295 C 207.152 48.086,200.497 47.987,194.913 48.069 C 186.010 48.199,185.009 48.160,185.148 47.690 C 185.232 47.402,185.678 45.667,186.137 43.833 C 186.893 40.814,188.464 35.133,188.834 34.079 C 188.951 33.749,191.437 33.677,200.384 33.746 L 211.786 33.833 212.072 34.833 M180.479 53.503 C 179.690 56.852,176.391 77.095,175.509 84.000 C 167.755 144.690,166.552 229.245,172.519 294.000 C 173.907 309.057,176.497 330.303,177.187 332.296 C 177.643 333.611,159.141 330.817,148.333 327.939 C 146.225 327.377,143.891 326.814,143.147 326.688 C 142.403 326.562,140.153 325.914,138.147 325.249 C 136.141 324.584,133.375 323.708,132.000 323.303 C 128.125 322.161,121.905 319.768,116.408 317.305 C 115.624 316.954,114.829 316.667,114.642 316.667 C 114.332 316.667,102.740 311.140,101.167 310.243 C 100.800 310.033,99.684 309.433,98.686 308.908 C 97.688 308.384,96.488 307.682,96.019 307.350 C 95.550 307.017,94.604 306.427,93.917 306.039 C 93.229 305.651,92.116 305.022,91.444 304.641 C 90.771 304.260,89.759 303.622,89.194 303.223 C 88.629 302.825,87.920 302.349,87.619 302.166 C 85.763 301.038,81.743 298.348,80.648 297.500 C 79.937 296.950,78.514 295.900,77.485 295.167 C 67.619 288.138,53.103 274.238,46.548 265.544 C 45.842 264.607,44.510 262.894,43.590 261.738 C 35.056 251.012,25.508 233.315,21.163 220.167 C 17.559 209.260,14.871 197.370,14.871 192.333 C 14.871 187.297,17.559 175.406,21.163 164.500 C 25.508 151.352,35.056 133.654,43.590 122.929 C 44.510 121.773,45.842 120.060,46.548 119.122 C 53.103 110.429,67.619 96.529,77.485 89.500 C 78.514 88.767,79.937 87.717,80.648 87.167 C 81.743 86.319,85.763 83.628,87.619 82.501 C 87.920 82.318,88.629 81.842,89.194 81.443 C 89.759 81.045,90.771 80.407,91.444 80.026 C 92.116 79.645,93.229 79.016,93.917 78.628 C 94.604 78.240,95.550 77.650,96.019 77.317 C 96.488 76.985,97.688 76.283,98.686 75.758 C 99.684 75.234,100.800 74.633,101.167 74.424 C 102.740 73.526,114.332 68.000,114.642 68.000 C 114.829 68.000,115.624 67.713,116.408 67.361 C 121.905 64.899,128.125 62.506,132.000 61.364 C 133.375 60.959,136.141 60.083,138.147 59.418 C 140.153 58.752,142.403 58.105,143.147 57.979 C 143.891 57.852,146.225 57.290,148.333 56.728 C 156.029 54.679,169.007 52.420,175.830 51.944 C 178.395 51.765,180.557 51.554,180.635 51.476 C 180.961 51.150,180.925 51.610,180.479 53.503 M231.667 53.194 C 235.425 53.832,239.850 54.652,241.500 55.016 C 243.150 55.380,244.798 55.675,245.163 55.672 C 246.101 55.664,254.037 57.768,259.167 59.385 C 261.550 60.135,264.475 61.051,265.667 61.419 C 266.858 61.787,268.958 62.520,270.333 63.046 C 271.708 63.573,272.959 64.003,273.114 64.002 C 273.268 64.001,274.843 64.615,276.614 65.367 C 278.384 66.119,280.508 67.003,281.333 67.332 C 284.610 68.639,289.250 70.793,290.755 71.704 C 291.629 72.234,292.454 72.667,292.588 72.668 C 292.988 72.669,299.995 76.345,302.167 77.693 C 304.606 79.206,304.828 79.336,305.667 79.735 C 306.125 79.953,307.175 80.589,308.000 81.149 C 308.825 81.709,309.750 82.317,310.055 82.500 C 311.753 83.521,316.606 86.846,317.238 87.421 C 317.643 87.790,318.263 88.259,318.614 88.463 C 318.966 88.667,320.114 89.508,321.167 90.333 C 322.219 91.158,323.332 91.983,323.639 92.167 C 327.142 94.257,340.706 107.104,346.676 113.987 C 347.863 115.355,349.058 116.715,349.333 117.011 C 349.608 117.306,350.239 118.062,350.735 118.691 C 351.232 119.319,352.589 121.033,353.752 122.500 C 356.169 125.549,361.830 134.010,364.569 138.667 C 367.706 144.000,371.300 151.436,373.815 157.801 C 378.152 168.769,380.232 176.069,381.983 186.452 L 382.974 192.333 381.983 198.215 C 380.232 208.597,378.152 215.897,373.815 226.866 C 371.300 233.230,367.706 240.667,364.569 246.000 C 361.830 250.657,356.169 259.118,353.752 262.167 C 352.589 263.633,351.232 265.348,350.735 265.976 C 350.239 266.605,349.608 267.361,349.333 267.656 C 349.058 267.951,347.863 269.312,346.676 270.680 C 340.706 277.562,327.142 290.410,323.639 292.500 C 323.332 292.683,322.219 293.508,321.167 294.333 C 320.114 295.158,318.966 296.000,318.614 296.204 C 318.263 296.407,317.643 296.876,317.238 297.246 C 316.606 297.821,311.753 301.146,310.055 302.167 C 309.750 302.350,308.825 302.958,308.000 303.518 C 307.175 304.077,306.125 304.714,305.667 304.932 C 304.828 305.331,304.606 305.460,302.167 306.974 C 299.995 308.322,292.988 311.997,292.588 311.999 C 292.454 312.000,291.629 312.433,290.755 312.962 C 289.250 313.874,284.610 316.027,281.333 317.334 C 280.508 317.663,278.384 318.548,276.614 319.300 C 274.843 320.051,273.268 320.666,273.114 320.665 C 272.959 320.664,271.708 321.094,270.333 321.620 C 268.958 322.147,266.858 322.879,265.667 323.247 C 264.475 323.616,261.550 324.531,259.167 325.282 C 254.037 326.898,246.101 329.002,245.163 328.995 C 244.798 328.992,243.150 329.287,241.500 329.651 C 232.962 331.533,222.000 333.100,222.000 332.439 C 222.000 332.313,222.519 328.751,223.153 324.522 C 225.416 309.432,227.630 287.602,228.818 268.667 C 233.610 192.233,230.507 110.131,220.836 57.500 C 220.364 54.933,219.909 52.605,219.824 52.327 C 219.585 51.539,223.684 51.839,231.667 53.194 M375.478 245.207 C 373.697 250.526,371.251 257.089,370.088 259.667 C 367.059 266.376,362.705 274.689,358.558 281.679 C 357.027 284.259,352.093 291.647,351.664 292.000 C 351.553 292.092,350.391 293.592,349.082 295.333 C 345.940 299.513,341.751 304.749,341.214 305.167 C 340.979 305.350,339.747 306.705,338.476 308.178 C 336.016 311.030,328.717 318.125,323.944 322.304 C 319.902 325.842,313.408 331.140,312.913 331.303 C 312.686 331.377,311.375 332.287,310.000 333.325 C 306.952 335.624,304.499 337.308,303.167 338.018 C 302.617 338.310,300.114 339.851,297.606 341.441 C 295.098 343.032,292.907 344.333,292.737 344.333 C 292.568 344.333,291.095 345.102,289.464 346.041 C 278.928 352.112,259.903 359.495,246.333 362.778 C 235.406 365.422,214.929 368.707,214.161 367.939 C 214.062 367.839,214.581 365.600,215.314 362.962 C 216.048 360.325,216.924 357.042,217.261 355.667 L 217.874 353.167 220.020 352.929 C 227.039 352.150,238.271 350.202,248.667 347.960 C 250.963 347.465,260.154 344.733,263.333 343.601 C 264.892 343.046,266.895 342.388,267.786 342.139 C 268.677 341.890,271.152 340.958,273.286 340.068 C 275.420 339.178,277.617 338.290,278.167 338.094 C 280.815 337.151,284.659 335.406,289.167 333.101 C 290.450 332.445,291.751 331.784,292.058 331.633 C 294.189 330.586,298.207 328.362,300.195 327.130 C 301.493 326.325,302.664 325.667,302.796 325.667 C 302.928 325.667,303.920 325.067,305.000 324.333 C 306.080 323.600,307.072 323.000,307.205 323.000 C 307.337 323.000,308.455 322.263,309.689 321.363 C 310.923 320.463,312.285 319.543,312.716 319.319 C 313.147 319.095,314.125 318.407,314.889 317.789 C 315.654 317.172,316.377 316.667,316.497 316.667 C 316.617 316.667,317.642 315.920,318.774 315.008 C 319.907 314.095,322.108 312.354,323.667 311.139 C 331.114 305.332,341.663 295.168,347.667 288.015 C 348.492 287.032,349.621 285.689,350.176 285.031 C 351.936 282.943,353.783 280.593,355.430 278.346 C 356.308 277.147,357.210 275.942,357.433 275.667 C 358.047 274.910,362.019 268.829,363.746 266.000 C 367.111 260.490,371.951 251.295,374.011 246.500 C 374.884 244.466,375.650 242.615,376.345 240.856 C 377.862 237.019,377.337 239.652,375.478 245.207 M21.795 242.205 C 24.094 247.669,24.566 248.677,28.011 255.500 C 30.930 261.282,36.834 271.354,37.681 272.000 C 37.802 272.092,38.301 272.806,38.790 273.587 C 39.280 274.369,39.896 275.269,40.160 275.587 C 40.424 275.906,41.402 277.217,42.333 278.500 C 43.265 279.783,44.209 281.058,44.431 281.333 C 44.653 281.608,45.182 282.283,45.605 282.833 C 49.454 287.834,53.663 292.428,61.257 299.917 C 65.207 303.813,68.589 307.000,68.773 307.000 C 68.956 307.000,69.970 307.787,71.026 308.750 C 72.082 309.712,73.595 310.995,74.389 311.601 C 75.184 312.207,76.979 313.594,78.379 314.684 C 79.779 315.775,81.029 316.667,81.156 316.667 C 81.284 316.667,82.013 317.172,82.777 317.789 C 83.541 318.407,84.519 319.095,84.950 319.319 C 85.381 319.543,86.744 320.463,87.978 321.363 C 89.212 322.263,90.333 323.000,90.469 323.000 C 90.606 323.000,91.556 323.600,92.580 324.333 C 93.604 325.067,94.578 325.667,94.744 325.667 C 94.910 325.667,95.718 326.128,96.538 326.693 C 97.805 327.565,100.260 328.914,105.167 331.437 C 113.596 335.770,126.086 341.052,133.167 343.277 C 140.615 345.619,147.439 347.642,149.000 347.971 C 149.825 348.146,152.600 348.773,155.167 349.366 C 157.733 349.959,160.808 350.550,162.000 350.680 C 165.604 351.070,179.441 353.035,180.333 353.282 C 181.048 353.480,181.251 353.868,181.761 356.007 C 182.088 357.378,182.960 360.653,183.700 363.284 C 184.439 365.915,184.994 368.118,184.932 368.179 C 184.513 368.598,166.226 366.021,159.849 364.644 C 158.208 364.290,156.545 364.000,156.154 364.000 C 154.459 364.000,138.896 359.333,130.333 356.256 C 122.041 353.276,105.284 345.031,98.323 340.505 C 96.404 339.257,94.312 337.942,93.675 337.582 C 93.038 337.222,90.863 335.699,88.842 334.196 C 86.821 332.694,84.942 331.375,84.667 331.265 C 84.392 331.154,82.592 329.759,80.667 328.164 C 78.742 326.569,76.717 324.955,76.167 324.577 C 72.595 322.120,57.873 307.259,53.153 301.345 C 52.060 299.977,50.939 298.624,50.661 298.340 C 50.383 298.055,49.265 296.550,48.177 294.994 C 47.089 293.439,46.108 292.092,45.996 292.000 C 45.172 291.323,37.600 279.446,34.626 274.167 C 32.077 269.643,27.624 260.059,25.255 254.000 C 22.842 247.829,22.077 245.679,21.180 242.546 C 19.941 238.224,20.085 238.145,21.795 242.205 M217.829 337.083 C 217.041 341.939,215.299 350.168,214.995 350.472 C 214.749 350.718,209.754 350.865,199.334 350.932 L 184.034 351.031 183.641 349.599 C 183.118 347.691,181.009 336.213,181.154 336.068 C 181.217 336.005,183.721 336.136,186.718 336.358 C 193.832 336.886,213.745 336.477,217.779 335.719 C 217.933 335.690,217.955 336.304,217.829 337.083 M209.000 371.783 C 209.000 372.031,208.018 374.168,206.819 376.533 C 201.633 386.757,196.786 386.620,191.776 376.108 C 190.799 374.060,190.000 372.225,190.000 372.031 C 190.000 371.793,192.970 371.647,199.083 371.583 C 204.079 371.531,208.354 371.454,208.583 371.411 C 208.813 371.368,209.000 371.536,209.000 371.783 " stroke="none" fill="#040404" fill-rule="evenodd"></path><path id="path2" d="M171.167 32.333 C 170.044 32.534,169.992 32.576,170.833 32.595 C 171.383 32.607,172.508 32.497,173.333 32.350 C 174.679 32.111,174.713 32.084,173.667 32.089 C 173.025 32.092,171.900 32.202,171.167 32.333 M224.833 32.352 C 225.567 32.504,226.617 32.618,227.167 32.606 C 227.917 32.589,227.791 32.516,226.667 32.316 C 224.655 31.958,223.078 31.989,224.833 32.352 M141.167 38.667 C 140.746 38.847,140.685 38.953,141.000 38.953 C 141.275 38.953,141.800 38.824,142.167 38.667 C 142.587 38.486,142.648 38.380,142.333 38.380 C 142.058 38.380,141.533 38.509,141.167 38.667 M255.667 38.667 C 256.806 39.032,257.683 39.032,256.833 38.667 C 256.467 38.509,255.867 38.385,255.500 38.390 C 254.964 38.398,254.997 38.452,255.667 38.667 M168.417 52.896 C 168.737 52.980,169.262 52.980,169.583 52.896 C 169.904 52.813,169.642 52.744,169.000 52.744 C 168.358 52.744,168.096 52.813,168.417 52.896 M228.083 52.896 C 228.404 52.980,228.929 52.980,229.250 52.896 C 229.571 52.813,229.308 52.744,228.667 52.744 C 228.025 52.744,227.762 52.813,228.083 52.896 M168.417 331.896 C 168.737 331.980,169.262 331.980,169.583 331.896 C 169.904 331.813,169.642 331.744,169.000 331.744 C 168.358 331.744,168.096 331.813,168.417 331.896 M228.083 331.896 C 228.404 331.980,228.929 331.980,229.250 331.896 C 229.571 331.813,229.308 331.744,228.667 331.744 C 228.025 331.744,227.762 331.813,228.083 331.896 M141.167 346.000 C 141.533 346.158,142.058 346.286,142.333 346.286 C 142.648 346.286,142.587 346.181,142.167 346.000 C 141.800 345.842,141.275 345.714,141.000 345.714 C 140.685 345.714,140.746 345.819,141.167 346.000 M255.667 346.000 C 254.997 346.215,254.964 346.269,255.500 346.277 C 255.867 346.282,256.467 346.158,256.833 346.000 C 257.683 345.635,256.806 345.635,255.667 346.000 M113.333 348.833 C 113.792 349.095,114.317 349.310,114.500 349.310 C 114.683 349.310,114.458 349.095,114.000 348.833 C 113.542 348.571,113.017 348.357,112.833 348.357 C 112.650 348.357,112.875 348.571,113.333 348.833 M283.667 348.833 C 283.208 349.095,282.983 349.310,283.167 349.310 C 283.350 349.310,283.875 349.095,284.333 348.833 C 284.792 348.571,285.017 348.357,284.833 348.357 C 284.650 348.357,284.125 348.571,283.667 348.833 M171.333 352.350 C 172.158 352.497,173.283 352.610,173.833 352.600 C 174.571 352.588,174.440 352.513,173.333 352.316 C 172.508 352.170,171.383 352.057,170.833 352.066 C 170.096 352.079,170.227 352.153,171.333 352.350 M224.667 352.333 C 223.001 352.684,224.710 352.699,226.667 352.350 C 228.020 352.110,228.052 352.084,227.000 352.086 C 226.358 352.087,225.308 352.198,224.667 352.333 M148.167 362.000 C 148.533 362.158,149.133 362.282,149.500 362.277 C 150.036 362.269,150.003 362.215,149.333 362.000 C 148.194 361.635,147.317 361.635,148.167 362.000 M248.333 362.000 C 247.663 362.215,247.631 362.269,248.167 362.277 C 248.533 362.282,249.133 362.158,249.500 362.000 C 250.349 361.635,249.473 361.635,248.333 362.000 " stroke="none" fill="#888888" fill-rule="evenodd"></path><path id="path3" d="M164.833 33.333 C 160.822 34.129,162.248 34.141,166.667 33.349 C 168.592 33.004,169.642 32.725,169.000 32.730 C 168.358 32.734,166.483 33.006,164.833 33.333 M231.000 33.350 C 232.742 33.689,234.467 33.957,234.833 33.946 C 235.200 33.934,234.150 33.651,232.500 33.316 C 230.850 32.981,229.125 32.713,228.667 32.720 C 228.208 32.728,229.258 33.011,231.000 33.350 M208.583 33.908 C 209.179 33.982,210.154 33.982,210.750 33.908 C 211.346 33.834,210.858 33.773,209.667 33.773 C 208.475 33.773,207.987 33.834,208.583 33.908 M152.000 35.833 C 151.175 36.072,150.725 36.280,151.000 36.294 C 151.275 36.309,152.250 36.112,153.167 35.857 C 154.083 35.602,154.533 35.394,154.167 35.396 C 153.800 35.397,152.825 35.594,152.000 35.833 M244.500 35.857 C 245.417 36.112,246.392 36.310,246.667 36.297 C 246.942 36.284,246.417 36.065,245.500 35.810 C 244.583 35.555,243.608 35.357,243.333 35.370 C 243.058 35.382,243.583 35.602,244.500 35.857 M138.667 39.500 C 138.025 39.747,137.725 39.949,138.000 39.949 C 138.275 39.949,139.025 39.747,139.667 39.500 C 140.308 39.253,140.608 39.051,140.333 39.051 C 140.058 39.051,139.308 39.253,138.667 39.500 M258.333 39.500 C 259.855 40.086,260.454 40.077,259.167 39.488 C 258.617 39.236,257.942 39.035,257.667 39.040 C 257.392 39.046,257.692 39.253,258.333 39.500 M130.167 42.155 C 128.879 42.744,129.478 42.753,131.000 42.167 C 131.642 41.920,131.942 41.713,131.667 41.707 C 131.392 41.701,130.717 41.903,130.167 42.155 M266.000 41.944 C 266.275 42.114,266.875 42.353,267.333 42.476 C 267.912 42.631,268.014 42.604,267.667 42.390 C 267.392 42.220,266.792 41.980,266.333 41.858 C 265.754 41.703,265.653 41.729,266.000 41.944 M120.667 45.833 C 119.578 46.456,119.959 46.463,121.378 45.846 C 121.995 45.579,122.275 45.359,122.000 45.358 C 121.725 45.358,121.125 45.571,120.667 45.833 M276.000 45.833 C 276.458 46.095,277.058 46.309,277.333 46.308 C 277.608 46.308,277.329 46.088,276.712 45.820 C 275.292 45.204,274.911 45.211,276.000 45.833 M114.667 48.500 C 114.208 48.762,113.983 48.976,114.167 48.976 C 114.350 48.976,114.875 48.762,115.333 48.500 C 115.792 48.238,116.017 48.024,115.833 48.024 C 115.650 48.024,115.125 48.238,114.667 48.500 M282.622 48.513 C 283.238 48.781,283.838 48.995,283.955 48.988 C 284.389 48.964,282.480 48.024,282.000 48.025 C 281.725 48.026,282.005 48.245,282.622 48.513 M107.167 52.023 C 106.617 52.375,106.317 52.663,106.500 52.663 C 106.683 52.662,107.283 52.364,107.833 52.000 C 108.383 51.636,108.683 51.348,108.500 51.360 C 108.317 51.372,107.717 51.670,107.167 52.023 M289.833 52.000 C 290.383 52.364,290.983 52.663,291.167 52.663 C 291.350 52.664,291.009 52.365,290.409 51.999 C 288.993 51.136,288.530 51.137,289.833 52.000 M171.167 52.333 C 169.228 52.680,171.283 52.694,173.500 52.349 C 175.082 52.102,175.099 52.089,173.833 52.092 C 173.100 52.093,171.900 52.202,171.167 52.333 M224.667 52.350 C 226.678 52.708,228.255 52.677,226.500 52.314 C 225.767 52.163,224.717 52.049,224.167 52.061 C 223.417 52.078,223.542 52.150,224.667 52.350 M157.000 54.667 C 156.340 54.878,156.305 54.934,156.833 54.934 C 157.200 54.934,157.875 54.813,158.333 54.667 C 158.993 54.455,159.028 54.400,158.500 54.400 C 158.133 54.400,157.458 54.520,157.000 54.667 M238.833 54.667 C 240.243 55.025,241.454 55.025,240.333 54.667 C 239.875 54.520,239.125 54.403,238.667 54.406 C 237.918 54.412,237.935 54.438,238.833 54.667 M247.167 56.355 C 248.450 56.701,249.645 56.939,249.823 56.884 C 250.198 56.769,245.910 55.652,245.265 55.697 C 245.028 55.713,245.883 56.010,247.167 56.355 M148.833 56.513 C 147.519 56.967,147.516 56.971,148.667 56.777 C 150.026 56.548,151.417 56.040,150.667 56.047 C 150.392 56.049,149.567 56.259,148.833 56.513 M95.500 58.333 C 94.950 58.698,94.650 58.993,94.833 58.990 C 95.168 58.985,96.980 57.686,96.667 57.676 C 96.575 57.673,96.050 57.969,95.500 58.333 M301.000 58.016 C 302.156 58.801,302.815 59.029,302.000 58.363 C 301.542 57.988,301.017 57.680,300.833 57.679 C 300.650 57.678,300.725 57.830,301.000 58.016 M141.000 58.500 C 140.358 58.747,140.058 58.949,140.333 58.949 C 140.608 58.949,141.358 58.747,142.000 58.500 C 142.642 58.253,142.942 58.051,142.667 58.051 C 142.392 58.051,141.642 58.253,141.000 58.500 M255.667 58.500 C 256.308 58.747,257.058 58.949,257.333 58.949 C 257.608 58.949,257.308 58.747,256.667 58.500 C 256.025 58.253,255.275 58.051,255.000 58.051 C 254.725 58.051,255.025 58.253,255.667 58.500 M128.167 62.512 C 126.821 63.128,127.626 63.129,129.045 62.513 C 129.662 62.245,129.942 62.032,129.667 62.040 C 129.392 62.048,128.717 62.260,128.167 62.512 M268.333 62.500 C 268.792 62.762,269.392 62.976,269.667 62.975 C 269.942 62.974,269.662 62.755,269.045 62.487 C 267.626 61.871,267.245 61.878,268.333 62.500 M123.000 64.500 C 122.542 64.762,122.317 64.976,122.500 64.976 C 122.683 64.976,123.208 64.762,123.667 64.500 C 124.125 64.238,124.350 64.024,124.167 64.024 C 123.983 64.024,123.458 64.238,123.000 64.500 M113.333 68.500 C 112.875 68.762,112.650 68.976,112.833 68.976 C 113.017 68.976,113.542 68.762,114.000 68.500 C 114.458 68.238,114.683 68.024,114.500 68.024 C 114.317 68.024,113.792 68.238,113.333 68.500 M283.667 68.500 C 284.125 68.762,284.650 68.976,284.833 68.976 C 285.017 68.976,284.792 68.762,284.333 68.500 C 283.875 68.238,283.350 68.024,283.167 68.024 C 282.983 68.024,283.208 68.238,283.667 68.500 M109.000 70.500 C 108.542 70.762,108.317 70.976,108.500 70.976 C 108.683 70.976,109.208 70.762,109.667 70.500 C 110.125 70.238,110.350 70.024,110.167 70.024 C 109.983 70.024,109.458 70.238,109.000 70.500 M288.000 70.500 C 288.458 70.762,288.983 70.976,289.167 70.976 C 289.350 70.976,289.125 70.762,288.667 70.500 C 288.208 70.238,287.683 70.024,287.500 70.024 C 287.317 70.024,287.542 70.238,288.000 70.500 M109.000 314.167 C 109.458 314.429,109.983 314.643,110.167 314.643 C 110.350 314.643,110.125 314.429,109.667 314.167 C 109.208 313.905,108.683 313.690,108.500 313.690 C 108.317 313.690,108.542 313.905,109.000 314.167 M288.000 314.167 C 287.542 314.429,287.317 314.643,287.500 314.643 C 287.683 314.643,288.208 314.429,288.667 314.167 C 289.125 313.905,289.350 313.690,289.167 313.690 C 288.983 313.690,288.458 313.905,288.000 314.167 M113.333 316.167 C 113.792 316.429,114.317 316.643,114.500 316.643 C 114.683 316.643,114.458 316.429,114.000 316.167 C 113.542 315.905,113.017 315.690,112.833 315.690 C 112.650 315.690,112.875 315.905,113.333 316.167 M283.667 316.167 C 283.208 316.429,282.983 316.643,283.167 316.643 C 283.350 316.643,283.875 316.429,284.333 316.167 C 284.792 315.905,285.017 315.690,284.833 315.690 C 284.650 315.690,284.125 315.905,283.667 316.167 M123.000 320.167 C 123.458 320.429,123.983 320.643,124.167 320.643 C 124.350 320.643,124.125 320.429,123.667 320.167 C 123.208 319.905,122.683 319.690,122.500 319.690 C 122.317 319.690,122.542 319.905,123.000 320.167 M128.288 322.180 C 128.905 322.448,129.580 322.661,129.788 322.654 C 129.996 322.646,129.662 322.421,129.045 322.154 C 128.428 321.886,127.753 321.673,127.545 321.680 C 127.337 321.687,127.671 321.912,128.288 322.180 M268.333 322.167 C 267.245 322.789,267.626 322.796,269.045 322.180 C 269.662 321.912,269.942 321.692,269.667 321.692 C 269.392 321.691,268.792 321.905,268.333 322.167 M74.333 323.121 C 74.333 323.213,74.783 323.608,75.333 324.000 C 75.883 324.392,76.333 324.637,76.333 324.545 C 76.333 324.454,75.883 324.058,75.333 323.667 C 74.783 323.275,74.333 323.030,74.333 323.121 M95.000 326.016 C 96.156 326.801,96.815 327.029,96.000 326.363 C 95.542 325.988,95.017 325.680,94.833 325.679 C 94.650 325.678,94.725 325.830,95.000 326.016 M141.000 326.167 C 141.642 326.414,142.392 326.616,142.667 326.616 C 142.942 326.616,142.642 326.414,142.000 326.167 C 141.358 325.920,140.608 325.717,140.333 325.717 C 140.058 325.717,140.358 325.920,141.000 326.167 M255.667 326.167 C 255.025 326.414,254.725 326.616,255.000 326.616 C 255.275 326.616,256.025 326.414,256.667 326.167 C 257.308 325.920,257.608 325.717,257.333 325.717 C 257.058 325.717,256.308 325.920,255.667 326.167 M301.500 326.333 C 300.950 326.698,300.650 326.993,300.833 326.990 C 301.168 326.985,302.980 325.686,302.667 325.676 C 302.575 325.673,302.050 325.969,301.500 326.333 M148.167 327.955 C 148.533 328.116,149.358 328.342,150.000 328.458 C 150.801 328.604,150.958 328.578,150.500 328.378 C 150.133 328.218,149.308 327.991,148.667 327.875 C 147.866 327.730,147.709 327.755,148.167 327.955 M247.000 328.359 C 245.808 328.705,245.369 328.914,246.024 328.823 C 247.406 328.632,250.408 327.733,249.667 327.732 C 249.392 327.731,248.192 328.014,247.000 328.359 M82.667 329.759 C 82.667 329.823,83.154 330.232,83.750 330.668 C 84.420 331.158,84.653 331.239,84.361 330.879 C 83.917 330.332,82.667 329.506,82.667 329.759 M157.000 330.000 C 157.458 330.147,158.133 330.267,158.500 330.267 C 159.028 330.267,158.993 330.211,158.333 330.000 C 157.875 329.853,157.200 329.733,156.833 329.733 C 156.305 329.733,156.340 329.789,157.000 330.000 M238.833 330.000 C 237.935 330.229,237.918 330.255,238.667 330.261 C 239.125 330.264,239.875 330.147,240.333 330.000 C 241.454 329.641,240.243 329.641,238.833 330.000 M313.769 330.524 L 312.833 331.382 313.917 330.628 C 314.512 330.214,315.000 329.828,315.000 329.771 C 315.000 329.508,314.631 329.733,313.769 330.524 M107.258 332.668 C 108.673 333.531,109.137 333.530,107.833 332.667 C 107.283 332.302,106.683 332.004,106.500 332.003 C 106.317 332.003,106.658 332.302,107.258 332.668 M171.333 332.350 C 172.158 332.497,173.358 332.608,174.000 332.597 C 174.954 332.581,174.863 332.530,173.500 332.318 C 171.210 331.961,169.307 331.990,171.333 332.350 M224.500 332.333 C 223.366 332.536,223.316 332.576,224.167 332.600 C 224.717 332.616,225.767 332.504,226.500 332.352 C 228.245 331.992,226.502 331.975,224.500 332.333 M289.833 332.667 C 288.530 333.530,288.993 333.531,290.409 332.668 C 291.009 332.302,291.350 332.003,291.167 332.003 C 290.983 332.004,290.383 332.302,289.833 332.667 M114.667 336.167 C 115.125 336.429,115.650 336.643,115.833 336.643 C 116.017 336.643,115.792 336.429,115.333 336.167 C 114.875 335.905,114.350 335.690,114.167 335.690 C 113.983 335.690,114.208 335.905,114.667 336.167 M282.500 336.179 C 281.950 336.431,281.725 336.638,282.000 336.640 C 282.275 336.642,282.875 336.429,283.333 336.167 C 284.387 335.564,283.824 335.572,282.500 336.179 M92.500 336.804 C 93.050 337.277,93.638 337.664,93.806 337.665 C 94.167 337.667,94.163 337.664,92.667 336.698 L 91.500 335.945 92.500 336.804 M304.667 336.833 C 304.045 337.292,303.679 337.661,303.852 337.655 C 304.187 337.642,306.296 336.004,305.981 336.002 C 305.880 336.001,305.288 336.375,304.667 336.833 M120.667 338.833 C 121.125 339.095,121.725 339.309,122.000 339.308 C 122.275 339.308,121.995 339.088,121.378 338.820 C 119.959 338.204,119.578 338.211,120.667 338.833 M276.000 338.833 C 274.911 339.456,275.292 339.463,276.712 338.846 C 277.329 338.579,277.608 338.359,277.333 338.358 C 277.058 338.358,276.458 338.571,276.000 338.833 M130.167 342.512 C 130.717 342.764,131.392 342.965,131.667 342.960 C 131.942 342.954,131.642 342.747,131.000 342.500 C 129.478 341.914,128.879 341.923,130.167 342.512 M266.500 342.512 C 265.666 342.913,265.639 342.959,266.333 342.790 C 267.278 342.559,268.339 342.018,267.833 342.025 C 267.650 342.028,267.050 342.247,266.500 342.512 M103.167 343.509 C 103.900 343.960,104.650 344.329,104.833 344.328 C 105.017 344.326,104.514 343.952,103.716 343.496 C 101.845 342.426,101.425 342.436,103.167 343.509 M293.833 343.491 C 293.100 343.943,292.604 344.317,292.731 344.323 C 293.020 344.336,295.333 342.982,295.333 342.800 C 295.333 342.583,295.230 342.631,293.833 343.491 M138.667 345.167 C 139.308 345.414,140.058 345.616,140.333 345.616 C 140.608 345.616,140.308 345.414,139.667 345.167 C 139.025 344.920,138.275 344.717,138.000 344.717 C 137.725 344.717,138.025 344.920,138.667 345.167 M258.333 345.167 C 257.692 345.414,257.392 345.621,257.667 345.626 C 257.942 345.632,258.617 345.431,259.167 345.179 C 260.454 344.589,259.855 344.581,258.333 345.167 M152.167 348.857 C 153.083 349.112,154.058 349.310,154.333 349.297 C 154.608 349.284,154.083 349.065,153.167 348.810 C 152.250 348.555,151.275 348.357,151.000 348.370 C 150.725 348.382,151.250 348.602,152.167 348.857 M244.333 348.833 C 243.508 349.072,243.058 349.280,243.333 349.294 C 243.608 349.309,244.583 349.112,245.500 348.857 C 246.417 348.602,246.867 348.394,246.500 348.396 C 246.133 348.397,245.158 348.594,244.333 348.833 M116.000 350.167 C 116.825 350.608,117.650 350.970,117.833 350.970 C 118.017 350.970,117.492 350.608,116.667 350.167 C 115.842 349.725,115.017 349.363,114.833 349.363 C 114.650 349.363,115.175 349.725,116.000 350.167 M281.000 350.167 C 280.175 350.608,279.650 350.970,279.833 350.970 C 280.017 350.970,280.842 350.608,281.667 350.167 C 282.492 349.725,283.017 349.363,282.833 349.363 C 282.650 349.363,281.825 349.725,281.000 350.167 M210.500 350.667 L 207.500 350.874 210.333 350.898 C 211.892 350.911,213.617 350.807,214.167 350.667 C 215.382 350.358,214.973 350.358,210.500 350.667 M165.000 351.350 C 166.742 351.689,168.617 351.962,169.167 351.956 C 169.717 351.950,168.592 351.663,166.667 351.318 C 164.742 350.973,162.867 350.700,162.500 350.712 C 162.133 350.724,163.258 351.011,165.000 351.350 M185.083 350.909 C 185.771 350.981,186.896 350.981,187.583 350.909 C 188.271 350.838,187.708 350.779,186.333 350.779 C 184.958 350.779,184.396 350.838,185.083 350.909 M230.833 351.333 C 229.183 351.661,228.208 351.936,228.667 351.944 C 229.125 351.953,230.850 351.686,232.500 351.351 C 234.150 351.016,235.125 350.741,234.667 350.740 C 234.208 350.739,232.483 351.006,230.833 351.333 M130.960 356.535 C 132.130 356.987,133.146 357.298,133.218 357.226 C 133.368 357.076,129.587 355.655,129.132 355.690 C 128.968 355.703,129.791 356.083,130.960 356.535 M265.833 356.535 C 264.733 356.987,264.227 357.278,264.708 357.183 C 265.688 356.988,268.687 355.714,268.167 355.714 C 267.983 355.714,266.933 356.083,265.833 356.535 M150.028 362.472 C 150.241 362.684,155.551 364.004,156.056 363.970 C 156.300 363.953,155.150 363.582,153.500 363.145 C 150.514 362.353,149.763 362.208,150.028 362.472 M243.667 363.167 C 242.108 363.590,241.058 363.947,241.333 363.960 C 241.608 363.973,243.183 363.626,244.833 363.189 C 246.483 362.751,247.533 362.394,247.167 362.395 C 246.800 362.396,245.225 362.743,243.667 363.167 " stroke="none" fill="#5e5e5e" fill-rule="evenodd"></path><path id="path4" d="M176.000 31.667 C 174.653 31.876,174.619 31.902,175.667 31.917 C 176.308 31.926,177.658 31.820,178.667 31.681 C 180.476 31.431,180.480 31.427,179.000 31.430 C 178.175 31.432,176.825 31.538,176.000 31.667 M219.167 31.679 C 220.267 31.816,221.767 31.923,222.500 31.917 C 223.645 31.908,223.574 31.870,222.000 31.653 C 220.992 31.513,219.492 31.406,218.667 31.415 C 217.297 31.430,217.340 31.453,219.167 31.679 M157.333 34.500 C 155.329 35.081,156.353 35.092,158.667 34.514 C 159.675 34.263,160.125 34.059,159.667 34.061 C 159.208 34.063,158.158 34.261,157.333 34.500 M238.500 34.508 C 239.417 34.743,240.467 34.933,240.833 34.928 C 241.200 34.924,240.750 34.728,239.833 34.492 C 238.917 34.257,237.867 34.067,237.500 34.072 C 237.133 34.076,237.583 34.272,238.500 34.508 M143.167 38.000 C 142.746 38.181,142.685 38.286,143.000 38.286 C 143.275 38.286,143.800 38.158,144.167 38.000 C 144.587 37.819,144.648 37.714,144.333 37.714 C 144.058 37.714,143.533 37.842,143.167 38.000 M253.500 38.000 C 253.867 38.158,254.392 38.286,254.667 38.286 C 254.982 38.286,254.920 38.181,254.500 38.000 C 254.133 37.842,253.608 37.714,253.333 37.714 C 253.018 37.714,253.080 37.819,253.500 38.000 M133.667 40.833 C 133.025 41.080,132.725 41.283,133.000 41.283 C 133.275 41.283,134.025 41.080,134.667 40.833 C 135.308 40.586,135.608 40.384,135.333 40.384 C 135.058 40.384,134.308 40.586,133.667 40.833 M263.000 40.833 C 264.522 41.419,265.121 41.411,263.833 40.821 C 263.283 40.569,262.608 40.368,262.333 40.374 C 262.058 40.379,262.358 40.586,263.000 40.833 M117.667 47.000 C 117.025 47.351,116.650 47.639,116.833 47.639 C 117.017 47.639,117.692 47.351,118.333 47.000 C 118.975 46.649,119.350 46.361,119.167 46.361 C 118.983 46.361,118.308 46.649,117.667 47.000 M279.333 47.000 C 279.975 47.351,280.650 47.639,280.833 47.639 C 281.017 47.639,280.642 47.351,280.000 47.000 C 279.358 46.649,278.683 46.361,278.500 46.361 C 278.317 46.361,278.692 46.649,279.333 47.000 M213.921 48.569 C 214.335 48.649,214.935 48.646,215.254 48.562 C 215.573 48.479,215.233 48.414,214.500 48.417 C 213.767 48.421,213.506 48.489,213.921 48.569 M179.167 51.667 L 177.500 51.895 179.064 51.948 C 179.924 51.976,180.720 51.850,180.833 51.667 C 180.947 51.483,180.993 51.357,180.936 51.386 C 180.880 51.415,180.083 51.541,179.167 51.667 M104.167 53.356 C 103.617 53.708,103.317 53.996,103.500 53.996 C 103.683 53.996,104.283 53.698,104.833 53.333 C 105.383 52.969,105.683 52.681,105.500 52.693 C 105.317 52.705,104.717 53.004,104.167 53.356 M292.000 52.830 C 292.000 53.058,294.041 54.070,294.193 53.918 C 294.266 53.845,293.802 53.537,293.162 53.232 C 292.523 52.927,292.000 52.746,292.000 52.830 M165.167 53.333 C 163.780 53.686,165.145 53.702,166.833 53.352 C 167.954 53.121,168.007 53.077,167.167 53.078 C 166.617 53.078,165.717 53.193,165.167 53.333 M230.500 53.333 C 231.050 53.473,231.950 53.588,232.500 53.589 C 233.341 53.590,233.288 53.546,232.167 53.314 C 230.478 52.965,229.114 52.981,230.500 53.333 M153.000 55.667 C 152.340 55.878,152.305 55.934,152.833 55.934 C 153.200 55.934,153.875 55.813,154.333 55.667 C 154.993 55.455,155.028 55.400,154.500 55.400 C 154.133 55.400,153.458 55.520,153.000 55.667 M243.000 55.667 C 243.458 55.813,244.133 55.934,244.500 55.934 C 245.028 55.934,244.993 55.878,244.333 55.667 C 243.875 55.520,243.200 55.400,242.833 55.400 C 242.305 55.400,242.340 55.455,243.000 55.667 M144.833 57.667 C 144.413 57.847,144.352 57.953,144.667 57.953 C 144.942 57.953,145.467 57.824,145.833 57.667 C 146.254 57.486,146.315 57.380,146.000 57.380 C 145.725 57.380,145.200 57.509,144.833 57.667 M251.833 57.667 C 252.200 57.824,252.800 57.949,253.167 57.943 C 253.703 57.935,253.670 57.881,253.000 57.667 C 251.860 57.302,250.984 57.302,251.833 57.667 M93.000 59.696 C 92.446 60.149,92.391 60.262,92.833 60.034 C 93.921 59.472,94.523 59.010,94.167 59.013 C 93.983 59.014,93.458 59.322,93.000 59.696 M138.500 59.333 C 138.080 59.514,138.018 59.620,138.333 59.620 C 138.608 59.620,139.133 59.491,139.500 59.333 C 139.920 59.153,139.982 59.047,139.667 59.047 C 139.392 59.047,138.867 59.176,138.500 59.333 M258.167 59.333 C 258.533 59.491,259.058 59.620,259.333 59.620 C 259.648 59.620,259.587 59.514,259.167 59.333 C 258.800 59.176,258.275 59.047,258.000 59.047 C 257.685 59.047,257.746 59.153,258.167 59.333 M304.000 59.637 C 304.458 60.012,304.983 60.320,305.167 60.321 C 305.523 60.323,304.921 59.862,303.833 59.300 C 303.391 59.071,303.446 59.184,304.000 59.637 M131.167 61.667 C 130.746 61.847,130.685 61.953,131.000 61.953 C 131.275 61.953,131.800 61.824,132.167 61.667 C 132.587 61.486,132.648 61.380,132.333 61.380 C 132.058 61.380,131.533 61.509,131.167 61.667 M125.167 63.845 C 124.333 64.247,124.305 64.293,125.000 64.123 C 125.945 63.892,127.006 63.351,126.500 63.359 C 126.317 63.361,125.717 63.580,125.167 63.845 M271.622 63.846 C 272.238 64.114,272.838 64.328,272.955 64.322 C 273.389 64.297,271.480 63.357,271.000 63.358 C 270.725 63.359,271.005 63.579,271.622 63.846 M83.380 66.011 C 82.346 66.872,82.813 66.862,83.909 66.000 C 84.375 65.633,84.624 65.338,84.462 65.344 C 84.299 65.351,83.813 65.651,83.380 66.011 M313.758 66.000 C 314.224 66.367,314.714 66.667,314.848 66.667 C 314.981 66.667,314.709 66.367,314.242 66.000 C 313.776 65.633,313.286 65.333,313.152 65.333 C 313.019 65.333,313.291 65.633,313.758 66.000 M83.424 318.667 C 83.890 319.033,84.381 319.333,84.514 319.333 C 84.648 319.333,84.375 319.033,83.909 318.667 C 83.443 318.300,82.952 318.000,82.819 318.000 C 82.686 318.000,82.958 318.300,83.424 318.667 M313.713 318.678 C 312.680 319.539,313.146 319.529,314.242 318.667 C 314.709 318.300,314.957 318.005,314.795 318.011 C 314.633 318.017,314.146 318.317,313.713 318.678 M124.667 320.610 C 124.942 320.780,125.542 321.020,126.000 321.142 C 126.579 321.297,126.681 321.271,126.333 321.056 C 126.058 320.886,125.458 320.647,125.000 320.524 C 124.421 320.369,124.319 320.396,124.667 320.610 M271.500 320.845 C 270.950 321.097,270.725 321.305,271.000 321.306 C 271.275 321.308,271.875 321.095,272.333 320.833 C 273.387 320.231,272.824 320.239,271.500 320.845 M131.167 323.000 C 131.533 323.158,132.058 323.286,132.333 323.286 C 132.648 323.286,132.587 323.181,132.167 323.000 C 131.800 322.842,131.275 322.714,131.000 322.714 C 130.685 322.714,130.746 322.819,131.167 323.000 M93.000 324.970 C 93.458 325.345,93.983 325.653,94.167 325.654 C 94.523 325.657,93.921 325.195,92.833 324.633 C 92.391 324.404,92.446 324.517,93.000 324.970 M304.000 325.030 C 303.446 325.483,303.391 325.596,303.833 325.367 C 304.921 324.805,305.523 324.343,305.167 324.346 C 304.983 324.347,304.458 324.655,304.000 325.030 M138.500 325.333 C 138.867 325.491,139.392 325.620,139.667 325.620 C 139.982 325.620,139.920 325.514,139.500 325.333 C 139.133 325.176,138.608 325.047,138.333 325.047 C 138.018 325.047,138.080 325.153,138.500 325.333 M258.167 325.333 C 257.746 325.514,257.685 325.620,258.000 325.620 C 258.275 325.620,258.800 325.491,259.167 325.333 C 259.587 325.153,259.648 325.047,259.333 325.047 C 259.058 325.047,258.533 325.176,258.167 325.333 M144.833 327.000 C 145.200 327.158,145.725 327.286,146.000 327.286 C 146.315 327.286,146.254 327.181,145.833 327.000 C 145.467 326.842,144.942 326.714,144.667 326.714 C 144.352 326.714,144.413 326.819,144.833 327.000 M251.833 327.000 C 250.984 327.365,251.860 327.365,253.000 327.000 C 253.670 326.785,253.703 326.731,253.167 326.723 C 252.800 326.718,252.200 326.842,251.833 327.000 M80.740 328.178 C 81.239 328.702,81.706 329.064,81.779 328.982 C 81.852 328.900,81.444 328.471,80.873 328.029 L 79.833 327.224 80.740 328.178 M316.500 328.208 C 315.901 328.718,315.778 328.921,316.194 328.714 C 316.805 328.411,317.951 327.314,317.624 327.345 C 317.556 327.352,317.050 327.740,316.500 328.208 M153.000 329.000 C 153.458 329.147,154.133 329.267,154.500 329.267 C 155.028 329.267,154.993 329.211,154.333 329.000 C 153.875 328.853,153.200 328.733,152.833 328.733 C 152.305 328.733,152.340 328.789,153.000 329.000 M243.000 329.000 C 242.340 329.211,242.305 329.267,242.833 329.267 C 243.200 329.267,243.875 329.147,244.333 329.000 C 244.993 328.789,245.028 328.733,244.500 328.733 C 244.133 328.733,243.458 328.853,243.000 329.000 M104.258 331.335 C 105.673 332.197,106.137 332.196,104.833 331.333 C 104.283 330.969,103.683 330.671,103.500 330.670 C 103.317 330.670,103.658 330.969,104.258 331.335 M292.917 331.191 C 291.624 331.892,291.771 332.134,293.083 331.466 C 294.340 330.827,294.562 330.662,294.139 330.680 C 293.971 330.687,293.421 330.917,292.917 331.191 M165.167 331.333 C 165.717 331.473,166.617 331.588,167.167 331.589 C 168.007 331.590,167.954 331.546,166.833 331.314 C 165.145 330.965,163.780 330.981,165.167 331.333 M230.500 331.333 C 229.114 331.686,230.478 331.702,232.167 331.352 C 233.288 331.121,233.341 331.077,232.500 331.078 C 231.950 331.078,231.050 331.193,230.500 331.333 M89.424 334.667 C 89.890 335.033,90.381 335.333,90.514 335.333 C 90.648 335.333,90.375 335.033,89.909 334.667 C 89.443 334.300,88.952 334.000,88.819 334.000 C 88.686 334.000,88.958 334.300,89.424 334.667 M307.713 334.678 C 306.680 335.539,307.146 335.529,308.242 334.667 C 308.709 334.300,308.957 334.005,308.795 334.011 C 308.633 334.017,308.146 334.317,307.713 334.678 M181.755 336.239 C 182.261 336.316,183.011 336.314,183.421 336.235 C 183.831 336.156,183.417 336.093,182.500 336.095 C 181.583 336.098,181.248 336.163,181.755 336.239 M214.250 336.241 C 214.846 336.315,215.821 336.315,216.417 336.241 C 217.012 336.167,216.525 336.107,215.333 336.107 C 214.142 336.107,213.654 336.167,214.250 336.241 M117.667 337.667 C 118.308 338.018,118.983 338.305,119.167 338.305 C 119.350 338.305,118.975 338.018,118.333 337.667 C 117.692 337.315,117.017 337.028,116.833 337.028 C 116.650 337.028,117.025 337.315,117.667 337.667 M279.333 337.667 C 278.692 338.018,278.317 338.305,278.500 338.305 C 278.683 338.305,279.358 338.018,280.000 337.667 C 280.642 337.315,281.017 337.028,280.833 337.028 C 280.650 337.028,279.975 337.315,279.333 337.667 M98.333 340.446 C 98.333 340.671,100.728 342.049,100.872 341.906 C 100.938 341.840,100.394 341.449,99.663 341.038 C 98.932 340.627,98.333 340.360,98.333 340.446 M297.750 341.038 C 296.614 341.766,296.246 342.255,297.250 341.703 C 298.015 341.282,299.213 340.356,299.000 340.350 C 298.908 340.347,298.346 340.657,297.750 341.038 M133.667 343.833 C 134.308 344.080,135.058 344.283,135.333 344.283 C 135.608 344.283,135.308 344.080,134.667 343.833 C 134.025 343.586,133.275 343.384,133.000 343.384 C 132.725 343.384,133.025 343.586,133.667 343.833 M263.000 343.833 C 262.358 344.080,262.058 344.287,262.333 344.293 C 262.608 344.299,263.283 344.097,263.833 343.845 C 265.121 343.256,264.522 343.247,263.000 343.833 M143.167 346.667 C 143.533 346.824,144.058 346.953,144.333 346.953 C 144.648 346.953,144.587 346.847,144.167 346.667 C 143.800 346.509,143.275 346.380,143.000 346.380 C 142.685 346.380,142.746 346.486,143.167 346.667 M253.500 346.667 C 253.080 346.847,253.018 346.953,253.333 346.953 C 253.608 346.953,254.133 346.824,254.500 346.667 C 254.920 346.486,254.982 346.380,254.667 346.380 C 254.392 346.380,253.867 346.509,253.500 346.667 M110.333 347.163 C 110.333 347.392,112.374 348.403,112.527 348.251 C 112.599 348.179,112.135 347.870,111.496 347.565 C 110.856 347.260,110.333 347.080,110.333 347.163 M286.000 347.667 C 285.358 348.018,284.953 348.312,285.100 348.319 C 285.453 348.338,287.333 347.360,287.333 347.158 C 287.333 346.940,287.314 346.947,286.000 347.667 M157.500 350.190 C 158.417 350.445,159.467 350.644,159.833 350.632 C 160.200 350.620,159.675 350.404,158.667 350.152 C 156.281 349.557,155.335 349.588,157.500 350.190 M238.500 350.159 C 237.583 350.395,237.133 350.591,237.500 350.595 C 237.867 350.599,238.917 350.410,239.833 350.174 C 240.750 349.939,241.200 349.742,240.833 349.738 C 240.467 349.734,239.417 349.923,238.500 350.159 M176.167 353.015 C 177.083 353.158,178.433 353.267,179.167 353.257 C 180.328 353.242,180.263 353.207,178.667 352.986 C 177.658 352.847,176.308 352.738,175.667 352.744 C 174.732 352.753,174.831 352.807,176.167 353.015 M219.333 353.000 C 217.987 353.209,217.953 353.235,219.000 353.250 C 219.642 353.260,220.992 353.153,222.000 353.014 C 223.809 352.764,223.814 352.761,222.333 352.764 C 221.508 352.765,220.158 352.872,219.333 353.000 M125.632 354.364 C 126.438 354.721,127.157 354.955,127.229 354.882 C 127.373 354.738,124.805 353.652,124.410 353.690 C 124.276 353.703,124.826 354.006,125.632 354.364 M271.167 354.357 C 270.433 354.710,270.208 354.905,270.667 354.791 C 271.610 354.556,273.343 353.687,272.833 353.705 C 272.650 353.711,271.900 354.005,271.167 354.357 M144.333 360.854 C 145.708 361.294,147.058 361.647,147.333 361.638 C 147.608 361.630,146.642 361.258,145.185 360.811 C 143.729 360.365,142.379 360.012,142.185 360.027 C 141.992 360.042,142.958 360.414,144.333 360.854 M252.333 360.844 C 250.958 361.269,250.058 361.628,250.333 361.640 C 250.608 361.653,251.958 361.304,253.333 360.864 C 254.708 360.425,255.608 360.067,255.333 360.068 C 255.058 360.069,253.708 360.418,252.333 360.844 M176.667 367.351 C 179.142 367.680,181.842 367.945,182.667 367.940 C 183.492 367.935,181.917 367.657,179.167 367.323 C 176.417 366.988,173.717 366.723,173.167 366.734 C 172.617 366.745,174.192 367.023,176.667 367.351 M218.833 367.333 C 216.267 367.652,214.586 367.932,215.099 367.956 C 216.086 368.003,224.933 367.057,225.500 366.844 C 226.241 366.567,223.239 366.787,218.833 367.333 " stroke="none" fill="#949494" fill-rule="evenodd"></path></g></svg>