<svg id="svg" version="1.1" xmlns="http://www.w3.org/2000/svg" xmlns:xlink="http://www.w3.org/1999/xlink" width="400" height="400" viewBox="0, 0, 400,400"><g id="svgg"><path id="path0" d="M9.624 11.218 C 8.938 12.044,8.938 388.622,9.624 389.449 C 10.311 390.277,387.315 390.304,388.143 389.476 C 388.946 388.673,388.946 11.994,388.143 11.190 C 387.315 10.363,10.311 10.390,9.624 11.218 M214.815 17.297 C 234.208 21.865,253.374 34.408,267.333 51.667 C 267.975 52.461,268.654 53.273,268.842 53.472 C 270.729 55.467,281.000 69.890,281.000 70.545 C 281.000 70.664,281.614 71.734,282.365 72.923 C 283.116 74.112,284.091 75.740,284.532 76.542 C 284.973 77.344,285.727 78.713,286.209 79.583 C 287.560 82.027,290.519 87.925,291.602 90.333 C 293.370 94.266,294.667 97.276,294.667 97.449 C 294.667 97.653,294.022 97.457,289.000 95.729 C 286.892 95.004,283.592 93.930,281.667 93.343 C 279.742 92.756,277.792 92.156,277.333 92.010 C 276.875 91.864,275.900 91.582,275.167 91.383 C 274.433 91.185,272.483 90.654,270.833 90.202 C 269.183 89.751,267.083 89.228,266.167 89.040 C 265.250 88.852,263.825 88.540,263.000 88.348 C 260.649 87.799,255.554 86.796,249.333 85.657 C 247.940 85.402,243.832 84.759,238.667 83.989 C 236.445 83.657,228.892 82.866,222.667 82.312 C 203.667 80.622,177.270 81.312,159.333 83.967 C 158.142 84.144,155.517 84.527,153.500 84.819 C 151.483 85.111,149.083 85.492,148.167 85.665 C 147.250 85.837,145.225 86.210,143.667 86.492 C 140.188 87.123,136.607 87.855,134.833 88.298 C 134.100 88.482,132.525 88.851,131.333 89.119 C 129.321 89.571,123.807 91.007,121.500 91.679 C 120.950 91.839,119.675 92.185,118.667 92.448 C 117.658 92.711,116.158 93.155,115.333 93.436 C 114.508 93.716,113.308 94.096,112.667 94.279 C 111.312 94.665,105.812 96.566,104.833 96.987 C 102.405 98.029,102.372 98.199,106.196 90.087 C 106.821 88.760,107.333 87.448,107.333 87.171 C 107.333 86.893,107.454 86.667,107.603 86.667 C 107.751 86.667,108.134 86.029,108.455 85.250 C 108.776 84.471,109.176 83.608,109.343 83.333 C 110.238 81.860,112.333 77.792,112.333 77.527 C 112.333 77.358,112.543 76.982,112.800 76.693 C 113.289 76.141,114.121 74.727,115.759 71.667 C 116.298 70.658,116.998 69.533,117.314 69.167 C 117.630 68.800,118.536 67.450,119.328 66.167 C 120.120 64.883,120.865 63.758,120.985 63.667 C 121.104 63.575,121.566 62.900,122.011 62.167 C 122.456 61.433,123.002 60.608,123.225 60.333 C 123.447 60.058,124.721 58.408,126.056 56.667 C 127.391 54.925,128.740 53.200,129.055 52.833 C 129.369 52.467,129.945 51.792,130.335 51.333 C 133.429 47.698,139.518 41.493,143.612 37.804 C 155.398 27.183,174.878 17.648,186.833 16.649 C 193.331 16.106,211.550 16.528,214.815 17.297 M166.667 19.163 C 166.667 19.253,165.295 20.015,163.619 20.857 C 160.025 22.662,155.524 25.395,151.891 27.978 C 150.456 28.999,148.927 30.066,148.493 30.351 C 145.106 32.572,135.283 41.913,130.160 47.785 C 129.064 49.041,128.008 50.241,127.814 50.451 C 126.895 51.449,121.233 59.113,119.776 61.333 C 118.873 62.708,117.879 64.208,117.567 64.667 C 115.705 67.397,114.641 69.084,113.669 70.846 C 113.066 71.939,112.317 73.208,112.005 73.667 C 111.694 74.125,111.209 74.950,110.928 75.500 C 107.734 81.749,105.019 87.210,104.373 88.686 C 103.936 89.684,103.171 91.400,102.673 92.500 C 100.870 96.479,100.704 96.858,100.357 97.771 C 100.131 98.366,99.554 98.885,98.752 99.217 C 98.063 99.502,96.900 99.996,96.167 100.315 C 95.433 100.634,94.308 101.092,93.667 101.333 C 89.591 102.863,80.431 107.233,75.167 110.159 C 74.250 110.669,73.050 111.315,72.500 111.596 C 71.950 111.876,71.125 112.360,70.667 112.672 C 70.208 112.984,68.933 113.733,67.833 114.336 C 65.905 115.394,58.341 120.253,58.000 120.653 C 57.908 120.761,57.387 121.133,56.842 121.481 C 56.297 121.829,55.697 122.240,55.509 122.394 C 55.321 122.548,54.567 123.136,53.833 123.700 C 50.982 125.893,50.608 126.184,49.965 126.720 C 49.600 127.024,48.684 127.774,47.929 128.386 C 47.174 128.999,46.390 129.650,46.187 129.833 C 41.168 134.356,39.391 136.025,37.436 138.057 C 34.601 141.002,29.799 146.513,29.062 147.667 C 28.769 148.125,28.134 148.965,27.652 149.534 C 25.436 152.143,21.580 158.460,18.616 164.333 C 17.552 166.442,16.678 167.982,16.674 167.755 C 16.658 166.888,18.434 158.953,19.692 154.270 C 38.139 85.600,91.722 34.932,161.667 20.018 C 166.804 18.922,166.667 18.946,166.667 19.163 M236.000 20.010 C 308.705 34.236,366.089 92.606,380.835 167.333 C 380.926 167.792,380.181 166.547,379.179 164.567 C 373.081 152.512,363.368 140.188,352.667 130.930 C 351.475 129.899,350.125 128.730,349.667 128.332 C 349.208 127.935,348.408 127.285,347.888 126.888 C 347.368 126.491,346.768 126.015,346.555 125.829 C 346.341 125.643,345.042 124.671,343.667 123.670 C 342.292 122.669,341.092 121.771,341.000 121.675 C 340.413 121.059,328.049 113.246,324.500 111.249 C 319.376 108.366,307.543 102.639,304.000 101.328 C 303.358 101.090,302.050 100.548,301.092 100.123 C 300.135 99.698,298.983 99.258,298.533 99.145 C 297.849 98.974,296.667 97.324,296.667 96.543 C 296.667 96.345,295.990 94.784,293.323 88.833 C 292.187 86.300,288.826 79.544,287.767 77.667 C 287.405 77.025,286.613 75.600,286.007 74.500 C 285.401 73.400,284.653 72.125,284.345 71.667 C 284.036 71.208,283.441 70.158,283.022 69.333 C 282.173 67.661,277.492 60.527,276.583 59.520 C 276.262 59.165,276.000 58.763,276.000 58.628 C 276.000 58.492,275.813 58.183,275.583 57.940 C 275.354 57.698,274.499 56.604,273.683 55.508 C 272.866 54.413,271.943 53.213,271.631 52.842 C 271.319 52.470,269.816 50.667,268.290 48.833 C 258.649 37.245,246.622 27.406,234.756 21.400 C 231.186 19.593,230.105 18.786,231.750 19.156 C 232.162 19.249,234.075 19.633,236.000 20.010 M218.833 83.976 C 220.667 84.166,224.192 84.486,226.667 84.686 C 232.859 85.186,240.919 86.194,245.333 87.020 C 246.342 87.209,248.442 87.578,250.000 87.841 C 253.142 88.370,258.774 89.483,260.833 89.981 C 261.567 90.159,263.217 90.543,264.500 90.836 C 267.034 91.413,271.568 92.553,273.167 93.015 C 273.717 93.174,274.992 93.522,276.000 93.789 C 279.331 94.671,285.899 96.814,291.500 98.846 C 293.333 99.511,295.079 100.130,295.378 100.223 C 296.424 100.546,301.837 115.846,304.675 126.500 C 305.857 130.939,307.618 138.094,307.834 139.333 C 307.946 139.975,308.339 141.850,308.708 143.500 C 309.077 145.150,309.431 146.875,309.495 147.333 C 309.611 148.168,309.995 150.421,310.660 154.167 C 310.856 155.267,311.087 156.821,311.174 157.620 C 311.261 158.420,311.558 160.670,311.833 162.620 C 312.567 167.817,312.703 168.895,312.866 170.789 C 312.947 171.730,313.159 174.150,313.336 176.167 C 314.386 188.076,314.572 212.081,313.682 220.833 C 313.496 222.667,313.190 226.117,313.002 228.500 C 312.468 235.292,311.744 241.095,310.653 247.333 C 310.445 248.525,310.229 249.800,310.175 250.167 C 310.023 251.190,309.378 254.642,308.991 256.500 C 308.801 257.417,308.593 258.542,308.530 259.000 C 308.347 260.337,305.468 272.596,305.008 274.000 C 304.858 274.458,304.487 275.733,304.183 276.833 C 302.845 281.682,299.182 293.018,298.175 295.427 C 297.757 296.428,297.374 296.662,294.273 297.801 C 292.381 298.496,290.533 299.194,290.167 299.353 C 288.805 299.944,278.850 303.123,276.000 303.878 C 274.992 304.145,273.642 304.516,273.000 304.703 C 271.514 305.136,268.443 305.905,265.667 306.540 C 264.475 306.812,262.900 307.185,262.167 307.368 C 261.433 307.552,259.858 307.900,258.667 308.142 C 257.475 308.384,255.375 308.817,254.000 309.103 C 252.625 309.390,250.375 309.803,249.000 310.022 C 247.625 310.241,245.750 310.545,244.833 310.698 C 239.821 311.536,232.465 312.475,227.000 312.974 C 224.892 313.167,221.217 313.507,218.833 313.730 C 212.839 314.290,184.868 314.298,179.167 313.742 C 176.783 313.509,173.033 313.169,170.833 312.986 C 165.260 312.523,157.232 311.515,152.500 310.684 C 147.321 309.775,144.670 309.298,143.333 309.033 C 142.508 308.870,140.933 308.569,139.833 308.364 C 138.733 308.159,137.308 307.853,136.667 307.683 C 135.423 307.355,134.256 307.079,129.500 305.989 C 126.486 305.297,124.664 304.791,118.500 302.929 C 114.262 301.649,108.367 299.731,107.500 299.350 C 107.133 299.188,106.008 298.788,105.000 298.460 C 103.992 298.131,103.017 297.761,102.833 297.636 C 102.650 297.512,102.023 297.308,101.440 297.184 C 100.167 296.912,99.952 296.655,99.198 294.500 C 98.877 293.583,98.487 292.533,98.331 292.167 C 97.694 290.668,95.716 284.480,94.124 279.000 C 92.731 274.207,91.621 269.936,90.354 264.500 C 89.523 260.934,88.234 254.426,87.647 250.833 C 87.288 248.633,86.847 246.008,86.668 245.000 C 86.489 243.992,86.115 241.367,85.837 239.167 C 85.559 236.967,85.174 233.967,84.983 232.500 C 83.449 220.749,82.888 191.687,83.986 180.833 C 84.171 179.000,84.477 175.550,84.664 173.167 C 84.956 169.450,85.284 166.253,85.826 161.833 C 85.956 160.773,86.471 157.481,87.025 154.167 C 87.209 153.067,87.414 151.792,87.481 151.333 C 87.548 150.875,87.754 149.750,87.938 148.833 C 88.122 147.917,88.509 145.892,88.798 144.333 C 89.087 142.775,89.469 140.900,89.646 140.167 C 89.823 139.433,90.125 138.083,90.318 137.167 C 91.251 132.726,92.522 127.877,94.382 121.667 C 94.793 120.292,95.164 119.017,95.204 118.833 C 95.245 118.650,95.601 117.525,95.997 116.333 C 96.392 115.142,96.769 113.942,96.835 113.667 C 96.901 113.392,97.502 111.667,98.170 109.833 C 98.838 108.000,99.540 105.975,99.730 105.333 C 99.921 104.692,100.343 103.567,100.669 102.833 C 100.995 102.100,101.335 101.275,101.425 101.000 C 101.515 100.725,103.144 99.926,105.044 99.224 C 106.945 98.522,108.800 97.821,109.167 97.666 C 109.533 97.511,110.733 97.124,111.833 96.807 C 112.933 96.489,113.976 96.102,114.150 95.948 C 114.324 95.793,114.734 95.667,115.060 95.667 C 115.386 95.667,116.743 95.301,118.076 94.853 C 119.409 94.406,121.100 93.890,121.833 93.706 C 122.567 93.522,123.767 93.204,124.500 93.000 C 125.233 92.796,126.433 92.488,127.167 92.317 C 127.900 92.145,129.025 91.856,129.667 91.676 C 131.537 91.149,137.657 89.728,139.833 89.315 C 140.933 89.107,142.433 88.797,143.167 88.627 C 143.900 88.457,145.925 88.083,147.667 87.797 C 149.408 87.510,151.583 87.145,152.500 86.986 C 153.417 86.826,155.367 86.542,156.833 86.354 C 158.300 86.166,160.550 85.864,161.833 85.683 C 169.456 84.609,175.108 84.103,184.500 83.654 C 191.521 83.318,214.595 83.534,218.833 83.976 M301.927 102.872 C 302.894 103.309,303.746 103.667,303.819 103.667 C 304.256 103.667,318.554 110.626,322.520 112.769 C 328.168 115.821,341.840 125.065,346.000 128.645 C 346.458 129.039,347.657 130.068,348.663 130.931 C 351.843 133.657,357.128 138.819,361.333 143.307 C 388.508 172.304,391.223 215.049,367.861 246.067 C 366.853 247.405,365.568 249.120,365.005 249.878 C 364.442 250.636,363.648 251.620,363.241 252.066 C 362.833 252.511,361.778 253.727,360.895 254.767 C 356.332 260.141,346.646 268.819,339.157 274.243 C 329.057 281.558,313.304 290.316,303.167 294.254 C 302.433 294.539,301.642 294.920,301.409 295.100 C 300.558 295.757,300.611 294.975,301.609 292.101 C 303.910 285.474,307.981 271.476,308.811 267.333 C 308.902 266.875,309.586 263.575,310.330 260.000 C 311.074 256.425,311.819 252.600,311.986 251.500 C 312.153 250.400,312.515 248.225,312.792 246.667 C 313.068 245.108,313.528 241.883,313.814 239.500 C 314.100 237.117,314.469 234.117,314.633 232.833 C 314.798 231.550,314.938 230.200,314.945 229.833 C 314.952 229.467,315.122 227.292,315.323 225.000 C 317.041 205.422,316.378 179.427,313.700 161.333 C 313.523 160.142,313.140 157.517,312.847 155.500 C 312.555 153.483,312.175 151.083,312.002 150.167 C 311.829 149.250,311.458 147.225,311.178 145.667 C 310.897 144.108,310.530 142.233,310.363 141.500 C 310.196 140.767,309.813 139.042,309.511 137.667 C 309.209 136.292,308.829 134.642,308.666 134.000 C 308.503 133.358,308.155 131.933,307.891 130.833 C 307.274 128.251,305.866 123.009,305.161 120.667 C 304.047 116.966,300.871 107.152,300.630 106.667 C 300.391 106.184,300.038 105.161,299.999 104.834 C 299.989 104.747,299.686 103.989,299.326 103.149 L 298.672 101.623 299.419 101.851 C 299.830 101.976,300.959 102.436,301.927 102.872 M98.500 102.583 C 96.912 106.475,92.019 121.624,90.779 126.489 C 90.037 129.402,88.695 134.951,88.359 136.500 C 87.300 141.375,85.553 150.337,85.144 153.000 C 83.959 160.699,83.061 167.560,82.809 170.833 C 82.753 171.567,82.538 174.192,82.333 176.667 C 80.632 197.146,81.295 222.467,84.003 240.500 C 84.196 241.783,84.574 244.333,84.843 246.167 C 85.112 248.000,85.470 250.250,85.637 251.167 C 85.804 252.083,86.178 254.183,86.467 255.833 C 86.756 257.483,87.152 259.508,87.347 260.333 C 87.542 261.158,87.908 262.808,88.160 264.000 C 88.412 265.192,88.780 266.767,88.979 267.500 C 89.177 268.233,89.554 269.733,89.815 270.833 C 90.322 272.962,90.439 273.400,91.821 278.333 C 92.308 280.075,92.907 282.250,93.151 283.167 C 93.559 284.698,95.435 290.495,95.902 291.667 C 96.727 293.734,97.187 295.333,96.959 295.333 C 96.696 295.333,94.273 294.299,91.500 293.004 C 90.767 292.662,89.117 291.902,87.833 291.316 C 82.672 288.960,75.022 284.974,72.167 283.155 C 71.250 282.571,69.878 281.777,69.118 281.391 C 68.358 281.005,67.533 280.492,67.285 280.251 C 67.036 280.010,65.818 279.176,64.577 278.397 C 62.597 277.155,57.767 273.852,56.833 273.101 C 56.650 272.954,55.900 272.388,55.166 271.843 C 53.805 270.832,53.693 270.745,52.452 269.744 C 45.086 263.799,36.224 254.837,31.833 248.893 C 30.917 247.652,29.674 245.970,29.072 245.157 C 27.801 243.439,22.409 234.567,22.007 233.534 C 21.857 233.149,21.281 231.858,20.727 230.667 C 9.016 205.481,12.247 175.151,29.057 152.469 C 35.751 143.438,42.724 135.949,49.667 130.333 C 50.461 129.692,51.273 129.015,51.472 128.829 C 51.671 128.643,52.883 127.672,54.167 126.670 C 55.450 125.669,56.575 124.771,56.667 124.675 C 57.156 124.162,68.274 116.667,68.545 116.667 C 68.664 116.667,69.734 116.052,70.923 115.301 C 72.112 114.551,73.703 113.596,74.459 113.179 C 75.215 112.763,76.583 112.004,77.500 111.494 C 79.520 110.369,84.819 107.711,87.333 106.563 C 91.758 104.542,93.576 103.736,94.667 103.314 C 95.308 103.065,96.208 102.669,96.667 102.433 C 97.909 101.794,98.793 101.866,98.500 102.583 M17.616 231.247 C 19.205 234.876,23.632 242.603,25.879 245.667 C 26.484 246.492,27.467 247.842,28.065 248.667 C 30.707 252.315,33.494 255.499,37.998 260.011 C 45.490 267.516,48.037 269.711,56.168 275.667 C 59.795 278.323,67.865 283.603,68.960 284.036 C 69.397 284.209,70.149 284.632,70.633 284.976 C 72.222 286.107,82.029 291.164,86.833 293.330 C 88.117 293.908,89.767 294.662,90.500 295.005 C 92.565 295.971,94.708 296.874,96.117 297.371 C 97.598 297.895,99.000 299.168,99.000 299.990 C 99.000 300.301,99.112 300.668,99.250 300.806 C 99.387 300.943,99.513 301.156,99.529 301.278 C 99.562 301.534,99.931 302.533,100.349 303.500 C 100.949 304.889,101.775 306.840,101.831 307.000 C 101.863 307.092,102.089 307.617,102.333 308.167 C 102.578 308.717,102.803 309.242,102.833 309.333 C 103.020 309.889,103.774 311.579,104.822 313.788 C 105.484 315.181,106.025 316.396,106.026 316.486 C 106.027 316.577,106.546 317.569,107.180 318.691 C 107.815 319.813,108.333 320.848,108.333 320.991 C 108.333 321.134,108.558 321.438,108.833 321.667 C 109.108 321.895,109.333 322.274,109.333 322.509 C 109.333 322.744,109.880 323.888,110.549 325.051 C 111.217 326.215,111.994 327.617,112.276 328.167 C 112.558 328.717,113.470 330.217,114.302 331.500 C 115.977 334.084,115.841 333.867,118.167 337.670 C 119.083 339.168,120.171 340.778,120.583 341.246 C 120.996 341.714,121.333 342.218,121.333 342.365 C 121.333 342.512,121.706 343.053,122.161 343.566 C 123.081 344.602,123.094 344.620,124.488 346.500 C 125.031 347.233,125.631 348.008,125.821 348.221 C 126.011 348.435,126.491 349.035,126.888 349.555 C 127.285 350.075,127.885 350.822,128.222 351.215 C 128.558 351.608,129.508 352.728,130.333 353.702 C 141.608 367.022,156.250 377.963,170.479 383.702 C 176.822 386.260,159.521 382.976,146.333 379.119 C 76.643 358.737,25.923 299.715,15.181 226.500 L 15.035 225.500 15.506 226.500 C 15.765 227.050,16.714 229.186,17.616 231.247 M381.509 231.881 C 368.919 308.947,308.943 369.588,231.201 383.856 C 223.662 385.240,223.555 385.212,228.576 383.160 C 242.620 377.421,257.089 366.282,269.000 352.040 C 269.825 351.053,270.658 350.078,270.851 349.873 C 271.045 349.668,272.239 348.075,273.506 346.333 C 274.773 344.592,275.889 343.092,275.988 343.000 C 278.312 340.834,288.114 323.875,292.748 314.000 C 295.082 309.027,295.328 308.465,297.476 303.203 C 298.589 300.473,299.726 298.127,300.000 297.991 C 300.929 297.531,302.159 297.021,304.000 296.332 C 305.008 295.955,306.433 295.362,307.167 295.014 C 307.900 294.666,309.550 293.910,310.833 293.334 C 313.379 292.191,319.424 289.156,322.333 287.560 C 323.342 287.007,324.767 286.228,325.500 285.828 C 327.324 284.834,338.302 278.026,339.333 277.250 C 342.845 274.607,348.232 270.465,348.528 270.181 C 348.727 269.990,349.539 269.308,350.333 268.667 C 357.455 262.907,365.123 254.705,371.526 246.000 C 374.465 242.005,379.297 233.267,381.340 228.254 C 382.456 225.514,382.477 225.958,381.509 231.881 M103.167 300.062 C 103.717 300.241,104.467 300.520,104.833 300.682 C 105.839 301.125,114.747 304.013,118.833 305.220 C 119.750 305.491,120.950 305.846,121.500 306.008 C 122.050 306.171,123.400 306.545,124.500 306.840 C 125.600 307.135,127.025 307.518,127.667 307.691 C 128.733 307.979,131.407 308.606,134.833 309.371 C 136.675 309.782,140.621 310.570,144.000 311.201 C 145.558 311.492,147.508 311.861,148.333 312.021 C 149.158 312.181,151.483 312.560,153.500 312.862 C 155.517 313.164,157.992 313.537,159.000 313.692 C 160.882 313.979,168.785 314.801,175.000 315.354 C 194.054 317.051,220.661 316.343,238.500 313.664 C 239.783 313.471,242.333 313.093,244.167 312.824 C 246.000 312.554,248.250 312.197,249.167 312.030 C 250.083 311.862,252.183 311.490,253.833 311.203 C 256.765 310.693,260.664 309.893,263.000 309.322 C 263.642 309.165,265.142 308.805,266.333 308.522 C 267.525 308.238,269.100 307.845,269.833 307.649 C 270.567 307.452,271.992 307.087,273.000 306.838 C 274.008 306.588,276.183 305.986,277.833 305.498 C 279.483 305.010,281.283 304.485,281.833 304.331 C 282.383 304.177,283.433 303.882,284.167 303.676 C 284.900 303.470,285.800 303.165,286.167 302.998 C 286.533 302.831,287.733 302.397,288.833 302.034 C 291.041 301.305,295.166 299.861,296.094 299.491 C 296.712 299.244,296.291 300.693,294.818 303.884 C 294.552 304.461,294.333 305.020,294.333 305.125 C 294.333 305.311,293.080 308.115,291.483 311.500 C 291.051 312.417,290.680 313.317,290.658 313.500 C 290.637 313.683,290.416 314.058,290.167 314.333 C 289.918 314.608,289.720 314.908,289.728 315.000 C 289.750 315.264,287.726 319.360,287.348 319.816 C 287.160 320.043,287.083 320.305,287.178 320.400 C 287.272 320.494,287.121 320.761,286.841 320.993 C 286.562 321.225,286.333 321.611,286.333 321.851 C 286.333 322.091,286.022 322.785,285.642 323.394 C 285.261 324.002,283.424 326.988,281.558 330.029 C 255.426 372.628,220.421 392.018,183.500 384.344 C 164.251 380.344,143.914 366.956,129.333 348.685 C 128.692 347.881,128.015 347.061,127.829 346.862 C 127.643 346.663,126.857 345.675,126.082 344.667 C 125.307 343.658,124.556 342.683,124.414 342.500 C 122.069 339.485,115.219 328.917,113.610 325.833 C 113.323 325.283,112.625 324.008,112.059 323.000 C 109.514 318.467,104.873 308.806,103.012 304.167 C 102.015 301.681,101.414 300.264,101.044 299.527 C 100.956 299.351,101.163 299.330,101.529 299.477 C 101.880 299.619,102.617 299.882,103.167 300.062 " stroke="none" fill="#040404" fill-rule="evenodd"></path><path id="path1" d="M187.000 16.657 C 174.813 17.768,155.319 27.373,143.667 38.009 C 137.428 43.704,130.290 51.358,126.419 56.506 C 126.007 57.053,125.222 58.100,124.673 58.833 C 124.124 59.567,123.559 60.317,123.418 60.500 C 122.603 61.556,116.000 71.594,116.000 71.775 C 116.000 71.895,115.352 73.007,114.561 74.247 C 113.770 75.486,112.889 76.950,112.604 77.500 C 111.031 80.537,106.948 88.756,106.229 90.333 C 105.768 91.342,104.929 93.163,104.363 94.381 C 103.386 96.483,103.135 97.333,103.493 97.333 C 103.727 97.333,106.413 96.328,107.011 96.017 C 107.292 95.871,108.042 95.640,108.678 95.504 C 109.313 95.368,109.983 95.148,110.167 95.016 C 110.350 94.884,111.400 94.514,112.500 94.195 C 113.600 93.875,114.875 93.480,115.333 93.317 C 116.528 92.893,123.170 91.024,125.333 90.504 C 126.342 90.261,127.992 89.842,129.000 89.573 C 130.008 89.304,132.333 88.756,134.167 88.356 C 136.000 87.956,138.175 87.477,139.000 87.291 C 139.825 87.105,141.100 86.818,141.833 86.653 C 142.567 86.488,144.292 86.181,145.667 85.969 C 147.042 85.758,148.842 85.457,149.667 85.299 C 151.019 85.041,154.014 84.598,160.833 83.647 C 164.047 83.199,171.990 82.374,177.000 81.968 C 179.292 81.782,187.692 81.546,195.667 81.443 C 211.563 81.237,214.400 81.363,231.333 83.027 C 236.826 83.566,243.774 84.517,248.167 85.331 C 249.267 85.535,251.367 85.919,252.833 86.184 C 254.300 86.449,256.100 86.802,256.833 86.968 C 257.567 87.134,259.067 87.441,260.167 87.650 C 262.678 88.128,266.281 88.945,268.667 89.577 C 269.675 89.844,271.325 90.259,272.333 90.498 C 273.342 90.738,274.992 91.180,276.000 91.482 C 282.822 93.521,291.055 96.157,292.167 96.658 C 294.858 97.870,294.858 97.868,291.252 90.000 C 290.706 88.808,290.126 87.533,289.964 87.167 C 289.801 86.800,289.527 86.275,289.354 86.000 C 289.181 85.725,288.564 84.525,287.983 83.333 C 286.671 80.643,285.042 77.662,284.522 77.000 C 284.306 76.725,283.950 76.080,283.730 75.566 C 283.511 75.052,282.732 73.729,281.999 72.626 C 281.266 71.522,280.667 70.503,280.667 70.361 C 280.667 69.518,271.976 57.298,268.201 52.833 C 252.112 33.805,234.661 22.192,215.000 17.428 C 211.221 16.512,193.839 16.033,187.000 16.657 M161.667 20.018 C 91.722 34.932,38.139 85.600,19.692 154.270 C 18.476 158.796,16.667 166.842,16.667 167.721 C 16.667 167.929,17.505 166.389,18.530 164.299 C 20.505 160.273,23.986 154.310,25.557 152.262 C 26.076 151.586,26.950 150.401,27.500 149.629 C 36.137 137.504,54.263 121.624,68.167 114.002 C 69.267 113.399,70.542 112.651,71.000 112.339 C 71.458 112.027,72.283 111.543,72.833 111.262 C 73.383 110.982,74.583 110.335,75.500 109.826 C 77.664 108.623,84.454 105.218,86.167 104.477 C 86.900 104.159,88.421 103.472,89.548 102.950 C 90.674 102.427,91.682 102.000,91.788 102.000 C 91.894 102.000,92.772 101.648,93.740 101.219 C 94.708 100.789,96.025 100.240,96.667 99.999 C 97.308 99.757,97.976 99.434,98.150 99.280 C 98.324 99.126,98.740 99.000,99.075 99.000 C 99.662 99.000,100.289 97.944,100.561 96.500 C 100.630 96.133,100.832 95.783,101.010 95.722 C 101.188 95.661,101.333 95.484,101.333 95.329 C 101.333 95.043,103.094 90.988,103.681 89.921 C 103.857 89.603,104.000 89.115,104.000 88.838 C 104.000 88.560,104.150 88.333,104.333 88.333 C 104.517 88.333,104.667 88.094,104.667 87.801 C 104.667 87.509,104.878 86.871,105.137 86.385 C 105.396 85.898,106.315 84.075,107.179 82.333 C 109.510 77.638,111.657 73.617,112.361 72.628 C 112.703 72.147,113.125 71.397,113.297 70.960 C 113.582 70.239,118.176 63.066,120.058 60.403 C 121.850 57.868,126.537 51.591,127.390 50.585 C 138.997 36.888,152.009 26.220,164.129 20.465 C 167.855 18.695,167.862 18.697,161.667 20.018 M235.167 21.441 C 253.425 30.984,272.881 50.532,283.663 70.167 C 284.267 71.267,285.016 72.542,285.328 73.000 C 285.640 73.458,286.124 74.283,286.404 74.833 C 286.685 75.383,287.327 76.583,287.832 77.500 C 290.230 81.852,292.876 87.327,295.163 92.667 C 297.536 98.208,297.964 99.000,298.582 99.000 C 298.922 99.000,299.342 99.126,299.517 99.280 C 299.691 99.434,300.358 99.757,301.000 99.999 C 301.642 100.240,302.959 100.789,303.927 101.219 C 304.894 101.648,305.747 102.000,305.820 102.000 C 306.304 102.000,321.371 109.356,324.833 111.283 C 327.061 112.522,336.660 118.564,339.167 120.304 C 340.267 121.067,341.542 121.945,342.000 122.255 C 342.458 122.565,342.908 122.897,343.000 122.994 C 343.092 123.091,344.067 123.833,345.167 124.643 C 346.952 125.957,347.975 126.793,352.330 130.495 C 362.173 138.863,372.941 152.299,378.513 163.167 C 381.088 168.188,381.117 168.004,379.122 159.333 C 363.107 89.745,306.855 34.740,236.797 20.163 C 230.807 18.917,230.619 19.064,235.167 21.441 M189.000 83.526 C 188.542 83.598,185.242 83.813,181.667 84.004 C 175.108 84.354,167.131 85.046,162.833 85.637 C 161.550 85.814,158.850 86.184,156.833 86.460 C 154.817 86.737,152.267 87.129,151.167 87.331 C 150.067 87.534,147.892 87.916,146.333 88.179 C 144.775 88.443,142.825 88.811,142.000 88.997 C 141.175 89.183,139.450 89.552,138.167 89.816 C 131.119 91.265,126.968 92.330,118.333 94.906 C 114.835 95.949,107.735 98.259,106.833 98.648 C 106.467 98.806,105.216 99.273,104.055 99.685 C 102.071 100.390,101.896 100.539,101.170 102.135 C 99.769 105.214,94.485 120.871,93.847 123.833 C 93.768 124.200,93.531 125.025,93.321 125.667 C 93.111 126.308,92.738 127.658,92.491 128.667 C 92.244 129.675,91.879 131.100,91.680 131.833 C 91.480 132.567,91.108 134.142,90.853 135.333 C 90.598 136.525,90.000 139.300,89.525 141.500 C 88.199 147.629,86.651 156.555,85.999 161.833 C 85.817 163.300,85.521 165.625,85.340 167.000 C 85.030 169.352,84.656 173.378,84.504 176.000 C 84.467 176.642,84.226 179.942,83.968 183.333 C 82.889 197.542,83.672 222.390,85.654 236.833 C 86.400 242.269,86.985 246.294,87.303 248.167 C 87.489 249.267,87.870 251.517,88.150 253.167 C 88.430 254.817,88.795 256.767,88.962 257.500 C 89.129 258.233,89.432 259.658,89.634 260.667 C 89.958 262.276,91.373 268.307,91.864 270.167 C 91.961 270.533,92.395 272.183,92.829 273.833 C 94.053 278.487,96.301 285.987,97.325 288.833 C 99.966 296.177,100.076 296.398,101.315 296.926 C 104.069 298.100,112.193 300.884,118.000 302.644 C 119.925 303.227,122.250 303.938,123.167 304.223 C 124.083 304.508,125.658 304.938,126.667 305.179 C 127.675 305.420,129.775 305.925,131.333 306.302 C 138.743 308.094,140.245 308.402,149.500 310.029 C 150.600 310.222,151.800 310.447,152.167 310.529 C 154.275 310.998,163.207 312.142,168.667 312.642 C 178.017 313.498,180.209 313.671,186.383 314.040 C 198.641 314.774,221.740 313.807,234.833 312.013 C 240.220 311.274,244.290 310.682,246.167 310.364 C 255.534 308.776,257.348 308.432,262.000 307.360 C 265.492 306.554,267.403 306.064,268.667 305.649 C 269.125 305.498,270.025 305.281,270.667 305.167 C 271.308 305.052,272.208 304.833,272.667 304.680 C 273.125 304.527,274.400 304.153,275.500 303.850 C 282.417 301.941,292.505 298.573,295.011 297.337 C 295.292 297.198,295.990 296.982,296.562 296.856 C 297.718 296.602,297.618 296.794,299.625 291.000 C 302.199 283.569,304.744 274.936,306.307 268.333 C 308.758 257.981,311.129 245.077,312.002 237.333 C 312.538 232.588,313.027 227.686,313.133 226.000 C 313.185 225.175,313.439 221.650,313.697 218.167 C 314.762 203.805,313.988 179.064,312.030 164.833 C 311.853 163.550,311.482 160.850,311.206 158.833 C 310.930 156.817,310.538 154.267,310.335 153.167 C 310.133 152.067,309.751 149.892,309.487 148.333 C 309.224 146.775,308.871 144.900,308.703 144.167 C 308.535 143.433,308.231 141.933,308.028 140.833 C 307.825 139.733,307.510 138.271,307.329 137.583 C 307.148 136.896,306.853 135.771,306.673 135.083 C 306.493 134.396,306.107 132.783,305.817 131.500 C 305.526 130.217,305.145 128.790,304.970 128.329 C 304.794 127.868,304.576 127.043,304.484 126.496 C 304.391 125.948,304.185 125.125,304.025 124.667 C 303.866 124.208,303.483 122.933,303.174 121.833 C 302.866 120.733,302.473 119.458,302.302 119.000 C 302.131 118.542,301.931 117.851,301.857 117.464 C 301.706 116.670,299.464 109.854,299.018 108.833 C 298.635 107.955,298.270 106.833,298.368 106.833 C 298.411 106.833,298.240 106.458,297.989 106.000 C 297.738 105.542,297.502 105.017,297.466 104.833 C 297.429 104.650,297.210 104.050,296.978 103.500 C 296.746 102.950,296.533 102.425,296.504 102.333 C 296.103 101.042,295.395 100.325,294.044 99.844 C 293.195 99.541,291.525 98.935,290.333 98.496 C 289.142 98.057,287.717 97.595,287.167 97.470 C 286.617 97.344,286.017 97.137,285.833 97.009 C 285.650 96.881,284.600 96.512,283.500 96.189 C 282.400 95.865,280.675 95.322,279.667 94.982 C 278.658 94.641,277.233 94.213,276.500 94.030 C 275.767 93.848,273.742 93.301,272.000 92.816 C 266.653 91.326,267.119 91.438,259.500 89.822 C 255.747 89.027,254.555 88.791,251.333 88.206 C 249.775 87.924,247.600 87.526,246.500 87.323 C 244.494 86.953,239.528 86.226,235.167 85.665 C 232.247 85.289,222.609 84.406,216.667 83.969 C 212.089 83.634,190.520 83.288,189.000 83.526 M299.000 101.785 C 299.000 101.895,299.387 103.001,299.860 104.242 C 303.721 114.375,307.338 126.879,310.202 140.000 C 310.662 142.108,311.090 144.208,311.154 144.667 C 311.217 145.125,311.590 147.265,311.983 149.421 C 312.377 151.578,312.761 153.828,312.838 154.421 C 312.914 155.015,313.133 156.550,313.324 157.833 C 314.126 163.215,314.407 165.456,315.015 171.333 C 316.278 183.543,316.647 210.409,315.707 221.667 C 315.455 224.692,315.196 227.895,315.132 228.785 C 314.959 231.211,313.909 240.399,313.527 242.833 C 313.441 243.383,313.219 244.808,313.034 246.000 C 312.850 247.192,312.528 249.142,312.320 250.333 C 312.111 251.525,311.890 252.800,311.828 253.167 C 311.588 254.584,310.103 262.040,309.704 263.833 C 309.005 266.970,308.316 269.925,307.993 271.167 C 307.434 273.323,307.404 273.439,307.056 274.833 C 306.872 275.567,306.569 276.657,306.383 277.256 C 306.196 277.855,306.029 278.416,306.012 278.503 C 305.996 278.589,305.922 278.849,305.850 279.080 C 305.398 280.520,304.191 284.555,304.129 284.833 C 304.089 285.017,303.732 286.142,303.337 287.333 C 302.941 288.525,302.562 289.725,302.493 290.000 C 302.424 290.275,302.037 291.440,301.634 292.589 C 300.728 295.171,300.790 295.233,303.209 294.162 C 304.286 293.685,305.467 293.164,305.833 293.004 C 310.331 291.041,316.152 288.187,320.333 285.894 C 321.342 285.341,322.767 284.562,323.500 284.164 C 327.778 281.842,339.992 273.802,342.221 271.841 C 342.435 271.654,343.102 271.125,343.705 270.667 C 348.826 266.773,354.976 261.118,360.000 255.682 C 397.450 215.166,390.097 161.584,342.167 125.723 C 336.666 121.607,326.197 114.898,320.333 111.730 C 316.907 109.879,309.383 106.212,305.833 104.662 C 305.467 104.502,304.342 104.008,303.333 103.565 C 302.325 103.121,301.125 102.644,300.667 102.505 C 300.208 102.366,299.646 102.102,299.417 101.918 C 299.188 101.735,299.000 101.675,299.000 101.785 M96.931 102.520 C 96.251 102.759,95.201 103.175,94.597 103.444 C 93.994 103.713,91.850 104.654,89.833 105.535 C 86.322 107.070,80.705 109.859,77.167 111.826 C 76.250 112.335,75.050 112.986,74.500 113.271 C 73.950 113.556,72.525 114.408,71.333 115.166 C 70.142 115.923,68.928 116.632,68.635 116.741 C 67.945 116.999,59.903 122.310,58.897 123.174 C 58.679 123.361,57.675 124.109,56.667 124.838 C 11.347 157.567,0.710 207.608,30.667 247.158 C 31.492 248.247,32.317 249.395,32.500 249.708 C 33.944 252.179,43.312 261.802,49.118 266.779 C 50.008 267.542,51.058 268.443,51.452 268.781 C 51.845 269.118,53.592 270.468,55.333 271.781 C 57.075 273.093,58.575 274.248,58.667 274.347 C 58.758 274.446,60.483 275.596,62.500 276.904 C 64.517 278.211,66.542 279.570,67.000 279.923 C 67.458 280.276,68.733 281.059,69.833 281.663 C 70.933 282.267,72.211 283.025,72.673 283.348 C 74.872 284.886,85.930 290.443,92.167 293.144 C 92.900 293.461,94.245 294.077,95.155 294.512 C 97.000 295.393,97.286 295.345,96.737 294.249 C 96.233 293.243,93.912 286.222,92.853 282.500 C 92.384 280.850,91.855 279.050,91.677 278.500 C 91.212 277.055,88.410 265.914,87.820 263.167 C 86.300 256.083,85.231 250.187,84.464 244.667 C 84.197 242.742,83.829 240.117,83.646 238.833 C 83.205 235.741,82.387 227.846,81.971 222.667 C 81.787 220.375,81.550 211.975,81.444 204.000 C 81.260 190.025,81.412 185.206,82.350 175.333 C 82.533 173.408,82.832 170.258,83.014 168.333 C 83.298 165.347,83.584 162.896,84.142 158.667 C 84.271 157.696,84.807 154.423,85.345 151.333 C 85.553 150.142,85.778 148.792,85.845 148.333 C 85.913 147.875,86.126 146.750,86.319 145.833 C 86.512 144.917,86.894 143.042,87.168 141.667 C 87.442 140.292,87.803 138.567,87.970 137.833 C 88.137 137.100,88.502 135.450,88.780 134.167 C 89.213 132.169,90.082 128.760,91.370 124.000 C 91.544 123.358,91.746 122.608,91.819 122.333 C 91.892 122.058,92.273 120.858,92.667 119.667 C 93.060 118.475,93.433 117.275,93.494 117.000 C 93.556 116.725,93.834 115.825,94.111 115.000 C 94.533 113.747,95.361 110.940,95.489 110.333 C 95.508 110.242,95.711 109.829,95.940 109.417 C 96.169 109.004,96.282 108.667,96.190 108.667 C 96.099 108.667,96.313 107.992,96.667 107.167 C 97.020 106.342,97.235 105.667,97.143 105.667 C 97.051 105.667,97.164 105.329,97.393 104.917 C 97.622 104.504,97.822 104.092,97.838 104.000 C 97.853 103.908,97.985 103.485,98.130 103.058 C 98.476 102.043,98.391 102.005,96.931 102.520 M15.348 227.013 C 15.329 228.093,16.767 236.177,17.848 241.071 C 33.967 314.059,92.363 370.546,165.269 383.674 C 172.601 384.995,172.880 384.894,167.962 382.699 C 152.027 375.587,137.225 363.574,125.667 348.372 C 125.208 347.769,124.678 347.101,124.489 346.888 C 122.210 344.321,114.033 331.763,110.996 326.167 C 106.622 318.106,103.194 310.873,100.150 303.283 C 98.036 298.011,98.259 298.278,94.916 297.026 C 93.827 296.618,91.360 295.544,89.500 294.667 C 88.767 294.321,87.417 293.710,86.500 293.309 C 82.355 291.497,72.826 286.564,70.673 285.115 C 70.034 284.685,69.402 284.333,69.267 284.333 C 69.011 284.333,63.623 281.001,63.333 280.664 C 63.242 280.557,61.592 279.434,59.667 278.169 C 57.742 276.904,56.017 275.747,55.833 275.597 C 55.650 275.448,54.900 274.876,54.167 274.327 C 53.433 273.778,52.386 272.993,51.839 272.581 C 36.423 260.987,22.674 243.987,16.456 228.833 C 15.735 227.076,15.357 226.455,15.348 227.013 M382.000 226.597 C 382.000 227.163,378.891 233.820,376.970 237.366 C 372.158 246.249,364.684 255.648,355.791 264.000 C 354.522 265.192,352.685 266.842,351.707 267.667 C 350.730 268.492,349.608 269.442,349.215 269.778 C 348.822 270.115,348.075 270.715,347.555 271.112 C 347.035 271.509,346.435 271.989,346.221 272.179 C 346.008 272.369,345.233 272.968,344.500 273.510 C 343.767 274.052,343.092 274.576,343.000 274.672 C 342.908 274.769,342.458 275.103,342.000 275.413 C 341.542 275.724,340.492 276.459,339.667 277.046 C 332.878 281.878,319.224 289.701,311.667 293.090 C 311.025 293.377,309.477 294.075,308.227 294.640 C 306.976 295.205,305.893 295.667,305.820 295.667 C 305.747 295.667,304.894 296.023,303.927 296.460 C 302.959 296.896,301.623 297.444,300.958 297.678 C 299.781 298.093,298.783 299.686,298.147 302.167 C 298.100 302.350,297.718 303.250,297.299 304.167 C 296.880 305.083,296.506 305.983,296.470 306.167 C 296.433 306.350,295.849 307.700,295.171 309.167 C 294.493 310.633,293.709 312.358,293.430 313.000 C 292.672 314.738,287.699 324.656,286.910 326.000 C 282.327 333.818,276.628 342.688,273.954 346.167 C 273.249 347.083,272.557 347.983,272.417 348.167 C 270.771 350.310,269.784 351.564,269.505 351.865 C 269.319 352.066,268.267 353.258,267.167 354.512 C 255.845 367.427,241.941 377.839,228.909 383.161 C 226.751 384.042,225.030 384.808,225.084 384.862 C 225.334 385.112,238.200 382.525,244.333 380.992 C 315.200 363.279,369.725 304.010,381.509 231.881 C 381.984 228.974,382.289 226.511,382.186 226.409 C 382.084 226.306,382.000 226.391,382.000 226.597 M102.078 301.583 C 102.476 302.637,102.917 303.582,103.059 303.681 C 103.200 303.781,103.372 304.156,103.441 304.514 C 103.509 304.873,103.763 305.617,104.004 306.167 C 104.246 306.717,104.469 307.242,104.500 307.333 C 105.088 309.088,109.367 317.822,109.699 317.944 C 109.864 318.006,110.000 318.325,110.000 318.654 C 110.000 318.983,110.225 319.438,110.500 319.667 C 110.775 319.895,111.000 320.345,111.000 320.667 C 111.000 320.988,111.225 321.438,111.500 321.667 C 111.775 321.895,112.000 322.192,112.000 322.326 C 112.000 322.967,120.907 337.547,122.072 338.813 C 122.399 339.168,122.667 339.570,122.667 339.706 C 122.667 339.841,122.854 340.151,123.083 340.393 C 123.313 340.635,124.164 341.733,124.975 342.833 C 129.881 349.487,136.960 357.330,142.339 362.071 C 143.528 363.119,145.025 364.442,145.667 365.011 C 146.308 365.580,147.433 366.492,148.167 367.037 C 148.900 367.583,150.550 368.817,151.833 369.780 C 155.561 372.579,167.973 379.667,169.144 379.667 C 169.252 379.667,169.976 379.964,170.754 380.327 C 180.885 385.058,197.298 387.086,210.000 385.175 C 231.903 381.881,255.330 366.371,271.944 344.167 C 277.758 336.396,283.916 326.457,288.261 317.833 C 291.895 310.620,296.525 300.081,296.202 299.758 C 296.057 299.612,293.910 300.283,292.167 301.018 C 289.920 301.966,283.329 304.084,278.167 305.518 C 270.394 307.677,265.632 308.882,261.167 309.822 C 259.883 310.092,257.858 310.526,256.667 310.786 C 255.475 311.047,253.375 311.445,252.000 311.671 C 250.625 311.897,248.825 312.210,248.000 312.367 C 247.175 312.524,244.775 312.891,242.667 313.182 C 240.558 313.473,237.858 313.856,236.667 314.034 C 234.070 314.422,226.035 315.250,220.500 315.701 C 218.300 315.881,209.975 316.114,202.000 316.221 C 188.020 316.407,183.213 316.256,173.333 315.317 C 171.408 315.134,168.258 314.834,166.333 314.651 C 161.473 314.189,153.985 313.161,149.500 312.340 C 148.400 312.139,146.300 311.757,144.833 311.492 C 143.367 311.227,141.492 310.857,140.667 310.671 C 139.842 310.485,138.042 310.106,136.667 309.830 C 130.495 308.589,124.683 307.164,121.000 305.990 C 120.542 305.844,118.592 305.245,116.667 304.658 C 111.306 303.025,103.235 300.348,102.588 299.988 C 101.466 299.365,101.363 299.686,102.078 301.583 " stroke="none" fill="#fbfbfb" fill-rule="evenodd"></path><path id="path2" d="M134.146 43.083 L 133.167 44.167 134.250 43.188 C 134.846 42.649,135.333 42.162,135.333 42.104 C 135.333 41.847,135.058 42.074,134.146 43.083 M119.936 60.583 C 119.348 61.267,118.908 62.000,119.084 62.000 C 119.152 62.000,119.541 61.550,119.947 61.000 C 120.751 59.913,120.743 59.643,119.936 60.583 M185.427 81.579 C 186.303 81.648,187.653 81.647,188.427 81.577 C 189.200 81.507,188.483 81.451,186.833 81.452 C 185.183 81.453,184.550 81.510,185.427 81.579 M210.083 81.576 C 210.771 81.648,211.896 81.648,212.583 81.576 C 213.271 81.504,212.708 81.445,211.333 81.445 C 209.958 81.445,209.396 81.504,210.083 81.576 M232.083 83.230 C 232.404 83.314,232.929 83.314,233.250 83.230 C 233.571 83.146,233.308 83.077,232.667 83.077 C 232.025 83.077,231.762 83.146,232.083 83.230 M172.587 84.569 C 173.002 84.649,173.602 84.646,173.921 84.562 C 174.239 84.479,173.900 84.414,173.167 84.417 C 172.433 84.421,172.173 84.489,172.587 84.569 M223.250 84.569 C 223.662 84.648,224.338 84.648,224.750 84.569 C 225.162 84.489,224.825 84.424,224.000 84.424 C 223.175 84.424,222.838 84.489,223.250 84.569 M313.084 175.167 C 313.088 175.900,313.156 176.161,313.236 175.746 C 313.315 175.331,313.312 174.731,313.229 174.413 C 313.146 174.094,313.080 174.433,313.084 175.167 M84.411 176.000 C 84.411 176.642,84.479 176.904,84.563 176.583 C 84.647 176.262,84.647 175.737,84.563 175.417 C 84.479 175.096,84.411 175.358,84.411 176.000 M83.757 184.333 C 83.757 185.158,83.822 185.496,83.902 185.083 C 83.981 184.671,83.981 183.996,83.902 183.583 C 83.822 183.171,83.757 183.508,83.757 184.333 M81.445 188.333 C 81.445 189.708,81.504 190.271,81.576 189.583 C 81.648 188.896,81.648 187.771,81.576 187.083 C 81.504 186.396,81.445 186.958,81.445 188.333 M316.116 188.667 C 316.116 190.225,316.174 190.862,316.244 190.083 C 316.314 189.304,316.314 188.029,316.244 187.250 C 316.174 186.471,316.116 187.108,316.116 188.667 M81.450 212.667 C 81.450 214.225,81.507 214.862,81.577 214.083 C 81.648 213.304,81.648 212.029,81.577 211.250 C 81.507 210.471,81.450 211.108,81.450 212.667 M316.112 213.333 C 316.112 214.708,316.171 215.271,316.243 214.583 C 316.315 213.896,316.315 212.771,316.243 212.083 C 316.171 211.396,316.112 211.958,316.112 213.333 M313.762 217.167 C 313.765 218.083,313.829 218.419,313.906 217.912 C 313.982 217.405,313.980 216.655,313.901 216.245 C 313.822 215.835,313.760 216.250,313.762 217.167 M313.077 225.667 C 313.077 226.308,313.146 226.571,313.230 226.250 C 313.314 225.929,313.314 225.404,313.230 225.083 C 313.146 224.762,313.077 225.025,313.077 225.667 M84.417 226.500 C 84.421 227.233,84.489 227.494,84.569 227.079 C 84.649 226.665,84.646 226.065,84.562 225.746 C 84.479 225.427,84.414 225.767,84.417 226.500 M83.077 234.667 C 83.077 235.308,83.146 235.571,83.230 235.250 C 83.314 234.929,83.314 234.404,83.230 234.083 C 83.146 233.762,83.077 234.025,83.077 234.667 M314.411 234.667 C 314.411 235.308,314.479 235.571,314.563 235.250 C 314.647 234.929,314.647 234.404,314.563 234.083 C 314.479 233.762,314.411 234.025,314.411 234.667 M162.750 312.230 C 163.071 312.314,163.596 312.314,163.917 312.230 C 164.237 312.146,163.975 312.077,163.333 312.077 C 162.692 312.077,162.429 312.146,162.750 312.230 M172.917 313.235 C 173.329 313.315,174.004 313.315,174.417 313.235 C 174.829 313.156,174.492 313.091,173.667 313.091 C 172.842 313.091,172.504 313.156,172.917 313.235 M223.921 313.236 C 224.335 313.315,224.935 313.312,225.254 313.229 C 225.573 313.146,225.233 313.080,224.500 313.084 C 223.767 313.088,223.506 313.156,223.921 313.236 M232.083 314.563 C 232.404 314.647,232.929 314.647,233.250 314.563 C 233.571 314.479,233.308 314.411,232.667 314.411 C 232.025 314.411,231.762 314.479,232.083 314.563 M185.083 316.243 C 185.771 316.315,186.896 316.315,187.583 316.243 C 188.271 316.171,187.708 316.112,186.333 316.112 C 184.958 316.112,184.396 316.171,185.083 316.243 M209.250 316.244 C 210.029 316.314,211.304 316.314,212.083 316.244 C 212.862 316.174,212.225 316.116,210.667 316.116 C 209.108 316.116,208.471 316.174,209.250 316.244 M133.667 353.771 C 133.667 353.828,134.154 354.316,134.750 354.854 L 135.833 355.833 134.854 354.750 C 133.942 353.740,133.667 353.513,133.667 353.771 " stroke="none" fill="#9e9e9e" fill-rule="evenodd"></path><path id="path3" d="M174.755 82.239 C 175.261 82.316,176.011 82.314,176.421 82.235 C 176.831 82.156,176.417 82.093,175.500 82.095 C 174.583 82.098,174.248 82.163,174.755 82.239 M220.917 82.235 C 221.329 82.315,222.004 82.315,222.417 82.235 C 222.829 82.156,222.492 82.091,221.667 82.091 C 220.842 82.091,220.504 82.156,220.917 82.235 M181.250 83.908 C 181.846 83.982,182.821 83.982,183.417 83.908 C 184.012 83.834,183.525 83.773,182.333 83.773 C 181.142 83.773,180.654 83.834,181.250 83.908 M214.256 83.908 C 214.855 83.982,215.755 83.981,216.256 83.905 C 216.757 83.829,216.267 83.768,215.167 83.770 C 214.067 83.772,213.657 83.834,214.256 83.908 M233.750 85.563 C 234.071 85.647,234.596 85.647,234.917 85.563 C 235.237 85.479,234.975 85.411,234.333 85.411 C 233.692 85.411,233.429 85.479,233.750 85.563 M315.417 177.167 C 315.421 177.900,315.489 178.161,315.569 177.746 C 315.649 177.331,315.646 176.731,315.562 176.413 C 315.479 176.094,315.414 176.433,315.417 177.167 M313.762 184.167 C 313.765 185.083,313.829 185.419,313.906 184.912 C 313.982 184.405,313.980 183.655,313.901 183.245 C 313.822 182.835,313.760 183.250,313.762 184.167 M83.767 217.333 C 83.767 218.342,83.829 218.754,83.905 218.250 C 83.982 217.746,83.982 216.921,83.905 216.417 C 83.829 215.912,83.767 216.325,83.767 217.333 M181.417 313.905 C 181.921 313.982,182.746 313.982,183.250 313.905 C 183.754 313.829,183.342 313.767,182.333 313.767 C 181.325 313.767,180.912 313.829,181.417 313.905 M214.250 313.908 C 214.846 313.982,215.821 313.982,216.417 313.908 C 217.012 313.834,216.525 313.773,215.333 313.773 C 214.142 313.773,213.654 313.834,214.250 313.908 M175.250 315.569 C 175.662 315.648,176.338 315.648,176.750 315.569 C 177.162 315.489,176.825 315.424,176.000 315.424 C 175.175 315.424,174.838 315.489,175.250 315.569 M221.421 315.573 C 221.928 315.649,222.678 315.647,223.088 315.568 C 223.498 315.489,223.083 315.426,222.167 315.429 C 221.250 315.431,220.915 315.496,221.421 315.573 " stroke="none" fill="#7c7c7c" fill-rule="evenodd"></path><path id="path4" d="M168.083 82.896 C 168.404 82.980,168.929 82.980,169.250 82.896 C 169.571 82.813,169.308 82.744,168.667 82.744 C 168.025 82.744,167.762 82.813,168.083 82.896 M228.254 82.902 C 228.669 82.982,229.269 82.979,229.587 82.896 C 229.906 82.812,229.567 82.747,228.833 82.751 C 228.100 82.754,227.839 82.823,228.254 82.902 M168.417 84.896 C 168.737 84.980,169.262 84.980,169.583 84.896 C 169.904 84.813,169.642 84.744,169.000 84.744 C 168.358 84.744,168.096 84.813,168.417 84.896 M227.921 84.902 C 228.335 84.982,228.935 84.979,229.254 84.896 C 229.573 84.812,229.233 84.747,228.500 84.751 C 227.767 84.754,227.506 84.823,227.921 84.902 M314.744 170.667 C 314.744 171.308,314.813 171.571,314.896 171.250 C 314.980 170.929,314.980 170.404,314.896 170.083 C 314.813 169.762,314.744 170.025,314.744 170.667 M84.744 171.000 C 84.744 171.642,84.813 171.904,84.896 171.583 C 84.980 171.262,84.980 170.737,84.896 170.417 C 84.813 170.096,84.744 170.358,84.744 171.000 M82.077 178.000 C 82.077 178.642,82.146 178.904,82.230 178.583 C 82.314 178.262,82.314 177.737,82.230 177.417 C 82.146 177.096,82.077 177.358,82.077 178.000 M315.411 223.667 C 315.411 224.308,315.479 224.571,315.563 224.250 C 315.647 223.929,315.647 223.404,315.563 223.083 C 315.479 222.762,315.411 223.025,315.411 223.667 M312.751 230.500 C 312.754 231.233,312.823 231.494,312.902 231.079 C 312.982 230.665,312.979 230.065,312.896 229.746 C 312.812 229.427,312.747 229.767,312.751 230.500 M84.744 230.667 C 84.744 231.308,84.813 231.571,84.896 231.250 C 84.980 230.929,84.980 230.404,84.896 230.083 C 84.813 229.762,84.744 230.025,84.744 230.667 M82.744 231.000 C 82.744 231.642,82.813 231.904,82.896 231.583 C 82.980 231.262,82.980 230.737,82.896 230.417 C 82.813 230.096,82.744 230.358,82.744 231.000 M168.417 312.896 C 168.737 312.980,169.262 312.980,169.583 312.896 C 169.904 312.813,169.642 312.744,169.000 312.744 C 168.358 312.744,168.096 312.813,168.417 312.896 M228.083 312.896 C 228.404 312.980,228.929 312.980,229.250 312.896 C 229.571 312.813,229.308 312.744,228.667 312.744 C 228.025 312.744,227.762 312.813,228.083 312.896 M168.254 314.902 C 168.669 314.982,169.269 314.979,169.587 314.896 C 169.906 314.812,169.567 314.747,168.833 314.751 C 168.100 314.754,167.839 314.823,168.254 314.902 M228.417 314.896 C 228.737 314.980,229.262 314.980,229.583 314.896 C 229.904 314.813,229.642 314.744,229.000 314.744 C 228.358 314.744,228.096 314.813,228.417 314.896 M133.667 357.771 C 133.667 357.828,134.154 358.316,134.750 358.854 L 135.833 359.833 134.854 358.750 C 133.942 357.740,133.667 357.513,133.667 357.771 M138.667 362.833 C 139.289 363.475,139.872 364.000,139.964 364.000 C 140.056 364.000,139.622 363.475,139.000 362.833 C 138.378 362.192,137.794 361.667,137.703 361.667 C 137.611 361.667,138.045 362.192,138.667 362.833 " stroke="none" fill="#747474" fill-rule="evenodd"></path></g></svg>