<svg id="svg" version="1.1" xmlns="http://www.w3.org/2000/svg" xmlns:xlink="http://www.w3.org/1999/xlink" width="400" height="400" viewBox="0, 0, 400,400"><g id="svgg"><path id="path0" d="M192.334 12.215 C 192.334 12.372,191.584 12.448,190.667 12.384 C 189.698 12.317,189.000 12.409,189.000 12.603 C 189.000 12.787,188.730 12.867,188.399 12.780 C 188.069 12.694,186.456 12.854,184.816 13.137 C 183.175 13.420,179.738 13.881,177.177 14.163 C 77.965 25.084,3.762 114.210,10.661 214.167 C 18.604 329.245,126.643 410.262,239.300 385.619 C 339.477 363.707,403.900 264.934,383.629 164.333 C 367.751 85.531,303.418 25.218,224.000 14.678 C 221.158 14.301,218.158 13.894,217.333 13.773 C 216.508 13.652,215.694 13.587,215.524 13.629 C 214.986 13.763,210.685 12.907,210.817 12.693 C 210.887 12.580,210.337 12.546,209.595 12.616 C 208.853 12.687,208.326 12.615,208.424 12.456 C 208.522 12.297,204.945 12.114,200.468 12.049 C 195.994 11.984,192.333 12.059,192.334 12.215 M214.815 17.297 C 234.202 21.863,253.378 34.413,267.333 51.667 C 267.975 52.461,268.654 53.273,268.842 53.472 C 270.729 55.467,281.000 69.890,281.000 70.545 C 281.000 70.664,281.614 71.734,282.365 72.923 C 283.116 74.112,284.091 75.740,284.532 76.542 C 284.973 77.344,285.729 78.713,286.212 79.583 C 287.429 81.776,290.406 87.726,291.591 90.333 C 293.199 93.871,294.667 97.266,294.667 97.449 C 294.667 97.653,294.022 97.457,289.000 95.729 C 286.892 95.004,283.592 93.930,281.667 93.343 C 279.742 92.756,277.792 92.156,277.333 92.010 C 276.875 91.864,275.900 91.582,275.167 91.383 C 274.433 91.185,272.483 90.654,270.833 90.202 C 269.183 89.751,267.083 89.228,266.167 89.040 C 265.250 88.852,263.825 88.541,263.000 88.349 C 262.175 88.156,260.375 87.775,259.000 87.501 C 257.625 87.227,255.750 86.840,254.833 86.641 C 252.252 86.080,247.905 85.367,238.667 83.989 C 236.445 83.657,228.892 82.866,222.667 82.312 C 203.667 80.622,177.247 81.313,159.333 83.967 C 158.142 84.144,155.592 84.517,153.667 84.796 C 149.982 85.330,145.187 86.132,142.667 86.637 C 138.897 87.391,136.059 87.994,134.833 88.299 C 134.100 88.482,132.525 88.851,131.333 89.119 C 129.321 89.571,123.807 91.007,121.500 91.679 C 120.950 91.839,119.675 92.185,118.667 92.448 C 117.658 92.711,116.158 93.155,115.333 93.436 C 114.508 93.716,113.308 94.096,112.667 94.279 C 111.312 94.665,105.812 96.566,104.833 96.987 C 102.408 98.028,102.353 98.324,106.064 90.333 C 106.618 89.142,107.519 87.192,108.068 86.000 C 108.616 84.808,109.199 83.608,109.363 83.333 C 110.045 82.192,112.172 78.130,112.330 77.667 C 112.423 77.392,113.212 76.078,114.083 74.747 C 114.954 73.416,115.667 72.155,115.667 71.945 C 115.667 71.735,116.019 71.099,116.449 70.531 C 116.880 69.964,118.026 68.225,118.997 66.667 C 119.969 65.108,120.869 63.758,120.998 63.667 C 121.128 63.575,121.402 63.179,121.609 62.787 C 121.995 62.053,128.059 53.906,128.768 53.168 C 128.987 52.940,129.791 52.022,130.554 51.127 C 134.231 46.815,139.264 41.718,144.362 37.146 C 155.554 27.108,175.213 17.620,186.833 16.649 C 193.331 16.106,211.550 16.528,214.815 17.297 M166.667 19.163 C 166.667 19.253,165.333 19.996,163.703 20.815 C 159.989 22.680,155.461 25.418,151.965 27.912 C 150.484 28.969,148.949 30.054,148.553 30.323 C 144.929 32.790,134.895 42.309,130.148 47.785 C 129.058 49.041,128.007 50.241,127.811 50.451 C 126.921 51.407,120.975 59.453,119.627 61.526 C 118.801 62.795,117.872 64.208,117.562 64.667 C 115.563 67.623,114.636 69.091,113.662 70.846 C 113.056 71.939,112.241 73.358,111.851 74.000 C 111.461 74.642,110.887 75.617,110.576 76.167 C 109.804 77.531,104.909 87.439,103.989 89.500 C 103.579 90.417,102.878 91.992,102.431 93.000 C 101.983 94.008,101.413 95.286,101.163 95.838 C 100.914 96.391,100.551 97.261,100.357 97.771 C 100.131 98.366,99.554 98.885,98.752 99.217 C 98.063 99.502,96.900 99.996,96.167 100.315 C 95.433 100.634,94.308 101.092,93.667 101.333 C 89.591 102.863,80.431 107.233,75.167 110.159 C 74.250 110.669,73.050 111.315,72.500 111.596 C 71.950 111.876,71.125 112.360,70.667 112.672 C 70.208 112.984,68.933 113.733,67.833 114.336 C 65.905 115.394,58.341 120.253,58.000 120.653 C 57.908 120.761,57.387 121.133,56.842 121.481 C 56.297 121.829,55.697 122.240,55.509 122.394 C 55.321 122.548,54.567 123.136,53.833 123.700 C 50.982 125.893,50.608 126.184,49.965 126.720 C 49.600 127.024,48.684 127.774,47.930 128.386 C 35.251 138.680,24.424 152.078,18.043 165.367 C 16.445 168.695,16.412 168.562,17.522 163.255 C 32.571 91.296,88.628 35.591,161.667 20.018 C 166.804 18.922,166.667 18.946,166.667 19.163 M236.000 20.010 C 294.036 31.365,345.291 73.083,368.808 128.104 C 374.714 141.922,377.534 151.118,380.841 167.333 C 380.934 167.792,380.132 166.442,379.059 164.333 C 372.917 152.275,362.665 139.340,352.333 130.614 C 351.325 129.763,350.125 128.738,349.667 128.338 C 349.208 127.937,348.408 127.285,347.888 126.888 C 347.368 126.491,346.768 126.015,346.555 125.829 C 346.341 125.643,345.042 124.671,343.667 123.670 C 342.292 122.669,341.092 121.771,341.000 121.675 C 340.413 121.059,328.049 113.246,324.500 111.249 C 319.376 108.366,307.543 102.639,304.000 101.328 C 303.358 101.090,302.050 100.548,301.092 100.123 C 300.135 99.698,298.983 99.258,298.533 99.145 C 297.849 98.974,296.667 97.324,296.667 96.543 C 296.667 96.438,296.292 95.533,295.833 94.531 C 295.375 93.529,295.000 92.632,295.000 92.538 C 295.000 92.046,289.559 80.877,287.715 77.582 C 287.382 76.987,286.615 75.600,286.010 74.500 C 285.406 73.400,284.801 72.350,284.667 72.167 C 284.532 71.983,283.931 70.933,283.331 69.833 C 282.105 67.583,277.477 60.510,276.583 59.520 C 276.262 59.165,276.000 58.763,276.000 58.628 C 276.000 58.492,275.813 58.183,275.583 57.940 C 275.354 57.698,274.499 56.604,273.683 55.508 C 272.866 54.413,271.943 53.213,271.631 52.842 C 271.319 52.470,269.815 50.667,268.289 48.833 C 263.402 42.962,253.383 33.219,250.000 31.047 C 249.542 30.753,248.267 29.825,247.167 28.986 C 243.985 26.558,239.813 23.996,235.244 21.663 C 231.236 19.616,230.066 18.777,231.750 19.156 C 232.162 19.249,234.075 19.633,236.000 20.010 M218.833 83.976 C 220.667 84.166,224.192 84.486,226.667 84.686 C 232.868 85.186,240.943 86.197,245.333 87.021 C 246.342 87.211,248.367 87.566,249.833 87.811 C 252.192 88.205,259.090 89.594,262.333 90.328 C 262.975 90.473,264.325 90.773,265.333 90.995 C 266.976 91.355,269.163 91.930,275.000 93.532 C 279.752 94.837,285.967 96.838,291.500 98.846 C 293.333 99.511,295.079 100.130,295.378 100.223 C 296.323 100.514,301.721 115.554,304.151 124.667 C 304.544 126.139,306.032 131.816,306.160 132.333 C 306.845 135.089,307.766 138.998,307.888 139.667 C 307.971 140.125,308.341 141.850,308.709 143.500 C 309.078 145.150,309.431 146.875,309.495 147.333 C 309.611 148.168,309.995 150.421,310.660 154.167 C 310.856 155.267,311.087 156.821,311.174 157.620 C 311.261 158.420,311.558 160.670,311.833 162.620 C 312.567 167.817,312.703 168.895,312.866 170.789 C 312.947 171.730,313.159 174.150,313.336 176.167 C 314.386 188.076,314.572 212.081,313.682 220.833 C 313.496 222.667,313.190 226.117,313.002 228.500 C 312.468 235.292,311.744 241.095,310.653 247.333 C 310.445 248.525,310.229 249.800,310.175 250.167 C 310.023 251.190,309.378 254.642,308.991 256.500 C 308.801 257.417,308.593 258.542,308.530 259.000 C 308.347 260.337,305.468 272.596,305.008 274.000 C 304.858 274.458,304.487 275.733,304.183 276.833 C 303.215 280.339,301.956 284.389,300.607 288.333 C 299.886 290.442,299.244 292.392,299.180 292.667 C 299.115 292.942,298.767 293.916,298.405 294.831 L 297.747 296.496 294.290 297.784 C 292.389 298.492,290.533 299.200,290.167 299.357 C 289.482 299.650,284.308 301.359,280.167 302.659 C 277.826 303.395,275.746 303.971,272.333 304.829 C 271.325 305.083,269.900 305.462,269.167 305.671 C 268.433 305.881,266.858 306.273,265.667 306.544 C 264.475 306.814,262.900 307.185,262.167 307.368 C 261.433 307.552,259.858 307.900,258.667 308.142 C 257.475 308.384,255.375 308.817,254.000 309.103 C 252.625 309.390,250.375 309.803,249.000 310.022 C 247.625 310.241,245.750 310.545,244.833 310.698 C 239.821 311.536,232.465 312.475,227.000 312.974 C 224.892 313.167,221.217 313.507,218.833 313.730 C 212.839 314.290,184.868 314.298,179.167 313.742 C 176.783 313.509,173.033 313.169,170.833 312.986 C 165.260 312.523,157.232 311.515,152.500 310.684 C 147.321 309.775,144.670 309.298,143.333 309.033 C 142.508 308.870,140.933 308.569,139.833 308.364 C 138.733 308.159,137.308 307.849,136.667 307.675 C 136.025 307.500,134.450 307.123,133.167 306.837 C 130.238 306.184,128.120 305.672,126.833 305.306 C 126.283 305.150,124.933 304.778,123.833 304.479 C 119.493 303.301,108.979 299.999,107.500 299.350 C 107.133 299.188,106.008 298.788,105.000 298.460 C 103.992 298.131,103.017 297.761,102.833 297.636 C 102.650 297.512,102.023 297.308,101.440 297.184 C 100.167 296.912,99.952 296.655,99.198 294.500 C 98.877 293.583,98.487 292.533,98.331 292.167 C 97.402 289.982,93.857 278.494,92.829 274.333 C 92.580 273.325,92.205 271.900,91.995 271.167 C 91.786 270.433,91.393 268.858,91.123 267.667 C 90.853 266.475,90.482 264.900,90.298 264.167 C 90.115 263.433,89.764 261.858,89.518 260.667 C 89.273 259.475,88.895 257.675,88.680 256.667 C 88.465 255.658,88.068 253.483,87.799 251.833 C 86.329 242.839,86.489 243.863,86.001 240.333 C 85.210 234.615,84.960 232.270,83.942 221.000 C 83.381 214.783,83.369 186.862,83.925 181.167 C 84.158 178.783,84.497 175.033,84.679 172.833 C 84.963 169.397,85.331 165.869,85.826 161.833 C 85.956 160.773,86.471 157.481,87.025 154.167 C 87.209 153.067,87.414 151.792,87.481 151.333 C 87.548 150.875,87.754 149.750,87.939 148.833 C 88.283 147.123,88.942 143.687,89.154 142.500 C 89.219 142.133,89.436 141.121,89.636 140.250 C 89.836 139.379,90.150 137.954,90.334 137.083 C 91.261 132.685,92.536 127.829,94.382 121.667 C 94.793 120.292,95.164 119.017,95.204 118.833 C 95.245 118.650,95.601 117.525,95.997 116.333 C 96.392 115.142,96.769 113.942,96.835 113.667 C 96.901 113.392,97.502 111.667,98.170 109.833 C 98.838 108.000,99.540 105.975,99.730 105.333 C 99.921 104.692,100.343 103.567,100.669 102.833 C 100.995 102.100,101.335 101.275,101.425 101.000 C 101.515 100.725,103.144 99.926,105.044 99.224 C 106.945 98.522,108.800 97.821,109.167 97.666 C 109.533 97.511,110.733 97.124,111.833 96.807 C 112.933 96.489,113.976 96.102,114.150 95.948 C 114.324 95.793,114.734 95.667,115.060 95.667 C 115.386 95.667,116.743 95.301,118.076 94.853 C 119.409 94.406,121.100 93.893,121.833 93.714 C 122.567 93.535,124.592 93.010,126.333 92.547 C 128.075 92.085,129.800 91.628,130.167 91.531 C 132.134 91.012,138.098 89.645,139.833 89.315 C 140.933 89.107,142.433 88.797,143.167 88.627 C 143.900 88.457,145.925 88.083,147.667 87.797 C 149.408 87.510,151.583 87.145,152.500 86.986 C 153.417 86.826,155.367 86.542,156.833 86.354 C 158.300 86.166,160.550 85.864,161.833 85.683 C 169.456 84.609,175.108 84.103,184.500 83.654 C 191.521 83.318,214.595 83.534,218.833 83.976 M97.188 106.125 C 95.604 110.495,91.668 123.002,90.779 126.489 C 89.062 133.228,88.509 135.671,86.850 143.833 C 80.750 173.856,79.642 211.466,84.003 240.500 C 84.196 241.783,84.574 244.333,84.843 246.167 C 85.112 248.000,85.470 250.250,85.637 251.167 C 85.804 252.083,86.178 254.183,86.467 255.833 C 86.756 257.483,87.152 259.508,87.347 260.333 C 87.542 261.158,87.906 262.808,88.156 264.000 C 88.903 267.561,90.314 273.162,91.012 275.333 C 91.159 275.792,91.374 276.617,91.490 277.167 C 91.684 278.089,92.549 281.111,93.922 285.667 C 94.226 286.675,94.494 287.575,94.516 287.667 C 94.539 287.758,94.671 288.133,94.810 288.500 C 94.949 288.867,95.184 289.542,95.333 290.000 C 95.482 290.458,95.703 291.133,95.824 291.500 C 95.944 291.867,96.038 292.202,96.032 292.246 C 96.025 292.289,96.310 293.002,96.665 293.829 C 97.502 295.782,97.568 295.793,91.500 293.017 C 87.635 291.249,77.216 286.081,75.333 284.998 C 69.646 281.726,67.153 280.240,67.000 280.031 C 66.908 279.906,65.818 279.169,64.577 278.393 C 62.605 277.159,57.783 273.865,56.833 273.101 C 56.650 272.954,55.900 272.388,55.166 271.843 C 54.433 271.299,53.683 270.734,53.500 270.587 C 44.176 263.140,34.957 253.621,29.691 246.003 C 27.070 242.212,22.000 234.013,22.000 233.566 C 22.000 233.471,21.486 232.292,20.858 230.946 C 9.003 205.552,12.168 175.257,29.057 152.469 C 35.751 143.438,42.724 135.949,49.667 130.333 C 50.461 129.692,51.273 129.010,51.472 128.818 C 53.320 127.035,67.888 116.667,68.545 116.667 C 68.664 116.667,69.734 116.052,70.923 115.301 C 72.112 114.551,73.703 113.596,74.459 113.179 C 75.215 112.763,76.583 112.005,77.500 111.495 C 79.433 110.420,84.678 107.793,87.333 106.570 C 88.342 106.105,90.163 105.262,91.381 104.696 C 92.599 104.130,93.682 103.667,93.788 103.667 C 93.894 103.667,94.772 103.311,95.740 102.876 C 99.150 101.343,99.024 101.060,97.188 106.125 M301.927 102.872 C 302.894 103.309,303.746 103.667,303.819 103.667 C 304.245 103.667,318.583 110.647,322.520 112.770 C 325.741 114.508,336.336 121.348,340.172 124.167 C 341.685 125.278,345.808 128.457,346.212 128.823 C 346.420 129.012,347.469 129.917,348.542 130.833 C 351.804 133.619,357.039 138.725,361.333 143.307 C 382.552 165.948,389.919 201.295,378.673 226.500 C 378.346 227.233,377.619 228.883,377.058 230.167 C 368.216 250.395,348.971 269.793,323.167 284.489 C 321.167 285.628,308.538 291.998,307.147 292.570 C 304.554 293.635,302.107 294.710,301.551 295.028 C 300.532 295.610,300.560 295.205,301.785 291.611 C 304.289 284.265,307.776 272.211,308.809 267.333 C 311.099 256.516,311.604 253.996,311.985 251.500 C 312.152 250.400,312.515 248.225,312.792 246.667 C 313.068 245.108,313.529 241.883,313.815 239.500 C 314.102 237.117,314.416 234.642,314.514 234.000 C 314.824 231.961,315.667 221.050,315.994 214.833 C 316.861 198.393,315.937 176.938,313.691 161.333 C 312.599 153.748,312.282 151.652,312.002 150.167 C 311.829 149.250,311.458 147.225,311.178 145.667 C 310.897 144.108,310.530 142.233,310.363 141.500 C 310.196 140.767,309.813 139.042,309.511 137.667 C 309.209 136.292,308.815 134.567,308.635 133.833 C 308.455 133.100,308.248 132.200,308.175 131.833 C 308.102 131.467,307.796 130.267,307.495 129.167 C 307.194 128.067,306.667 126.117,306.325 124.833 C 305.983 123.550,305.532 121.975,305.323 121.333 C 305.114 120.692,304.892 119.867,304.831 119.500 C 304.769 119.133,304.396 117.858,304.002 116.667 C 303.607 115.475,303.230 114.275,303.163 114.000 C 302.998 113.325,301.038 107.668,300.680 106.833 C 300.384 106.144,300.033 105.112,299.999 104.834 C 299.989 104.747,299.686 103.989,299.326 103.149 L 298.672 101.623 299.419 101.851 C 299.830 101.976,300.959 102.436,301.927 102.872 M17.616 231.247 C 19.205 234.876,23.632 242.603,25.879 245.667 C 26.484 246.492,27.467 247.842,28.065 248.667 C 31.406 253.281,39.726 262.215,44.833 266.674 C 48.724 270.071,52.661 273.192,56.177 275.667 C 56.828 276.125,57.864 276.875,58.479 277.333 C 59.094 277.792,60.537 278.767,61.685 279.500 C 62.834 280.233,64.886 281.546,66.246 282.417 C 67.606 283.287,68.822 284.000,68.949 284.000 C 69.075 284.000,69.728 284.373,70.399 284.829 C 72.453 286.225,81.824 291.072,86.833 293.330 C 88.117 293.908,89.767 294.662,90.500 295.005 C 92.565 295.971,94.708 296.874,96.117 297.371 C 97.598 297.895,99.000 299.168,99.000 299.990 C 99.000 300.301,99.112 300.668,99.250 300.806 C 99.387 300.943,99.513 301.156,99.529 301.278 C 99.566 301.564,99.951 302.561,100.536 303.884 C 100.791 304.461,101.000 305.019,101.000 305.124 C 101.000 305.228,101.405 306.181,101.901 307.240 C 102.396 308.300,102.821 309.242,102.845 309.333 C 102.951 309.734,103.707 311.437,104.822 313.788 C 105.484 315.181,106.025 316.396,106.026 316.486 C 106.027 316.577,106.546 317.569,107.180 318.691 C 107.815 319.813,108.333 320.848,108.333 320.991 C 108.333 321.134,108.558 321.438,108.833 321.667 C 109.108 321.895,109.333 322.274,109.333 322.509 C 109.333 322.744,109.831 323.813,110.440 324.885 C 111.048 325.956,111.759 327.208,112.018 327.667 C 113.788 330.790,119.755 340.257,120.459 341.058 C 120.729 341.365,121.131 341.965,121.353 342.391 C 121.575 342.818,121.999 343.422,122.295 343.734 C 122.894 344.366,123.072 344.590,124.488 346.500 C 125.031 347.233,125.631 348.008,125.821 348.221 C 126.011 348.435,126.491 349.035,126.888 349.555 C 127.285 350.075,127.885 350.822,128.222 351.215 C 128.558 351.608,129.508 352.728,130.333 353.702 C 141.608 367.022,156.250 377.963,170.479 383.702 C 176.822 386.260,159.521 382.976,146.333 379.119 C 76.643 358.737,25.923 299.715,15.181 226.500 L 15.035 225.500 15.506 226.500 C 15.765 227.050,16.714 229.186,17.616 231.247 M381.509 231.881 C 368.919 308.947,308.943 369.588,231.201 383.856 C 223.662 385.240,223.556 385.212,228.576 383.158 C 242.663 377.396,257.067 366.308,269.000 352.040 C 269.825 351.053,270.658 350.078,270.851 349.873 C 271.045 349.668,272.239 348.075,273.506 346.333 C 274.773 344.592,275.889 343.092,275.988 343.000 C 278.419 340.735,288.251 323.644,293.326 312.862 C 294.929 309.458,294.666 310.069,297.403 303.366 C 298.557 300.542,299.725 298.122,300.000 297.988 C 300.970 297.515,302.186 297.011,304.000 296.332 C 305.008 295.955,306.433 295.362,307.167 295.014 C 307.900 294.666,309.550 293.910,310.833 293.334 C 313.379 292.191,319.424 289.156,322.333 287.560 C 323.342 287.007,324.767 286.229,325.500 285.830 C 327.352 284.822,338.316 278.024,339.333 277.251 C 346.863 271.537,348.374 270.359,350.276 268.720 C 350.629 268.416,351.649 267.568,352.542 266.836 C 363.893 257.536,376.039 241.263,381.340 228.254 C 382.456 225.514,382.477 225.958,381.509 231.881 M105.000 300.768 C 106.071 301.202,115.436 304.217,118.833 305.220 C 119.750 305.491,120.950 305.846,121.500 306.008 C 122.050 306.171,123.400 306.545,124.500 306.840 C 125.600 307.135,127.025 307.518,127.667 307.691 C 128.739 307.981,131.512 308.630,134.833 309.370 C 135.567 309.534,137.292 309.892,138.667 310.167 C 140.042 310.441,141.842 310.818,142.667 311.004 C 144.515 311.420,149.075 312.202,153.500 312.861 C 155.333 313.135,157.733 313.498,158.833 313.668 C 160.831 313.977,168.391 314.765,175.000 315.354 C 194.054 317.051,220.661 316.343,238.500 313.664 C 239.783 313.471,242.333 313.095,244.167 312.828 C 248.009 312.268,252.829 311.473,255.000 311.041 C 257.351 310.573,261.716 309.635,263.000 309.322 C 263.642 309.165,265.142 308.805,266.333 308.522 C 267.525 308.238,269.100 307.845,269.833 307.649 C 270.567 307.452,271.992 307.087,273.000 306.838 C 274.008 306.588,276.183 305.986,277.833 305.498 C 279.483 305.010,281.283 304.485,281.833 304.331 C 282.383 304.177,283.433 303.882,284.167 303.676 C 284.900 303.470,285.800 303.165,286.167 302.998 C 286.533 302.831,287.733 302.397,288.833 302.034 C 291.041 301.305,295.166 299.861,296.094 299.491 C 296.707 299.246,296.328 300.572,294.850 303.833 C 294.601 304.383,293.990 305.808,293.494 307.000 C 292.997 308.192,291.974 310.442,291.221 312.000 C 290.468 313.558,289.841 314.908,289.828 315.000 C 289.814 315.092,289.489 315.767,289.104 316.500 C 288.719 317.233,288.372 317.983,288.332 318.167 C 288.293 318.350,287.966 318.913,287.607 319.417 C 287.248 319.921,287.063 320.333,287.196 320.333 C 287.328 320.333,287.210 320.596,286.934 320.917 C 286.657 321.237,286.184 321.987,285.882 322.583 C 285.580 323.179,285.082 324.154,284.774 324.750 C 281.140 331.795,271.220 345.808,264.945 352.759 C 226.688 395.144,178.229 397.255,138.000 358.289 C 136.352 356.693,133.089 353.151,131.328 351.048 C 130.506 350.067,129.584 348.972,129.280 348.616 C 128.347 347.523,126.773 345.568,125.698 344.167 C 125.135 343.433,124.558 342.683,124.414 342.500 C 122.075 339.502,116.027 330.179,113.767 326.087 C 113.338 325.310,112.590 323.960,112.105 323.087 C 109.119 317.715,105.266 309.693,103.098 304.333 C 102.468 302.775,101.813 301.240,101.643 300.921 C 100.806 299.356,101.447 299.327,105.000 300.768 " stroke="none" fill="#f9f9f9" fill-rule="evenodd"></path><path id="path1" d="M187.000 16.657 C 174.826 17.766,155.307 27.384,143.667 38.009 C 136.629 44.433,129.833 51.846,125.342 58.000 C 124.338 59.375,123.434 60.575,123.334 60.667 C 122.981 60.987,116.000 71.559,116.000 71.772 C 116.000 71.890,115.497 72.777,114.883 73.744 C 112.920 76.832,108.602 85.106,106.225 90.333 C 105.767 91.342,104.929 93.163,104.363 94.381 C 103.386 96.483,103.135 97.333,103.493 97.333 C 103.727 97.333,106.413 96.328,107.011 96.017 C 107.292 95.871,108.042 95.640,108.678 95.504 C 109.313 95.368,109.983 95.148,110.167 95.016 C 110.350 94.884,111.400 94.514,112.500 94.195 C 113.600 93.875,114.875 93.480,115.333 93.317 C 116.528 92.893,123.170 91.024,125.333 90.504 C 126.342 90.261,127.992 89.842,129.000 89.573 C 130.008 89.304,132.333 88.756,134.167 88.356 C 136.000 87.956,138.175 87.477,139.000 87.291 C 139.825 87.105,141.100 86.818,141.833 86.653 C 142.567 86.488,144.292 86.181,145.667 85.969 C 147.042 85.758,148.842 85.457,149.667 85.299 C 151.019 85.041,154.014 84.598,160.833 83.647 C 164.047 83.199,171.990 82.374,177.000 81.968 C 179.292 81.782,187.692 81.546,195.667 81.443 C 211.563 81.237,214.400 81.363,231.333 83.027 C 236.826 83.566,243.774 84.517,248.167 85.331 C 249.267 85.535,251.367 85.919,252.833 86.184 C 254.300 86.449,256.100 86.802,256.833 86.968 C 257.567 87.134,259.067 87.441,260.167 87.650 C 262.678 88.128,266.281 88.945,268.667 89.577 C 269.675 89.844,271.325 90.259,272.333 90.498 C 273.342 90.738,274.992 91.180,276.000 91.482 C 282.822 93.521,291.055 96.157,292.167 96.658 C 294.666 97.784,294.703 97.383,292.521 92.833 C 292.081 91.917,291.325 90.267,290.840 89.167 C 290.355 88.067,289.817 86.942,289.645 86.667 C 289.473 86.392,289.173 85.792,288.979 85.333 C 288.567 84.361,288.262 83.760,286.354 80.167 C 285.576 78.700,284.756 77.275,284.534 77.000 C 284.311 76.725,283.950 76.080,283.730 75.566 C 283.511 75.052,282.745 73.749,282.028 72.669 C 281.311 71.589,280.625 70.394,280.504 70.013 C 280.383 69.632,279.805 68.685,279.220 67.910 C 278.634 67.134,277.633 65.676,276.994 64.670 C 275.726 62.671,270.290 55.305,269.393 54.369 C 269.085 54.048,268.383 53.216,267.833 52.519 C 265.489 49.549,256.945 40.675,254.319 38.483 C 240.292 26.771,228.882 20.702,214.482 17.294 C 211.210 16.520,193.109 16.100,187.000 16.657 M161.667 20.018 C 91.722 34.932,38.139 85.600,19.692 154.270 C 18.479 158.787,16.667 166.841,16.667 167.718 C 16.667 167.923,17.545 166.306,18.619 164.124 C 25.936 149.257,37.461 136.019,54.057 123.421 C 58.015 120.416,65.098 115.689,68.167 114.004 C 69.267 113.400,70.542 112.651,71.000 112.339 C 71.458 112.027,72.283 111.543,72.833 111.262 C 73.383 110.982,74.583 110.335,75.500 109.826 C 77.787 108.555,84.368 105.265,87.000 104.078 C 88.192 103.540,89.714 102.853,90.384 102.550 C 91.053 102.248,91.686 102.000,91.790 102.000 C 91.895 102.000,92.800 101.625,93.802 101.167 C 94.804 100.708,95.710 100.333,95.816 100.333 C 95.921 100.333,96.643 100.050,97.420 99.703 C 98.197 99.356,99.073 98.995,99.365 98.900 C 99.657 98.805,100.089 98.039,100.325 97.197 C 100.560 96.355,100.884 95.667,101.043 95.667 C 101.203 95.667,101.338 95.404,101.344 95.083 C 101.350 94.763,101.575 94.209,101.844 93.853 C 102.113 93.497,102.333 92.935,102.333 92.603 C 102.333 92.271,102.483 92.000,102.667 92.000 C 102.850 92.000,103.000 91.785,103.000 91.523 C 103.000 90.369,110.369 75.540,112.504 72.399 C 112.960 71.728,113.333 71.075,113.333 70.949 C 113.333 70.822,114.046 69.606,114.917 68.246 C 115.787 66.886,117.100 64.834,117.833 63.685 C 118.567 62.537,119.542 61.094,120.000 60.479 C 120.458 59.864,121.208 58.828,121.667 58.177 C 132.935 42.169,148.344 28.361,163.352 20.824 C 164.992 20.000,166.333 19.253,166.333 19.163 C 166.333 19.073,166.296 19.013,166.250 19.029 C 166.204 19.045,164.142 19.490,161.667 20.018 M235.167 21.441 C 244.745 26.447,252.558 32.309,261.476 41.181 C 269.014 48.680,279.230 62.021,283.671 70.167 C 284.270 71.267,285.016 72.542,285.328 73.000 C 285.640 73.458,286.124 74.283,286.404 74.833 C 286.685 75.383,287.329 76.583,287.835 77.500 C 289.085 79.763,292.437 86.451,293.347 88.500 C 293.755 89.417,294.498 91.067,294.999 92.167 C 295.499 93.267,296.024 94.542,296.164 95.000 C 296.747 96.901,298.028 99.000,298.606 99.000 C 298.933 99.000,299.342 99.126,299.517 99.280 C 299.691 99.434,300.358 99.758,301.000 99.999 C 301.642 100.241,302.767 100.699,303.500 101.018 C 304.233 101.337,305.808 102.003,307.000 102.498 C 315.950 106.217,330.377 114.202,339.167 120.304 C 340.267 121.067,341.542 121.945,342.000 122.255 C 342.458 122.565,342.908 122.897,343.000 122.994 C 343.092 123.091,344.067 123.833,345.167 124.643 C 346.952 125.957,347.975 126.793,352.330 130.495 C 362.393 139.050,372.772 152.010,378.530 163.211 C 381.087 168.186,381.116 167.999,379.122 159.333 C 363.107 89.745,306.855 34.740,236.797 20.163 C 230.807 18.917,230.619 19.064,235.167 21.441 M189.000 83.526 C 188.542 83.598,185.242 83.813,181.667 84.004 C 175.108 84.354,167.131 85.046,162.833 85.637 C 161.550 85.814,158.850 86.184,156.833 86.460 C 154.817 86.737,152.267 87.129,151.167 87.331 C 150.067 87.534,147.892 87.916,146.333 88.179 C 144.775 88.443,142.825 88.811,142.000 88.997 C 141.175 89.183,139.450 89.552,138.167 89.816 C 131.119 91.265,126.968 92.330,118.333 94.906 C 114.951 95.914,107.772 98.246,106.833 98.641 C 106.467 98.795,105.192 99.281,104.000 99.722 L 101.833 100.522 100.639 103.511 C 98.938 107.765,94.342 121.515,93.846 123.833 C 93.767 124.200,93.531 125.025,93.321 125.667 C 92.887 126.996,92.694 127.776,90.144 138.529 C 89.007 143.324,87.307 152.672,86.148 160.500 C 85.720 163.394,84.696 172.907,84.533 175.500 C 84.475 176.417,84.219 179.942,83.964 183.333 C 82.891 197.588,83.675 222.413,85.654 236.833 C 86.400 242.269,86.985 246.294,87.303 248.167 C 87.489 249.267,87.870 251.517,88.150 253.167 C 88.430 254.817,88.795 256.767,88.962 257.500 C 89.129 258.233,89.432 259.658,89.634 260.667 C 89.958 262.276,91.373 268.307,91.864 270.167 C 91.961 270.533,92.397 272.183,92.833 273.833 C 93.268 275.483,93.942 277.883,94.331 279.167 C 94.719 280.450,95.093 281.753,95.161 282.062 C 95.230 282.371,95.473 282.971,95.700 283.395 C 95.927 283.819,96.071 284.167,96.021 284.167 C 95.971 284.167,96.111 284.842,96.333 285.667 C 96.555 286.492,96.723 287.203,96.705 287.248 C 96.688 287.293,97.047 288.175,97.504 289.207 C 97.960 290.239,98.333 291.248,98.333 291.450 C 98.333 292.998,100.221 296.460,101.321 296.929 C 104.069 298.100,112.198 300.885,118.000 302.644 C 119.925 303.227,122.250 303.938,123.167 304.223 C 124.083 304.508,125.658 304.935,126.667 305.173 C 127.675 305.410,129.325 305.830,130.333 306.106 C 131.342 306.382,132.992 306.774,134.000 306.976 C 135.008 307.178,136.808 307.549,138.000 307.800 C 139.192 308.051,141.292 308.494,142.667 308.783 C 144.042 309.073,146.217 309.484,147.500 309.698 C 148.783 309.911,150.508 310.211,151.333 310.366 C 155.522 311.148,162.815 312.106,168.667 312.642 C 178.017 313.498,180.209 313.671,186.383 314.040 C 198.641 314.774,221.740 313.807,234.833 312.013 C 240.220 311.274,244.290 310.682,246.167 310.364 C 247.267 310.178,249.517 309.796,251.167 309.517 C 252.817 309.237,254.767 308.872,255.500 308.706 C 256.233 308.540,258.033 308.148,259.500 307.835 C 263.988 306.877,266.108 306.390,267.500 305.999 C 268.233 305.793,269.658 305.418,270.667 305.167 C 271.675 304.915,273.025 304.556,273.667 304.369 C 274.308 304.183,275.658 303.811,276.667 303.544 C 281.547 302.252,292.692 298.481,295.011 297.337 C 295.292 297.198,295.993 296.981,296.569 296.855 C 297.296 296.695,297.712 296.351,297.931 295.729 C 298.104 295.236,298.853 293.108,299.596 291.000 C 300.338 288.892,301.561 285.142,302.313 282.667 C 303.065 280.192,303.819 277.717,303.990 277.167 C 306.184 270.089,310.751 248.232,311.513 241.167 C 311.572 240.617,311.787 238.817,311.991 237.167 C 312.448 233.464,313.007 228.004,313.133 226.000 C 313.185 225.175,313.439 221.650,313.697 218.167 C 314.762 203.805,313.988 179.064,312.030 164.833 C 311.853 163.550,311.482 160.850,311.206 158.833 C 310.930 156.817,310.538 154.267,310.335 153.167 C 310.133 152.067,309.751 149.892,309.487 148.333 C 309.224 146.775,308.856 144.825,308.670 144.000 C 308.483 143.175,308.114 141.450,307.849 140.167 C 307.584 138.883,307.218 137.233,307.036 136.500 C 306.853 135.767,306.536 134.417,306.331 133.500 C 306.125 132.583,305.869 131.608,305.761 131.333 C 305.524 130.727,305.448 130.433,305.221 129.255 C 305.125 128.754,304.967 128.217,304.871 128.061 C 304.775 127.905,304.611 127.265,304.507 126.639 C 304.403 126.012,304.187 125.125,304.027 124.667 C 303.866 124.208,303.483 122.933,303.174 121.833 C 302.866 120.733,302.473 119.458,302.302 119.000 C 302.131 118.542,301.933 117.863,301.863 117.493 C 301.677 116.521,300.045 111.622,299.639 110.819 C 299.450 110.445,299.251 109.920,299.198 109.652 C 299.079 109.059,298.754 108.191,298.095 106.708 C 297.820 106.089,297.559 105.414,297.515 105.208 C 297.441 104.867,297.304 104.473,296.747 103.000 C 296.643 102.725,296.534 102.425,296.505 102.333 C 296.094 101.032,295.396 100.325,294.044 99.844 C 293.195 99.541,291.525 98.935,290.333 98.496 C 289.142 98.057,287.717 97.595,287.167 97.470 C 286.617 97.344,286.017 97.137,285.833 97.009 C 285.650 96.881,284.600 96.512,283.500 96.189 C 282.400 95.865,280.675 95.322,279.667 94.982 C 278.658 94.641,277.233 94.213,276.500 94.030 C 275.767 93.848,273.742 93.301,272.000 92.816 C 266.653 91.326,267.119 91.438,259.500 89.822 C 255.747 89.027,254.555 88.791,251.333 88.206 C 249.775 87.924,247.600 87.526,246.500 87.323 C 244.494 86.953,239.528 86.226,235.167 85.665 C 232.247 85.289,222.609 84.406,216.667 83.969 C 212.089 83.634,190.520 83.288,189.000 83.526 M299.000 101.785 C 299.000 101.895,299.387 103.001,299.860 104.242 C 304.873 117.396,309.370 134.211,312.144 150.167 C 312.622 152.917,313.170 156.367,313.362 157.833 C 313.555 159.300,313.852 161.475,314.024 162.667 C 314.500 165.974,315.299 173.896,315.756 179.833 C 316.302 186.921,316.298 214.480,315.751 221.500 C 315.136 229.394,315.063 230.209,314.662 233.667 C 313.630 242.569,313.433 243.967,312.320 250.333 C 312.111 251.525,311.890 252.800,311.828 253.167 C 311.667 254.118,310.465 260.222,309.712 263.917 C 309.553 264.696,309.496 265.333,309.586 265.333 C 309.675 265.333,309.596 265.521,309.411 265.750 C 309.225 265.979,308.991 266.770,308.890 267.508 C 308.790 268.246,308.552 269.259,308.362 269.758 C 308.172 270.258,308.090 270.667,308.179 270.667 C 308.269 270.667,308.122 271.194,307.852 271.839 C 307.583 272.484,307.367 273.087,307.373 273.178 C 307.397 273.553,306.937 275.556,306.649 276.333 C 306.478 276.792,306.274 277.542,306.194 278.000 C 306.115 278.458,306.020 278.871,305.983 278.917 C 305.947 278.962,305.892 279.112,305.861 279.250 C 305.830 279.387,305.443 280.625,305.000 282.000 C 304.557 283.375,304.178 284.575,304.158 284.667 C 304.137 284.758,303.948 285.433,303.736 286.167 C 303.525 286.900,303.346 287.612,303.339 287.748 C 303.327 287.966,302.303 290.926,301.753 292.333 C 301.646 292.608,301.537 292.908,301.512 293.000 C 301.488 293.092,301.348 293.515,301.203 293.942 C 300.812 295.089,301.056 295.115,303.209 294.156 C 304.286 293.676,305.617 293.083,306.167 292.837 C 306.717 292.592,308.067 291.994,309.167 291.509 C 311.330 290.556,317.377 287.515,320.333 285.894 C 321.342 285.341,322.767 284.562,323.500 284.164 C 327.778 281.842,339.992 273.802,342.221 271.841 C 342.435 271.654,343.102 271.125,343.705 270.667 C 376.310 245.877,390.698 210.167,380.974 178.167 C 375.092 158.811,360.611 139.243,342.167 125.728 C 341.983 125.594,340.633 124.632,339.167 123.591 C 337.700 122.550,336.125 121.420,335.667 121.079 C 334.901 120.509,324.592 114.115,322.667 113.016 C 319.729 111.339,312.176 107.517,309.500 106.353 C 308.583 105.955,307.233 105.346,306.500 105.001 C 304.071 103.857,301.512 102.762,300.667 102.505 C 300.208 102.366,299.646 102.102,299.417 101.918 C 299.188 101.735,299.000 101.675,299.000 101.785 M96.931 102.520 C 96.251 102.759,95.201 103.177,94.597 103.448 C 93.994 103.719,91.850 104.662,89.833 105.543 C 86.303 107.086,80.647 109.891,77.167 111.826 C 76.250 112.335,75.050 112.986,74.500 113.271 C 73.950 113.556,72.486 114.436,71.247 115.228 C 70.007 116.019,68.889 116.667,68.762 116.667 C 68.530 116.667,58.979 122.971,58.667 123.330 C 58.575 123.436,57.675 124.116,56.667 124.842 C 45.173 133.117,32.825 146.153,26.050 157.167 C 8.038 186.448,9.734 219.522,30.667 247.158 C 31.492 248.247,32.317 249.395,32.500 249.708 C 33.629 251.639,44.993 263.358,48.952 266.672 C 49.933 267.494,51.058 268.443,51.452 268.781 C 51.845 269.118,53.592 270.468,55.333 271.781 C 57.075 273.093,58.575 274.250,58.667 274.351 C 58.758 274.452,59.433 274.894,60.167 275.333 C 60.900 275.772,61.575 276.229,61.667 276.349 C 61.758 276.468,62.883 277.213,64.167 278.005 C 65.450 278.797,66.800 279.701,67.167 280.014 C 67.533 280.327,68.733 281.074,69.833 281.672 C 70.933 282.271,72.211 283.025,72.673 283.348 C 74.194 284.412,84.540 289.759,88.167 291.355 C 92.210 293.135,93.603 293.763,95.155 294.508 C 96.999 295.393,97.286 295.346,96.737 294.249 C 96.233 293.243,93.912 286.222,92.853 282.500 C 92.384 280.850,91.855 279.050,91.677 278.500 C 91.212 277.055,88.410 265.914,87.820 263.167 C 86.300 256.083,85.231 250.187,84.464 244.667 C 84.197 242.742,83.828 240.117,83.645 238.833 C 82.084 227.909,81.500 217.571,81.500 200.833 C 81.500 183.593,81.931 175.945,83.672 162.333 C 84.230 157.969,84.230 157.969,84.614 155.667 C 84.812 154.475,85.196 152.150,85.466 150.500 C 85.736 148.850,86.117 146.750,86.313 145.833 C 86.509 144.917,86.894 143.042,87.168 141.667 C 87.442 140.292,87.803 138.567,87.970 137.833 C 88.137 137.100,88.516 135.375,88.811 134.000 C 89.106 132.625,89.434 131.125,89.539 130.667 C 89.644 130.208,89.779 129.608,89.840 129.333 C 89.900 129.058,89.972 128.833,90.000 128.833 C 90.055 128.833,90.188 128.320,90.476 127.000 C 90.576 126.542,90.798 125.792,90.968 125.333 C 91.139 124.875,91.392 124.050,91.529 123.500 C 91.667 122.950,91.802 122.425,91.829 122.333 C 92.306 120.755,92.638 119.466,92.601 119.333 C 92.575 119.242,92.740 118.819,92.967 118.395 C 93.194 117.971,93.444 117.333,93.523 116.978 C 93.602 116.624,93.733 116.033,93.814 115.665 C 93.896 115.298,94.054 114.849,94.167 114.667 C 94.279 114.485,94.438 114.035,94.519 113.668 C 94.600 113.301,94.731 112.710,94.810 112.355 C 94.889 112.000,95.119 111.400,95.322 111.022 C 95.524 110.643,95.591 110.333,95.471 110.333 C 95.350 110.333,95.432 110.116,95.652 109.851 C 95.872 109.585,96.129 108.885,96.222 108.295 C 96.315 107.705,96.620 106.872,96.900 106.444 C 97.181 106.017,97.312 105.667,97.193 105.667 C 97.074 105.667,97.164 105.329,97.393 104.917 C 97.622 104.504,97.822 104.092,97.838 104.000 C 97.853 103.908,97.985 103.485,98.130 103.058 C 98.476 102.043,98.391 102.005,96.931 102.520 M15.348 227.013 C 15.329 228.093,16.767 236.177,17.848 241.071 C 33.967 314.059,92.363 370.546,165.269 383.674 C 171.996 384.886,172.895 384.857,169.778 383.531 C 154.369 376.976,140.716 366.577,129.035 352.500 C 127.514 350.667,125.994 348.840,125.658 348.441 C 122.478 344.667,114.310 332.263,110.989 326.167 C 109.304 323.073,104.023 312.576,103.430 311.142 C 103.006 310.117,101.984 307.743,100.999 305.500 C 100.677 304.767,99.928 302.875,99.334 301.297 C 98.189 298.255,98.185 298.250,94.916 297.026 C 94.117 296.727,93.209 296.340,90.167 295.004 C 83.714 292.170,73.324 286.899,70.673 285.115 C 70.034 284.685,69.402 284.333,69.267 284.333 C 68.964 284.333,63.655 280.999,63.085 280.450 C 62.857 280.230,61.882 279.580,60.918 279.004 C 59.001 277.859,56.956 276.442,54.050 274.248 C 53.381 273.743,52.386 272.993,51.839 272.581 C 36.411 260.978,22.679 243.999,16.456 228.833 C 15.735 227.076,15.357 226.455,15.348 227.013 M381.521 227.939 C 375.789 242.033,364.992 256.417,351.702 267.667 C 350.728 268.492,349.608 269.442,349.215 269.778 C 348.822 270.115,348.075 270.715,347.555 271.112 C 347.035 271.509,346.435 271.989,346.221 272.179 C 346.008 272.369,345.233 272.969,344.500 273.512 C 343.767 274.055,342.988 274.650,342.770 274.833 C 342.552 275.017,341.829 275.542,341.164 276.000 C 340.498 276.458,339.552 277.140,339.060 277.515 C 337.993 278.330,328.697 284.114,325.652 285.858 C 320.015 289.086,311.584 293.300,307.000 295.180 C 305.808 295.669,304.233 296.335,303.500 296.660 C 302.767 296.985,301.609 297.448,300.927 297.689 C 299.898 298.052,298.769 299.512,299.072 300.089 C 299.094 300.132,298.907 300.542,298.656 301.000 C 298.404 301.458,298.167 302.021,298.129 302.251 C 298.090 302.480,297.713 303.380,297.289 304.251 C 296.866 305.121,296.486 306.055,296.445 306.327 C 296.380 306.756,294.885 310.033,293.975 311.745 C 293.805 312.064,293.667 312.551,293.667 312.829 C 293.667 313.106,293.517 313.333,293.333 313.333 C 293.150 313.333,293.000 313.520,293.000 313.749 C 293.000 314.093,288.792 322.600,286.990 325.900 C 285.523 328.585,278.725 339.700,278.366 340.000 C 278.256 340.092,277.567 341.058,276.833 342.148 C 276.100 343.238,274.900 344.911,274.167 345.866 C 273.433 346.821,272.608 347.929,272.333 348.327 C 271.828 349.059,270.663 350.514,269.574 351.772 C 256.248 367.168,242.965 377.421,228.909 383.161 C 226.751 384.042,225.030 384.808,225.084 384.862 C 225.334 385.112,238.200 382.525,244.333 380.992 C 315.200 363.279,369.725 304.010,381.509 231.881 C 382.458 226.072,382.460 225.632,381.521 227.939 M101.562 300.250 C 101.677 300.571,101.880 300.983,102.013 301.167 C 102.147 301.350,102.361 301.987,102.488 302.583 C 102.615 303.179,102.841 303.667,102.990 303.667 C 103.139 303.667,103.364 304.079,103.490 304.583 C 103.615 305.087,103.921 305.950,104.168 306.500 C 105.568 309.608,106.000 310.666,106.000 310.982 C 106.000 311.175,106.150 311.333,106.333 311.333 C 106.517 311.333,106.667 311.603,106.667 311.933 C 106.667 312.263,106.796 312.676,106.954 312.850 C 107.113 313.024,108.446 315.492,109.918 318.333 C 113.793 325.817,120.440 337.010,122.079 338.813 C 122.402 339.168,122.667 339.558,122.667 339.679 C 122.667 339.799,122.939 340.211,123.271 340.595 C 123.603 340.978,124.166 341.694,124.521 342.187 C 125.511 343.562,127.759 346.456,128.151 346.862 C 128.343 347.061,129.025 347.881,129.667 348.684 C 133.178 353.077,138.340 358.527,142.347 362.071 C 143.531 363.119,145.025 364.442,145.667 365.011 C 146.308 365.580,147.433 366.492,148.167 367.037 C 148.900 367.583,150.550 368.817,151.833 369.780 C 155.561 372.579,167.973 379.667,169.144 379.667 C 169.252 379.667,169.976 379.964,170.754 380.327 C 180.885 385.058,197.298 387.086,210.000 385.175 C 231.897 381.882,255.335 366.365,271.944 344.167 C 279.015 334.716,285.706 323.494,290.924 312.333 C 294.240 305.242,296.441 299.997,296.202 299.758 C 296.057 299.612,293.910 300.283,292.167 301.018 C 288.879 302.405,282.169 304.458,272.000 307.190 C 264.876 309.103,257.546 310.741,251.833 311.695 C 250.550 311.910,248.825 312.213,248.000 312.369 C 247.175 312.525,244.775 312.891,242.667 313.182 C 240.558 313.473,237.858 313.856,236.667 314.034 C 234.070 314.422,226.035 315.250,220.500 315.701 C 218.300 315.881,209.975 316.114,202.000 316.221 C 188.020 316.407,183.213 316.256,173.333 315.317 C 171.408 315.134,168.258 314.834,166.333 314.651 C 161.473 314.189,153.985 313.161,149.500 312.340 C 148.400 312.139,146.300 311.756,144.833 311.490 C 141.684 310.918,137.701 310.124,135.833 309.697 C 135.100 309.530,133.450 309.168,132.167 308.893 C 129.210 308.261,123.312 306.727,121.000 305.990 C 120.542 305.844,118.592 305.245,116.667 304.658 C 111.306 303.025,103.235 300.348,102.588 299.988 C 101.714 299.503,101.331 299.600,101.562 300.250 " stroke="none" fill="#040404" fill-rule="evenodd"></path><path id="path2" d="M134.146 43.083 L 133.167 44.167 134.250 43.188 C 134.846 42.649,135.333 42.162,135.333 42.104 C 135.333 41.847,135.058 42.074,134.146 43.083 M185.427 81.579 C 186.303 81.648,187.653 81.647,188.427 81.577 C 189.200 81.507,188.483 81.451,186.833 81.452 C 185.183 81.453,184.550 81.510,185.427 81.579 M210.083 81.576 C 210.771 81.648,211.896 81.648,212.583 81.576 C 213.271 81.504,212.708 81.445,211.333 81.445 C 209.958 81.445,209.396 81.504,210.083 81.576 M232.083 83.230 C 232.404 83.314,232.929 83.314,233.250 83.230 C 233.571 83.146,233.308 83.077,232.667 83.077 C 232.025 83.077,231.762 83.146,232.083 83.230 M172.587 84.569 C 173.002 84.649,173.602 84.646,173.921 84.562 C 174.239 84.479,173.900 84.414,173.167 84.417 C 172.433 84.421,172.173 84.489,172.587 84.569 M223.250 84.569 C 223.662 84.648,224.338 84.648,224.750 84.569 C 225.162 84.489,224.825 84.424,224.000 84.424 C 223.175 84.424,222.838 84.489,223.250 84.569 M313.084 175.167 C 313.088 175.900,313.156 176.161,313.236 175.746 C 313.315 175.331,313.312 174.731,313.229 174.413 C 313.146 174.094,313.080 174.433,313.084 175.167 M84.411 176.000 C 84.411 176.642,84.479 176.904,84.563 176.583 C 84.647 176.262,84.647 175.737,84.563 175.417 C 84.479 175.096,84.411 175.358,84.411 176.000 M81.445 188.333 C 81.445 189.708,81.504 190.271,81.576 189.583 C 81.648 188.896,81.648 187.771,81.576 187.083 C 81.504 186.396,81.445 186.958,81.445 188.333 M316.116 188.667 C 316.116 190.225,316.174 190.862,316.244 190.083 C 316.314 189.304,316.314 188.029,316.244 187.250 C 316.174 186.471,316.116 187.108,316.116 188.667 M81.448 212.833 C 81.449 214.300,81.507 214.859,81.578 214.075 C 81.648 213.291,81.647 212.091,81.576 211.408 C 81.504 210.725,81.446 211.367,81.448 212.833 M316.112 213.333 C 316.112 214.708,316.171 215.271,316.243 214.583 C 316.315 213.896,316.315 212.771,316.243 212.083 C 316.171 211.396,316.112 211.958,316.112 213.333 M313.077 225.667 C 313.077 226.308,313.146 226.571,313.230 226.250 C 313.314 225.929,313.314 225.404,313.230 225.083 C 313.146 224.762,313.077 225.025,313.077 225.667 M84.417 226.500 C 84.421 227.233,84.489 227.494,84.569 227.079 C 84.649 226.665,84.646 226.065,84.562 225.746 C 84.479 225.427,84.414 225.767,84.417 226.500 M83.077 234.667 C 83.077 235.308,83.146 235.571,83.230 235.250 C 83.314 234.929,83.314 234.404,83.230 234.083 C 83.146 233.762,83.077 234.025,83.077 234.667 M172.917 313.235 C 173.329 313.315,174.004 313.315,174.417 313.235 C 174.829 313.156,174.492 313.091,173.667 313.091 C 172.842 313.091,172.504 313.156,172.917 313.235 M223.921 313.236 C 224.335 313.315,224.935 313.312,225.254 313.229 C 225.573 313.146,225.233 313.080,224.500 313.084 C 223.767 313.088,223.506 313.156,223.921 313.236 M232.083 314.563 C 232.404 314.647,232.929 314.647,233.250 314.563 C 233.571 314.479,233.308 314.411,232.667 314.411 C 232.025 314.411,231.762 314.479,232.083 314.563 M185.083 316.243 C 185.771 316.315,186.896 316.315,187.583 316.243 C 188.271 316.171,187.708 316.112,186.333 316.112 C 184.958 316.112,184.396 316.171,185.083 316.243 M209.250 316.244 C 210.029 316.314,211.304 316.314,212.083 316.244 C 212.862 316.174,212.225 316.116,210.667 316.116 C 209.108 316.116,208.471 316.174,209.250 316.244 M134.333 354.438 C 134.333 354.495,134.821 354.983,135.417 355.521 L 136.500 356.500 135.521 355.417 C 134.608 354.407,134.333 354.180,134.333 354.438 " stroke="none" fill="#565656" fill-rule="evenodd"></path><path id="path3" d="M134.812 46.417 L 133.833 47.500 134.917 46.521 C 135.926 45.608,136.153 45.333,135.896 45.333 C 135.838 45.333,135.351 45.821,134.812 46.417 M174.755 82.239 C 175.261 82.316,176.011 82.314,176.421 82.235 C 176.831 82.156,176.417 82.093,175.500 82.095 C 174.583 82.098,174.248 82.163,174.755 82.239 M220.917 82.235 C 221.329 82.315,222.004 82.315,222.417 82.235 C 222.829 82.156,222.492 82.091,221.667 82.091 C 220.842 82.091,220.504 82.156,220.917 82.235 M168.083 82.896 C 168.404 82.980,168.929 82.980,169.250 82.896 C 169.571 82.813,169.308 82.744,168.667 82.744 C 168.025 82.744,167.762 82.813,168.083 82.896 M228.254 82.902 C 228.669 82.982,229.269 82.979,229.587 82.896 C 229.906 82.812,229.567 82.747,228.833 82.751 C 228.100 82.754,227.839 82.823,228.254 82.902 M168.417 84.896 C 168.737 84.980,169.262 84.980,169.583 84.896 C 169.904 84.813,169.642 84.744,169.000 84.744 C 168.358 84.744,168.096 84.813,168.417 84.896 M227.921 84.902 C 228.335 84.982,228.935 84.979,229.254 84.896 C 229.573 84.812,229.233 84.747,228.500 84.751 C 227.767 84.754,227.506 84.823,227.921 84.902 M84.744 171.000 C 84.744 171.642,84.813 171.904,84.896 171.583 C 84.980 171.262,84.980 170.737,84.896 170.417 C 84.813 170.096,84.744 170.358,84.744 171.000 M82.077 178.000 C 82.077 178.642,82.146 178.904,82.230 178.583 C 82.314 178.262,82.314 177.737,82.230 177.417 C 82.146 177.096,82.077 177.358,82.077 178.000 M313.767 184.333 C 313.767 185.342,313.829 185.754,313.905 185.250 C 313.982 184.746,313.982 183.921,313.905 183.417 C 313.829 182.912,313.767 183.325,313.767 184.333 M83.767 217.333 C 83.767 218.342,83.829 218.754,83.905 218.250 C 83.982 217.746,83.982 216.921,83.905 216.417 C 83.829 215.912,83.767 216.325,83.767 217.333 M315.411 223.667 C 315.411 224.308,315.479 224.571,315.563 224.250 C 315.647 223.929,315.647 223.404,315.563 223.083 C 315.479 222.762,315.411 223.025,315.411 223.667 M312.751 230.500 C 312.754 231.233,312.823 231.494,312.902 231.079 C 312.982 230.665,312.979 230.065,312.896 229.746 C 312.812 229.427,312.747 229.767,312.751 230.500 M84.744 230.667 C 84.744 231.308,84.813 231.571,84.896 231.250 C 84.980 230.929,84.980 230.404,84.896 230.083 C 84.813 229.762,84.744 230.025,84.744 230.667 M82.744 231.000 C 82.744 231.642,82.813 231.904,82.896 231.583 C 82.980 231.262,82.980 230.737,82.896 230.417 C 82.813 230.096,82.744 230.358,82.744 231.000 M168.417 312.896 C 168.737 312.980,169.262 312.980,169.583 312.896 C 169.904 312.813,169.642 312.744,169.000 312.744 C 168.358 312.744,168.096 312.813,168.417 312.896 M228.083 312.896 C 228.404 312.980,228.929 312.980,229.250 312.896 C 229.571 312.813,229.308 312.744,228.667 312.744 C 228.025 312.744,227.762 312.813,228.083 312.896 M168.254 314.902 C 168.669 314.982,169.269 314.979,169.587 314.896 C 169.906 314.812,169.567 314.747,168.833 314.751 C 168.100 314.754,167.839 314.823,168.254 314.902 M228.417 314.896 C 228.737 314.980,229.262 314.980,229.583 314.896 C 229.904 314.813,229.642 314.744,229.000 314.744 C 228.358 314.744,228.096 314.813,228.417 314.896 M175.250 315.569 C 175.662 315.648,176.338 315.648,176.750 315.569 C 177.162 315.489,176.825 315.424,176.000 315.424 C 175.175 315.424,174.838 315.489,175.250 315.569 M221.421 315.573 C 221.928 315.649,222.678 315.647,223.088 315.568 C 223.498 315.489,223.083 315.426,222.167 315.429 C 221.250 315.431,220.915 315.496,221.421 315.573 M133.667 357.771 C 133.667 357.828,134.154 358.316,134.750 358.854 L 135.833 359.833 134.854 358.750 C 133.942 357.740,133.667 357.513,133.667 357.771 M138.667 362.833 C 139.289 363.475,139.872 364.000,139.964 364.000 C 140.056 364.000,139.622 363.475,139.000 362.833 C 138.378 362.192,137.794 361.667,137.703 361.667 C 137.611 361.667,138.045 362.192,138.667 362.833 " stroke="none" fill="#848484" fill-rule="evenodd"></path><path id="path4" d="M181.250 83.908 C 181.846 83.982,182.821 83.982,183.417 83.908 C 184.012 83.834,183.525 83.773,182.333 83.773 C 181.142 83.773,180.654 83.834,181.250 83.908 M214.256 83.908 C 214.855 83.982,215.755 83.981,216.256 83.905 C 216.757 83.829,216.267 83.768,215.167 83.770 C 214.067 83.772,213.657 83.834,214.256 83.908 M233.750 85.563 C 234.071 85.647,234.596 85.647,234.917 85.563 C 235.237 85.479,234.975 85.411,234.333 85.411 C 233.692 85.411,233.429 85.479,233.750 85.563 M315.411 177.333 C 315.411 177.975,315.479 178.237,315.563 177.917 C 315.647 177.596,315.647 177.071,315.563 176.750 C 315.479 176.429,315.411 176.692,315.411 177.333 M83.757 184.667 C 83.757 185.492,83.822 185.829,83.902 185.417 C 83.981 185.004,83.981 184.329,83.902 183.917 C 83.822 183.504,83.757 183.842,83.757 184.667 M313.757 217.000 C 313.757 217.825,313.822 218.162,313.902 217.750 C 313.981 217.338,313.981 216.662,313.902 216.250 C 313.822 215.838,313.757 216.175,313.757 217.000 M82.084 224.167 C 82.088 224.900,82.156 225.161,82.236 224.746 C 82.315 224.331,82.312 223.731,82.229 223.413 C 82.146 223.094,82.080 223.433,82.084 224.167 M162.750 312.230 C 163.071 312.314,163.596 312.314,163.917 312.230 C 164.237 312.146,163.975 312.077,163.333 312.077 C 162.692 312.077,162.429 312.146,162.750 312.230 M181.417 313.905 C 181.921 313.982,182.746 313.982,183.250 313.905 C 183.754 313.829,183.342 313.767,182.333 313.767 C 181.325 313.767,180.912 313.829,181.417 313.905 M214.250 313.908 C 214.846 313.982,215.821 313.982,216.417 313.908 C 217.012 313.834,216.525 313.773,215.333 313.773 C 214.142 313.773,213.654 313.834,214.250 313.908 " stroke="none" fill="#7c7c7c" fill-rule="evenodd"></path></g></svg>